<svg width="71" height="58" viewBox="0 0 71 58" fill="none" xmlns="http://www.w3.org/2000/svg">
<g filter="url(#filter0_d_5_3746)">
<path fill-rule="evenodd" clip-rule="evenodd" d="M24 15C24 12.2386 26.2386 10 29 10H53.5763C56.3377 10 58.5763 12.2386 58.5763 15V39C58.5763 41.7614 56.3377 44 53.5763 44H29C26.2386 44 24 41.7614 24 39V15Z" fill="url(#paint0_linear_5_3746)"/>
</g>
<path d="M46.8571 21H35.3776C34.6199 21 34 21.5786 34 22.2857C34 22.9929 34.6199 23.5714 35.3776 23.5714H46.8571C47.6148 23.5714 48.2347 22.9929 48.2347 22.2857C48.2347 21.5786 47.6148 21 46.8571 21Z" fill="white"/>
<path d="M46.8571 25.7143H35.3776C34.6199 25.7143 34 26.2929 34 27C34 27.7071 34.6199 28.2857 35.3776 28.2857H46.8571C47.6148 28.2857 48.2347 27.7071 48.2347 27C48.2347 26.2929 47.6148 25.7143 46.8571 25.7143Z" fill="white"/>
<path d="M46.8571 30.4286H35.3776C34.6199 30.4286 34 31.0071 34 31.7143C34 32.4214 34.6199 33 35.3776 33H46.8571C47.6148 33 48.2347 32.4214 48.2347 31.7143C48.2347 31.0071 47.6148 30.4286 46.8571 30.4286Z" fill="white"/>
<path d="M2.07514 30.2857C1.03381 30.2857 0.186523 31.1189 0.186523 32.1429C0.186523 33.1668 1.03381 34 2.07514 34C3.11648 34 3.96376 33.1668 3.96376 32.1429C3.96376 31.1189 3.11648 30.2857 2.07514 30.2857Z" fill="#A0BCE4"/>
<path d="M6.79669 30.2857C5.75535 30.2857 4.90807 31.1189 4.90807 32.1429C4.90807 33.1668 5.75535 34 6.79669 34C7.83803 34 8.68531 33.1668 8.68531 32.1429C8.68531 31.1189 7.83803 30.2857 6.79669 30.2857Z" fill="#A0BCE4"/>
<path d="M11.5182 30.2857C10.4769 30.2857 9.62962 31.1189 9.62962 32.1429C9.62962 33.1668 10.4769 34 11.5182 34C12.5596 34 13.4069 33.1668 13.4069 32.1429C13.4069 31.1189 12.5596 30.2857 11.5182 30.2857Z" fill="#A0BCE4"/>
<path d="M2.07514 25.6429C1.03381 25.6429 0.186523 26.476 0.186523 27.5C0.186523 28.524 1.03381 29.3571 2.07514 29.3571C3.11648 29.3571 3.96376 28.524 3.96376 27.5C3.96376 26.476 3.11648 25.6429 2.07514 25.6429Z" fill="#A0BCE4"/>
<path d="M6.79669 25.6429C5.75535 25.6429 4.90807 26.476 4.90807 27.5C4.90807 28.524 5.75535 29.3571 6.79669 29.3571C7.83803 29.3571 8.68531 28.524 8.68531 27.5C8.68531 26.476 7.83803 25.6429 6.79669 25.6429Z" fill="#A0BCE4"/>
<path d="M11.5182 25.6429C10.4769 25.6429 9.62962 26.476 9.62962 27.5C9.62962 28.524 10.4769 29.3571 11.5182 29.3571C12.5596 29.3571 13.4069 28.524 13.4069 27.5C13.4069 26.476 12.5596 25.6429 11.5182 25.6429Z" fill="#A0BCE4"/>
<path d="M2.07514 21C1.03381 21 0.186523 21.8332 0.186523 22.8571C0.186523 23.8811 1.03381 24.7143 2.07514 24.7143C3.11648 24.7143 3.96376 23.8811 3.96376 22.8571C3.96376 21.8332 3.11648 21 2.07514 21Z" fill="#A0BCE4"/>
<path d="M6.79669 21C5.75535 21 4.90807 21.8332 4.90807 22.8571C4.90807 23.8811 5.75535 24.7143 6.79669 24.7143C7.83803 24.7143 8.68531 23.8811 8.68531 22.8571C8.68531 21.8332 7.83803 21 6.79669 21Z" fill="#A0BCE4"/>
<path d="M11.5182 24.7143C12.5596 24.7143 13.4069 23.8811 13.4069 22.8571C13.4069 21.8332 12.5596 21 11.5182 21C10.4769 21 9.62962 21.8332 9.62962 22.8571C9.62962 23.8811 10.4769 24.7143 11.5182 24.7143Z" fill="#A0BCE4"/>
<defs>
<filter id="filter0_d_5_3746" x="12" y="0" width="58.5762" height="58" filterUnits="userSpaceOnUse" color-interpolation-filters="sRGB">
<feFlood flood-opacity="0" result="BackgroundImageFix"/>
<feColorMatrix in="SourceAlpha" type="matrix" values="0 0 0 0 0 0 0 0 0 0 0 0 0 0 0 0 0 0 127 0" result="hardAlpha"/>
<feOffset dy="2"/>
<feGaussianBlur stdDeviation="6"/>
<feColorMatrix type="matrix" values="0 0 0 0 0.299079 0 0 0 0 0.554519 0 0 0 0 0.923416 0 0 0 0.186481 0"/>
<feBlend mode="normal" in2="BackgroundImageFix" result="effect1_dropShadow_5_3746"/>
<feBlend mode="normal" in="SourceGraphic" in2="effect1_dropShadow_5_3746" result="shape"/>
</filter>
<linearGradient id="paint0_linear_5_3746" x1="24" y1="43.7597" x2="58.0875" y2="43.7597" gradientUnits="userSpaceOnUse">
<stop stop-color="#4C8DEB"/>
<stop offset="1" stop-color="#4C74EC"/>
</linearGradient>
</defs>
</svg>
