<svg width="47" height="16" viewBox="0 0 47 16" fill="none" xmlns="http://www.w3.org/2000/svg">
<g clip-path="url(#clip0_6_99)">
<path d="M12 1.33334L14.6667 4" stroke="#757D8A" stroke-linecap="round" stroke-linejoin="round"/>
<path d="M5.00016 13.6667L12.6668 6L10.0002 3.33334L2.3335 11L1.3335 14.6667L5.00016 13.6667Z" stroke="#757D8A" stroke-linecap="round" stroke-linejoin="round"/>
</g>
<path d="M33 4H34.3333H45" stroke="#757D8A" stroke-linecap="round" stroke-linejoin="round"/>
<path d="M36.3335 4V2.66667C36.3335 2.31305 36.474 1.97391 36.724 1.72386C36.9741 1.47381 37.3132 1.33334 37.6668 1.33334H40.3335C40.6871 1.33334 41.0263 1.47381 41.2763 1.72386C41.5264 1.97391 41.6668 2.31305 41.6668 2.66667V4M43.6668 4V13.3333C43.6668 13.687 43.5264 14.0261 43.2763 14.2761C43.0263 14.5262 42.6871 14.6667 42.3335 14.6667H35.6668C35.3132 14.6667 34.9741 14.5262 34.724 14.2761C34.474 14.0261 34.3335 13.687 34.3335 13.3333V4H43.6668Z" stroke="#757D8A" stroke-linecap="round" stroke-linejoin="round"/>
<path d="M37.6665 7.33334V11.3333" stroke="#757D8A" stroke-linecap="round" stroke-linejoin="round"/>
<path d="M40.3335 7.33334V11.3333" stroke="#757D8A" stroke-linecap="round" stroke-linejoin="round"/>
<defs>
<clipPath id="clip0_6_99">
<rect width="16" height="16" fill="white"/>
</clipPath>
</defs>
</svg>
