<svg width="128" height="128" xmlns="http://www.w3.org/2000/svg" xml:space="preserve" version="1.1">
 <g>
  <title>Layer 1</title>
  <g stroke="null" id="svg_1">
   <g stroke="null" id="svg_2">
    <path stroke="null" id="svg_3" fill="#010002" d="m82.60567,80.685l-78.60567,0c0,-2.26649 0,-4.53299 0,-6.79344c0,-3.56595 1.14925,-4.86239 4.05851,-6.93547c6.42269,-4.56623 16.00418,-7.47037 25.99612,-9.99675c1.7797,-0.45028 1.3791,-0.62857 1.40866,-2.30578c0.03284,-1.68627 0,-1.52913 -1.33642,-2.56567c-11.09194,-8.61872 -10.22507,-34.36308 9.17761,-36.16721c19.3994,1.80413 20.26627,27.54849 9.17104,36.16721c-1.33313,1.03654 -1.36597,0.8794 -1.33313,2.56567c0.02955,1.68023 -0.37104,1.85248 1.40866,2.30578c9.99194,2.52639 19.57343,5.43052 25.99612,9.99675c2.90925,2.07309 4.05851,3.36952 4.05851,6.93547c0,2.26649 0,4.52695 0,6.79344z"/>
   </g>
  </g>
  <g id="svg_4"/>
  <g id="svg_5"/>
  <g id="svg_6"/>
  <g id="svg_7"/>
  <g id="svg_8"/>
  <g id="svg_9"/>
  <g id="svg_10"/>
  <g id="svg_11"/>
  <g id="svg_12"/>
  <g id="svg_13"/>
  <g id="svg_14"/>
  <g id="svg_15"/>
  <g id="svg_16"/>
  <g id="svg_17"/>
  <g id="svg_18"/>
  <g stroke="null" id="svg_24">
   <g stroke="null" id="svg_23">
    <path stroke="null" id="svg_22" fill="#010002" d="m127.27232,96.01834l-77.939,0c0,-2.26649 0,-4.53298 0,-6.79344c0,-3.56595 1.13951,-4.86238 4.02409,-6.93547c6.36822,-4.56624 15.86845,-7.47037 25.77565,-9.99676c1.7646,-0.45027 1.36739,-0.62856 1.39671,-2.30577c0.03255,-1.68628 0,-1.52914 -1.32509,-2.56568c-10.99786,-8.61872 -10.13835,-34.36309 9.09977,-36.16722c19.23488,1.80413 20.09439,27.5485 9.09327,36.16722c-1.32183,1.03654 -1.35439,0.8794 -1.32183,2.56568c0.0293,1.68022 -0.36789,1.85247 1.39671,2.30577c9.9072,2.5264 19.40742,5.43053 25.77564,9.99676c2.88458,2.07309 4.02409,3.36952 4.02409,6.93547c0,2.26649 0,4.52695 0,6.79344z"/>
   </g>
  </g>
 </g>
</svg>