<svg xmlns="http://www.w3.org/2000/svg" width="100" height="100">
 <g>
  <title>Layer 1</title>
  <path fill="none" d="m-3.06373,-3.13181l30.26363,0l0,30.12746l-30.26363,0l0,-30.12746z" id="svg_2" stroke="null"/>
  <path stroke="null" d="m60.67338,38.79628l0,21.52123l-21.71061,0l0,-21.52123l21.71061,0zm10.85531,0l27.13825,0l0,21.52123l-27.13825,0l0,-21.52123zm-10.85531,59.18342l-21.71061,0l0,-26.90153l21.71061,0l0,26.90153zm10.85531,0l0,-26.90153l27.13825,0l0,21.52123a5.42763,5.38031 0 0 1 -5.42763,5.38031l-21.71061,0zm-10.85531,-96.84556l0,26.90153l-21.71061,0l0,-26.90153l21.71061,0zm10.85531,0l21.71061,0a5.42763,5.38031 0 0 1 5.42763,5.38031l0,21.52123l-27.13825,0l0,-26.90153zm-43.42123,37.66219l0,21.52123l-27.13825,0l0,-21.52123l27.13825,0zm0,59.18342l-21.71061,0a5.42763,5.38031 0 0 1 -5.42763,-5.38031l0,-21.52123l27.13825,0l0,26.90153zm0,-96.84556l0,26.90153l-27.13825,0l0,-21.52123a5.42763,5.38031 0 0 1 5.42763,-5.38031l21.71061,0z" id="svg_3"/>
 </g>
</svg>