<?xml version="1.0" encoding="UTF-8"?>
<svg version="1.1" xmlns="http://www.w3.org/2000/svg" width="128" height="128">
<path d="M0 0 C2.23241613 0.83102995 3.63368844 1.79399878 5.45581055 3.32055664 C6.41112671 4.11055054 6.41112671 4.11055054 7.38574219 4.91650391 C8.06113037 5.48554443 8.73651855 6.05458496 9.43237305 6.64086914 C10.8755788 7.83585204 12.31960354 9.02984644 13.7644043 10.22290039 C14.48708496 10.82183105 15.20976563 11.42076172 15.9543457 12.0378418 C18.38198286 14.03259636 20.83773247 15.98651186 23.31782532 17.91552734 C24.45146152 18.80432101 25.5783375 19.70187487 26.69514465 20.61172485 C29.68183981 23.02456446 32.63475156 25.14954742 35.9831543 27.03417969 C41.17472344 30.16691441 46.03960137 33.35218458 47.8444519 39.40579224 C48.93698328 46.94395175 48.41746771 54.43758745 47.99487305 62.01586914 C47.53081055 73.77211914 47.53081055 73.77211914 47.05737305 85.76586914 C15.37737305 85.76586914 -16.30262695 85.76586914 -48.94262695 85.76586914 C-48.94262695 42.76586914 -48.94262695 42.76586914 -40.94262695 34.76586914 C-36.93481445 31.22680664 -36.93481445 31.22680664 -34.93383789 29.50317383 C-31.5586541 26.55837149 -28.32111192 23.46868428 -25.06762695 20.39086914 C-12.82601131 8.86625225 -12.82601131 8.86625225 -6.94262695 3.76586914 C-5.69545898 2.62698242 -5.69545898 2.62698242 -4.4230957 1.46508789 C-1.94262695 -0.23413086 -1.94262695 -0.23413086 0 0 Z M-12.94262695 41.76586914 C-12.94262695 53.64586914 -12.94262695 65.52586914 -12.94262695 77.76586914 C-5.02262695 77.76586914 2.89737305 77.76586914 11.05737305 77.76586914 C11.05737305 65.88586914 11.05737305 54.00586914 11.05737305 41.76586914 C3.13737305 41.76586914 -4.78262695 41.76586914 -12.94262695 41.76586914 Z " fill="#000000" transform="translate(64.942626953125,26.234130859375)"/>
<path d="M0 0 C3.42336655 1.33216979 5.84066897 3.45419393 8.52734375 5.8828125 C9.68431246 6.89538755 10.84322969 7.90573976 12.00390625 8.9140625 C12.89384277 9.68943359 12.89384277 9.68943359 13.80175781 10.48046875 C16.59972474 12.87043067 19.49503723 15.12814974 22.40234375 17.3828125 C29.51311746 22.91970318 36.5050443 28.59581165 43.48730469 34.29345703 C47.18393612 37.30759381 50.88732484 40.31341334 54.58984375 43.3203125 C55.94403898 44.42053776 57.29820839 45.5207948 58.65234375 46.62109375 C59.62171875 47.40871094 60.59109375 48.19632813 61.58984375 49.0078125 C60.79296875 52.84375 60.79296875 52.84375 58.96484375 54.3203125 C55.49817331 55.32382236 52.91773375 55.29561668 49.58984375 54.0078125 C46.02436931 51.61054812 42.83510253 48.81685481 39.58984375 46.0078125 C37.90618532 44.62811125 36.21856119 43.25323756 34.52734375 41.8828125 C28.97269392 37.32878753 23.4300245 32.76020435 17.88671875 28.19238281 C12.13179201 23.45104903 6.36586347 18.72343983 0.58984375 14.0078125 C-2.89525556 15.55225326 -5.55337962 17.63256603 -8.47265625 20.0703125 C-9.45105469 20.88242187 -10.42945313 21.69453125 -11.4375 22.53125 C-12.41847656 23.34851563 -13.39945313 24.16578125 -14.41015625 25.0078125 C-16.11698285 26.40548786 -17.82531092 27.80133172 -19.53515625 29.1953125 C-22.89965708 31.94500526 -26.25496522 34.70510304 -29.6015625 37.4765625 C-30.714104 38.39659058 -30.714104 38.39659058 -31.84912109 39.33520508 C-33.30773983 40.54185178 -34.76517024 41.74993696 -36.22119141 42.9597168 C-39.67336699 45.81379139 -43.1523166 48.63031643 -46.6953125 51.37109375 C-47.63129272 52.09679565 -47.63129272 52.09679565 -48.58618164 52.8371582 C-51.480046 54.69448381 -54.0207479 55.0078125 -57.41015625 55.0078125 C-59.78515625 54.3203125 -59.78515625 54.3203125 -61.41015625 53.0078125 C-62.01171875 50.92578125 -62.01171875 50.92578125 -62.41015625 49.0078125 C-60.32800322 47.23557531 -58.24448706 45.46498524 -56.16015625 43.6953125 C-55.57363281 43.19580078 -54.98710938 42.69628906 -54.3828125 42.18164062 C-53.80917969 41.69501953 -53.23554687 41.20839844 -52.64453125 40.70703125 C-51.85900879 40.03933716 -51.85900879 40.03933716 -51.05761719 39.3581543 C-49.41015625 38.0078125 -49.41015625 38.0078125 -47.24609375 36.69921875 C-45.16463348 35.11127729 -45.16463348 35.11127729 -44.86425781 32.37231445 C-44.84331055 31.34066162 -44.82236328 30.30900879 -44.80078125 29.24609375 C-44.75244141 27.56870117 -44.75244141 27.56870117 -44.703125 25.85742188 C-44.68185547 24.10655273 -44.68185547 24.10655273 -44.66015625 22.3203125 C-44.61568359 20.55204102 -44.61568359 20.55204102 -44.5703125 18.74804688 C-44.49955037 15.83500567 -44.45259749 12.92140394 -44.41015625 10.0078125 C-38.47015625 10.0078125 -32.53015625 10.0078125 -26.41015625 10.0078125 C-25.91515625 14.4628125 -25.91515625 14.4628125 -25.41015625 19.0078125 C-24.58773437 18.3065625 -23.7653125 17.6053125 -22.91796875 16.8828125 C-20.00150206 14.39977979 -17.07072417 11.93413114 -14.13769531 9.47070312 C-12.57739461 8.14943097 -11.03556212 6.8064246 -9.49609375 5.4609375 C-8.64273438 4.73390625 -7.789375 4.006875 -6.91015625 3.2578125 C-6.15734375 2.60296875 -5.40453125 1.948125 -4.62890625 1.2734375 C-2.41015625 0.0078125 -2.41015625 0.0078125 0 0 Z " fill="#000000" transform="translate(64.41015625,5.9921875)"/>
</svg>
