<svg xmlns="http://www.w3.org/2000/svg" width="100" height="100" xml:space="preserve" enable-background="new 0 0 100 100" version="1.1" fill="#000000">
 <g>
  <title>Layer 1</title>
  <g stroke="null" id="svg_1">
   <path stroke="null" id="svg_2" d="m2.13969,22.92115l0.01771,0c0,1.72737 1.48137,3.1273 3.31391,3.14534l0,0.00277l89.05793,0l0,-0.00139c1.84139,-0.00832 3.33309,-1.41242 3.33309,-3.14672l0.01475,0l0,-14.51128l0,0c-0.00295,-1.73569 -1.50055,-3.14256 -3.34784,-3.14256l0,0l-89.05793,0l0,0c0,0 0,0 0,0c-1.84876,0 -3.34784,1.41103 -3.34784,3.14811c0,0.05411 0.01475,0.10545 0.01771,0.15956l-0.00148,14.34617z"/>
   <path stroke="null" id="svg_3" d="m94.52775,39.88543l0,0l-89.05645,0l0,0c0,0 0,0 0,0c-1.84876,0 -3.34784,1.41103 -3.34784,3.14811c0,0.05411 0.01475,0.10545 0.01771,0.15956l0,14.34617l0.01771,0c0,1.72737 1.48137,3.1273 3.31391,3.14534l0,0.00277l89.05793,0l0,-0.00139c1.84139,-0.00832 3.33309,-1.41242 3.33309,-3.14672l0.01475,0l0,-14.51128l0,0c-0.0059,-1.73569 -1.5035,-3.14256 -3.35079,-3.14256z"/>
   <path stroke="null" id="svg_4" d="m94.52775,74.50216l0,0l-89.05645,0l0,0c0,0 0,0 0,0c-1.84876,0 -3.34784,1.41103 -3.34784,3.14811c0,0.05411 0.01475,0.10545 0.01771,0.15956l0,14.34617l0.01771,0c0,1.72737 1.48137,3.1273 3.31391,3.14534l0,0.00277l89.05793,0l0,-0.00139c1.84139,-0.00832 3.33309,-1.41381 3.33309,-3.14811l0.01475,0l0,-14.51128l0,0c-0.0059,-1.73431 -1.5035,-3.14117 -3.35079,-3.14117z"/>
  </g>
 </g>
</svg>