<svg width="67" height="67" xmlns="http://www.w3.org/2000/svg" xml:space="preserve" version="1.1">

 <g>
  <title>Layer 1</title>
  <g stroke="null" opacity="0.43" id="surface1">
   <path stroke="null" fill="#000000" id="svg_1" d="m34.66667,8c-1.8963,0 -3.55556,1.91333 -3.55556,4.1l0,1.91333c-7.58519,1.91333 -13.03704,9.29333 -13.03704,18.58667l0,12.3l-4.74074,6.28667l0,3.28l42.66667,0l0,-3.28l-4.74074,-6.28667l0,-12.3c0,-9.29333 -5.45185,-16.67333 -13.03704,-18.58667l0,-1.91333c0,-2.18667 -1.65926,-4.1 -3.55556,-4.1zm-4.74074,49.2c0,3.00667 2.13333,5.46667 4.74074,5.46667c2.60741,0 4.74074,-2.46 4.74074,-5.46667l-9.48148,0z"/>
  </g>
  <rect x="35.66667" y="51.66667" id="svg_2" fill="none" height="24" width="24" class="st0"/>
 </g>
</svg>