<?xml version="1.0"?>
<svg width="612.08" height="612.08" xmlns="http://www.w3.org/2000/svg" xmlns:svg="http://www.w3.org/2000/svg" enable-background="new 0 0 612.08 612.08" version="1.1" xml:space="preserve">
 <g class="layer">
  <title>Layer 1</title>
  <g id="svg_1" opacity="0.55">
   <path d="m237.93,0c-131.37,0 -237.9,106.52 -237.9,237.89c0,131.38 106.52,237.9 237.9,237.9c50.52,0 97.37,-15.76 135.88,-42.6l0.03,-0.03l176.43,176.43c3.27,3.28 8.48,3.36 11.84,0l47.55,-47.55c3.27,-3.27 3.1,-8.7 -0.03,-11.83l-176.41,-176.41c26.84,-38.54 42.6,-85.39 42.6,-135.91c0,-131.37 -106.52,-237.89 -237.89,-237.89zm0,419.81c-100.48,0 -181.92,-81.44 -181.92,-181.92s81.44,-181.92 181.92,-181.92s181.92,81.45 181.92,181.92s-81.45,181.92 -181.92,181.92z" fill="#7f7f7f" id="svg_2"/>
  </g>
  <g id="svg_3"/>
  <g id="svg_4"/>
  <g id="svg_5"/>
  <g id="svg_6"/>
  <g id="svg_7"/>
  <g id="svg_8"/>
  <g id="svg_9"/>
  <g id="svg_10"/>
  <g id="svg_11"/>
  <g id="svg_12"/>
  <g id="svg_13"/>
  <g id="svg_14"/>
  <g id="svg_15"/>
  <g id="svg_16"/>
  <g id="svg_17"/>
 </g>
</svg>