<?xml version="1.0" encoding="UTF-8" standalone="no" ?>
<!DOCTYPE svg PUBLIC "-//W3C//DTD SVG 1.1//EN" "http://www.w3.org/Graphics/SVG/1.1/DTD/svg11.dtd">
<svg xmlns="http://www.w3.org/2000/svg" xmlns:xlink="http://www.w3.org/1999/xlink" version="1.1" width="128" height="128" viewBox="0 0 128 128" xml:space="preserve">
<desc>Created with Fabric.js 3.6.6</desc>
<defs>
</defs>
<g transform="matrix(-25 0 0 25 -355.62 -314.52)" id="SVGRepo_iconCarrier"  >
<path style="stroke: none; stroke-width: 1; stroke-dasharray: none; stroke-linecap: butt; stroke-dashoffset: 0; stroke-linejoin: miter; stroke-miterlimit: 4; fill: rgb(0,0,0); fill-rule: nonzero; opacity: 1;"  transform=" translate(-15.72, -16)" d="M 25.994 16.144 l -12.225 -12.225 l -11.769 0.045 l 0.018 10.831 l 12.662 12.662 c 0.794 0.795 2.072 0.806 2.854 0.024 l 8.484 -8.485 c 0.781 -0.781 0.771 -2.058 -0.024 -2.852 z M 7.081 10.952 c -1.104 0 -2 -0.896 -2 -2 s 0.896 -2 2 -2 c 1.105 0 2 0.896 2 2 s -0.895 2 -2 2 z M 28.846 16.168 l -12.225 -12.225 l -1.471 0.005 l 12.27 12.207 c 0.795 0.795 0.805 2.071 0.023 2.853 l -8.484 8.485 c -0.207 0.207 -0.451 0.354 -0.709 0.451 c 0.721 0.277 1.561 0.135 2.135 -0.438 l 8.486 -8.485 c 0.781 -0.782 0.77 -2.059 -0.025 -2.853 z" stroke-linecap="round" />
</g>
<g transform="matrix(-25 0 0 25 -355.62 -314.52)" id="SVGRepo_iconCarrier"  >
<path style="stroke: none; stroke-width: 1; stroke-dasharray: none; stroke-linecap: butt; stroke-dashoffset: 0; stroke-linejoin: miter; stroke-miterlimit: 4; fill: rgb(0,0,0); fill-rule: nonzero; opacity: 1;"  transform=" translate(-15.72, -16)" d="M 25.994 16.144 l -12.225 -12.225 l -11.769 0.045 l 0.018 10.831 l 12.662 12.662 c 0.794 0.795 2.072 0.806 2.854 0.024 l 8.484 -8.485 c 0.781 -0.781 0.771 -2.058 -0.024 -2.852 z M 7.081 10.952 c -1.104 0 -2 -0.896 -2 -2 s 0.896 -2 2 -2 c 1.105 0 2 0.896 2 2 s -0.895 2 -2 2 z M 28.846 16.168 l -12.225 -12.225 l -1.471 0.005 l 12.27 12.207 c 0.795 0.795 0.805 2.071 0.023 2.853 l -8.484 8.485 c -0.207 0.207 -0.451 0.354 -0.709 0.451 c 0.721 0.277 1.561 0.135 2.135 -0.438 l 8.486 -8.485 c 0.781 -0.782 0.77 -2.059 -0.025 -2.853 z" stroke-linecap="round" />
</g>
<g transform="matrix(1 0 0 1 0 0)"  >
<g style=""   >
</g>
</g>
<g transform="matrix(-4.25 0 0 4.91 63.5 64.84)"  >
<path style="stroke: none; stroke-width: 1; stroke-dasharray: none; stroke-linecap: butt; stroke-dashoffset: 0; stroke-linejoin: miter; stroke-miterlimit: 4; fill: rgb(0,0,0); fill-rule: nonzero; opacity: 1;"  transform=" translate(-15.72, -16)" d="M 25.994 16.144 l -12.225 -12.225 l -11.769 0.045 l 0.018 10.831 l 12.662 12.662 c 0.794 0.795 2.072 0.806 2.854 0.024 l 8.484 -8.485 c 0.781 -0.781 0.771 -2.058 -0.024 -2.852 z M 7.081 10.952 c -1.104 0 -2 -0.896 -2 -2 s 0.896 -2 2 -2 c 1.105 0 2 0.896 2 2 s -0.895 2 -2 2 z M 28.846 16.168 l -12.225 -12.225 l -1.471 0.005 l 12.27 12.207 c 0.795 0.795 0.805 2.071 0.023 2.853 l -8.484 8.485 c -0.207 0.207 -0.451 0.354 -0.709 0.451 c 0.721 0.277 1.561 0.135 2.135 -0.438 l 8.486 -8.485 c 0.781 -0.782 0.77 -2.059 -0.025 -2.853 z" stroke-linecap="round" />
</g>
</svg>