<svg width="20" height="18" viewBox="0 0 20 18" fill="none" xmlns="http://www.w3.org/2000/svg">
<path d="M19.5032 8.32482L10.2624 0.153677C10.0308 -0.0512258 9.68699 -0.0512258 9.45536 0.153677L6.16072 3.06512V1.88595C6.16072 1.192 5.60874 0.628862 4.92864 0.628862C4.24854 0.628862 3.69651 1.19205 3.69651 1.88595V5.24367L0.21211 8.32482C-0.0441639 8.55235 -0.0724946 8.94962 0.150504 9.21234C0.374759 9.47381 0.762878 9.50148 1.02037 9.27519L9.85706 1.46105L18.6925 9.27519C18.8108 9.37829 18.9525 9.42857 19.0966 9.42857C19.2703 9.42857 19.4391 9.35438 19.5611 9.21234C19.7878 8.94962 19.7582 8.55487 19.5032 8.32482Z" fill="white"/>
<path d="M10.6258 4.56997C10.4036 4.38172 10.1304 4.28571 9.85714 4.28571C9.58392 4.28571 9.3107 4.38045 9.08729 4.56997L3.01585 9.6804C2.73412 9.91728 2.57143 10.2701 2.57143 10.6454V16.7532C2.57143 17.4415 3.11543 18 3.7857 18H7.42856V11.7662H12.2857V18H15.9286C16.5977 18 17.1429 17.4415 17.1429 16.7533V10.6454C17.1429 10.2689 16.9789 9.91733 16.6972 9.68167L10.6258 4.56997Z" fill="white"/>
</svg>
