<svg width="20" height="18" viewBox="0 0 20 18" fill="none" xmlns="http://www.w3.org/2000/svg">
<path d="M9.07771 8.00174C9.07771 7.39205 9.22222 6.81567 9.47749 6.30388C9.36984 6.29856 9.82268 6.30026 2.86597 6.30026C1.30938 6.30026 0.0220914 7.56649 0.0141858 9.13771L0 11.9598C1.10139 11.9598 1.32297 11.9598 2.41018 11.9598L2.42429 9.1499C2.42503 9.0107 2.53814 8.89854 2.67719 8.89891C2.81624 8.89936 2.92869 9.0121 2.92869 9.15115V11.9598H6.3072C7.03533 10.7958 8.28729 10.065 9.64994 10.0088C9.28007 9.41315 9.07771 8.7258 9.07771 8.00174Z" fill="white"/>
<path d="M6.09751 0C4.71824 0 3.6 1.11816 3.6 2.49751C3.6 3.87057 4.71166 4.99501 6.09751 4.99501C7.46702 4.99501 8.59509 3.88564 8.59509 2.49751C8.59509 1.11809 7.47685 0 6.09751 0Z" fill="white"/>
<path d="M19.3376 17.4252L19.3173 14.5374C19.3095 12.9791 18.0361 11.7 16.4656 11.7C14.6522 11.7 12.0477 11.7 10.148 11.7C8.58341 11.7 7.22209 12.9728 7.21419 14.5374L7.2 17.4253H9.61018L9.62429 14.5496C9.62488 14.4297 9.72233 14.3331 9.8421 14.3334C9.96186 14.3337 10.0587 14.4309 10.0587 14.5507V17.4254C11.4715 17.4254 15.1185 17.4254 16.4417 17.4254V14.5507C16.4417 14.4224 16.5455 14.3184 16.6738 14.318C16.802 14.3177 16.9065 14.4212 16.9071 14.5495L16.9212 17.4253L19.3376 17.4252Z" fill="white"/>
<path d="M12.4267 10.4534C13.8221 10.4534 14.9534 9.32214 14.9534 7.92669C14.9534 6.53124 13.8221 5.4 12.4267 5.4C11.0312 5.4 9.9 6.53124 9.9 7.92669C9.9 9.32214 11.0312 10.4534 12.4267 10.4534Z" fill="white"/>
</svg>
