<svg width="60" height="70" viewBox="0 0 60 70" fill="none" xmlns="http://www.w3.org/2000/svg">
<path fill-rule="evenodd" clip-rule="evenodd" d="M0 0H60V70H0V0Z" fill="#4C8DEB"/>
<path d="M39.1921 34H20.8079C20.3617 34 20 34.4477 20 35C20 35.5523 20.3617 36 20.8079 36H39.1921C39.6383 36 40 35.5523 40 35C40 34.4477 39.6383 34 39.1921 34Z" fill="#4C8DEB"/>
<path d="M35.8053 29H20.6653C20.2979 29 20 29.4477 20 30C20 30.5523 20.2979 31 20.6653 31H35.8053C36.1727 31 36.4706 30.5523 36.4706 30C36.4706 29.4477 36.1727 29 35.8053 29Z" fill="#4C8DEB"/>
<path d="M32.4184 40H20.5228C20.2341 40 20 40.4477 20 41C20 41.5523 20.2341 42 20.5228 42H32.4184C32.7071 42 32.9412 41.5523 32.9412 41C32.9412 40.4477 32.7071 40 32.4184 40Z" fill="#4C8DEB"/>
<path fill-rule="evenodd" clip-rule="evenodd" d="M30 57C42.1503 57 52 47.1503 52 35C52 22.8497 42.1503 13 30 13C17.8497 13 8 22.8497 8 35C8 47.1503 17.8497 57 30 57Z" fill="white" fill-opacity="0.5"/>
</svg>
