<svg width="62" height="12" viewBox="0 0 62 12" fill="none" xmlns="http://www.w3.org/2000/svg">
<path d="M7.714 8.536H2.674L1.61 11H0.14L4.578 1.032H5.796L10.248 11H8.778L7.714 8.536ZM7.224 7.388L5.194 2.642L3.164 7.388H7.224ZM17.867 0.696V11H16.467V9.796C16.2616 10.216 15.9536 10.538 15.543 10.762C15.1416 10.986 14.6703 11.098 14.129 11.098C13.5223 11.098 12.981 10.944 12.505 10.636C12.029 10.328 11.6556 9.89867 11.385 9.348C11.1236 8.788 10.993 8.144 10.993 7.416C10.993 6.688 11.1236 6.04867 11.385 5.498C11.6463 4.94733 12.0103 4.52267 12.477 4.224C12.953 3.92533 13.5036 3.776 14.129 3.776C14.661 3.776 15.1276 3.888 15.529 4.112C15.9396 4.336 16.2476 4.65333 16.453 5.064V0.696H17.867ZM14.451 9.978C15.095 9.978 15.5896 9.75867 15.935 9.32C16.2896 8.872 16.467 8.24667 16.467 7.444C16.467 6.64133 16.2896 6.02067 15.935 5.582C15.5896 5.134 15.0996 4.91 14.465 4.91C13.821 4.91 13.317 5.12933 12.953 5.568C12.5983 6.00667 12.421 6.62267 12.421 7.416C12.421 8.21867 12.5983 8.84867 12.953 9.306C13.317 9.754 13.8163 9.978 14.451 9.978ZM26.3982 0.696V11H24.9982V9.796C24.7929 10.216 24.4849 10.538 24.0742 10.762C23.6729 10.986 23.2015 11.098 22.6602 11.098C22.0535 11.098 21.5122 10.944 21.0362 10.636C20.5602 10.328 20.1869 9.89867 19.9162 9.348C19.6549 8.788 19.5242 8.144 19.5242 7.416C19.5242 6.688 19.6549 6.04867 19.9162 5.498C20.1775 4.94733 20.5415 4.52267 21.0082 4.224C21.4842 3.92533 22.0349 3.776 22.6602 3.776C23.1922 3.776 23.6589 3.888 24.0602 4.112C24.4709 4.336 24.7789 4.65333 24.9842 5.064V0.696H26.3982ZM22.9822 9.978C23.6262 9.978 24.1209 9.75867 24.4662 9.32C24.8209 8.872 24.9982 8.24667 24.9982 7.444C24.9982 6.64133 24.8209 6.02067 24.4662 5.582C24.1209 5.134 23.6309 4.91 22.9962 4.91C22.3522 4.91 21.8482 5.12933 21.4842 5.568C21.1295 6.00667 20.9522 6.62267 20.9522 7.416C20.9522 8.21867 21.1295 8.84867 21.4842 9.306C21.8482 9.754 22.3475 9.978 22.9822 9.978ZM40.5099 1.032V11H39.4039L33.6919 3.468V11H32.3339V1.032H33.4259L39.1519 8.578V1.032H40.5099ZM48.7279 7.5H43.6879C43.7345 9.152 44.4859 9.978 45.9419 9.978C46.7539 9.978 47.4959 9.712 48.1679 9.18L48.6019 10.188C48.2845 10.468 47.8785 10.692 47.3839 10.86C46.8985 11.0187 46.4085 11.098 45.9139 11.098C44.7845 11.098 43.8979 10.776 43.2539 10.132C42.6099 9.47867 42.2879 8.58733 42.2879 7.458C42.2879 6.73933 42.4279 6.1 42.7079 5.54C42.9972 4.98 43.3985 4.546 43.9119 4.238C44.4252 3.93 45.0085 3.776 45.6619 3.776C46.6139 3.776 47.3605 4.084 47.9019 4.7C48.4525 5.316 48.7279 6.17 48.7279 7.262V7.5ZM45.6899 4.826C45.1579 4.826 44.7239 4.98467 44.3879 5.302C44.0519 5.61933 43.8372 6.072 43.7439 6.66H47.4819C47.4259 6.06267 47.2439 5.61 46.9359 5.302C46.6279 4.98467 46.2125 4.826 45.6899 4.826ZM61.2028 3.944L58.5147 11H57.2268L55.3368 5.89L53.4608 11H52.1727L49.4847 3.944H50.9547L52.8728 9.334L54.8188 3.944H55.9387L57.8848 9.334L59.8168 3.944H61.2028Z" fill="white"/>
</svg>
