<svg width="1366" height="879" viewBox="0 0 1366 879" fill="none" xmlns="http://www.w3.org/2000/svg">
<path d="M87.332 130.252C84.588 130.252 82.544 129.561 81.2 128.18C79.8747 126.799 79.212 124.755 79.212 122.048V110.26H82.124V121.992C82.124 123.896 82.5347 125.333 83.356 126.304C84.196 127.256 85.5213 127.732 87.332 127.732C89.0493 127.732 90.3467 127.256 91.224 126.304C92.1013 125.333 92.54 123.896 92.54 121.992V110.26H95.396V122.048C95.396 124.755 94.7147 126.799 93.352 128.18C91.9893 129.561 89.9827 130.252 87.332 130.252ZM104.506 130.252C103.33 130.252 102.247 130.103 101.258 129.804C100.269 129.505 99.4472 129.085 98.7938 128.544L99.6618 126.612C100.353 127.135 101.118 127.527 101.958 127.788C102.798 128.049 103.657 128.18 104.534 128.18C105.561 128.18 106.335 128.003 106.858 127.648C107.381 127.275 107.642 126.771 107.642 126.136C107.642 125.651 107.474 125.259 107.138 124.96C106.821 124.661 106.289 124.437 105.542 124.288L102.854 123.756C101.659 123.495 100.754 123.047 100.138 122.412C99.5218 121.777 99.2138 120.965 99.2138 119.976C99.2138 119.136 99.4378 118.389 99.8858 117.736C100.353 117.083 101.006 116.569 101.846 116.196C102.705 115.823 103.703 115.636 104.842 115.636C105.887 115.636 106.858 115.785 107.754 116.084C108.65 116.383 109.397 116.812 109.994 117.372L109.098 119.248C108.519 118.763 107.866 118.389 107.138 118.128C106.41 117.848 105.673 117.708 104.926 117.708C103.881 117.708 103.106 117.904 102.602 118.296C102.098 118.688 101.846 119.201 101.846 119.836C101.846 120.321 101.995 120.723 102.294 121.04C102.611 121.339 103.106 121.572 103.778 121.74L106.466 122.272C107.735 122.533 108.687 122.963 109.322 123.56C109.957 124.157 110.274 124.96 110.274 125.968C110.274 126.845 110.031 127.611 109.546 128.264C109.061 128.917 108.389 129.412 107.53 129.748C106.671 130.084 105.663 130.252 104.506 130.252ZM120.131 130.252C117.854 130.252 116.062 129.608 114.755 128.32C113.448 127.032 112.795 125.249 112.795 122.972C112.795 121.497 113.075 120.209 113.635 119.108C114.214 118.007 115.007 117.157 116.015 116.56C117.042 115.944 118.227 115.636 119.571 115.636C120.896 115.636 122.007 115.916 122.903 116.476C123.799 117.036 124.48 117.829 124.947 118.856C125.414 119.864 125.647 121.059 125.647 122.44V123.336H115.007V121.712H123.715L123.239 122.076C123.239 120.676 122.922 119.593 122.287 118.828C121.671 118.044 120.775 117.652 119.599 117.652C118.292 117.652 117.284 118.109 116.575 119.024C115.866 119.92 115.511 121.161 115.511 122.748V123.028C115.511 124.689 115.912 125.94 116.715 126.78C117.536 127.62 118.694 128.04 120.187 128.04C121.008 128.04 121.774 127.928 122.483 127.704C123.211 127.461 123.902 127.069 124.555 126.528L125.479 128.46C124.826 129.039 124.032 129.487 123.099 129.804C122.166 130.103 121.176 130.252 120.131 130.252ZM128.836 130V119.388C128.836 118.809 128.818 118.231 128.78 117.652C128.762 117.055 128.724 116.467 128.668 115.888H131.412L131.72 119.528H131.272C131.459 118.651 131.776 117.923 132.224 117.344C132.672 116.765 133.214 116.336 133.848 116.056C134.502 115.776 135.183 115.636 135.892 115.636C136.191 115.636 136.443 115.655 136.648 115.692C136.854 115.711 137.059 115.748 137.264 115.804L137.236 118.324C136.919 118.193 136.639 118.119 136.396 118.1C136.172 118.063 135.892 118.044 135.556 118.044C134.735 118.044 134.035 118.231 133.456 118.604C132.878 118.959 132.439 119.444 132.14 120.06C131.842 120.676 131.692 121.339 131.692 122.048V130H128.836ZM144.154 130.252C142.978 130.252 141.896 130.103 140.906 129.804C139.917 129.505 139.096 129.085 138.442 128.544L139.31 126.612C140.001 127.135 140.766 127.527 141.606 127.788C142.446 128.049 143.305 128.18 144.182 128.18C145.209 128.18 145.984 128.003 146.506 127.648C147.029 127.275 147.29 126.771 147.29 126.136C147.29 125.651 147.122 125.259 146.786 124.96C146.469 124.661 145.937 124.437 145.19 124.288L142.502 123.756C141.308 123.495 140.402 123.047 139.786 122.412C139.17 121.777 138.862 120.965 138.862 119.976C138.862 119.136 139.086 118.389 139.534 117.736C140.001 117.083 140.654 116.569 141.494 116.196C142.353 115.823 143.352 115.636 144.49 115.636C145.536 115.636 146.506 115.785 147.402 116.084C148.298 116.383 149.045 116.812 149.642 117.372L148.746 119.248C148.168 118.763 147.514 118.389 146.786 118.128C146.058 117.848 145.321 117.708 144.574 117.708C143.529 117.708 142.754 117.904 142.25 118.296C141.746 118.688 141.494 119.201 141.494 119.836C141.494 120.321 141.644 120.723 141.942 121.04C142.26 121.339 142.754 121.572 143.426 121.74L146.114 122.272C147.384 122.533 148.336 122.963 148.97 123.56C149.605 124.157 149.922 124.96 149.922 125.968C149.922 126.845 149.68 127.611 149.194 128.264C148.709 128.917 148.037 129.412 147.178 129.748C146.32 130.084 145.312 130.252 144.154 130.252Z" fill="#405169"/>
<g filter="url(#filter0_d_700_234)">
<path fill-rule="evenodd" clip-rule="evenodd" d="M1231 105C1231 102.239 1233.24 100 1236 100H1341C1343.76 100 1346 102.239 1346 105V135C1346 137.761 1343.76 140 1341 140H1236C1233.24 140 1231 137.761 1231 135V105Z" fill="url(#paint0_linear_700_234)"/>
</g>
<path d="M1258.9 119.461H1253V113.68C1253 113.305 1252.68 113 1252.3 113C1251.92 113 1251.6 113.305 1251.6 113.68V119.461H1245.7C1245.31 119.461 1245 119.766 1245 120.141C1245 120.517 1245.31 120.821 1245.7 120.821H1251.6V126.602C1251.6 126.978 1251.92 127.283 1252.3 127.283C1252.68 127.283 1253 126.978 1253 126.602V120.821H1258.9C1259.29 120.821 1259.6 120.517 1259.6 120.141C1259.6 119.766 1259.29 119.461 1258.9 119.461Z" fill="white"/>
<path d="M1276.71 122.536H1271.67L1270.61 125H1269.14L1273.58 115.032H1274.8L1279.25 125H1277.78L1276.71 122.536ZM1276.22 121.388L1274.19 116.642L1272.16 121.388H1276.22ZM1286.87 114.696V125H1285.47V123.796C1285.26 124.216 1284.95 124.538 1284.54 124.762C1284.14 124.986 1283.67 125.098 1283.13 125.098C1282.52 125.098 1281.98 124.944 1281.5 124.636C1281.03 124.328 1280.66 123.899 1280.38 123.348C1280.12 122.788 1279.99 122.144 1279.99 121.416C1279.99 120.688 1280.12 120.049 1280.38 119.498C1280.65 118.947 1281.01 118.523 1281.48 118.224C1281.95 117.925 1282.5 117.776 1283.13 117.776C1283.66 117.776 1284.13 117.888 1284.53 118.112C1284.94 118.336 1285.25 118.653 1285.45 119.064V114.696H1286.87ZM1283.45 123.978C1284.09 123.978 1284.59 123.759 1284.93 123.32C1285.29 122.872 1285.47 122.247 1285.47 121.444C1285.47 120.641 1285.29 120.021 1284.93 119.582C1284.59 119.134 1284.1 118.91 1283.46 118.91C1282.82 118.91 1282.32 119.129 1281.95 119.568C1281.6 120.007 1281.42 120.623 1281.42 121.416C1281.42 122.219 1281.6 122.849 1281.95 123.306C1282.32 123.754 1282.82 123.978 1283.45 123.978ZM1295.4 114.696V125H1294V123.796C1293.79 124.216 1293.48 124.538 1293.07 124.762C1292.67 124.986 1292.2 125.098 1291.66 125.098C1291.05 125.098 1290.51 124.944 1290.04 124.636C1289.56 124.328 1289.19 123.899 1288.92 123.348C1288.65 122.788 1288.52 122.144 1288.52 121.416C1288.52 120.688 1288.65 120.049 1288.92 119.498C1289.18 118.947 1289.54 118.523 1290.01 118.224C1290.48 117.925 1291.03 117.776 1291.66 117.776C1292.19 117.776 1292.66 117.888 1293.06 118.112C1293.47 118.336 1293.78 118.653 1293.98 119.064V114.696H1295.4ZM1291.98 123.978C1292.63 123.978 1293.12 123.759 1293.47 123.32C1293.82 122.872 1294 122.247 1294 121.444C1294 120.641 1293.82 120.021 1293.47 119.582C1293.12 119.134 1292.63 118.91 1292 118.91C1291.35 118.91 1290.85 119.129 1290.48 119.568C1290.13 120.007 1289.95 120.623 1289.95 121.416C1289.95 122.219 1290.13 122.849 1290.48 123.306C1290.85 123.754 1291.35 123.978 1291.98 123.978ZM1309.51 115.032V125H1308.4L1302.69 117.468V125H1301.33V115.032H1302.43L1308.15 122.578V115.032H1309.51ZM1317.73 121.5H1312.69C1312.73 123.152 1313.49 123.978 1314.94 123.978C1315.75 123.978 1316.5 123.712 1317.17 123.18L1317.6 124.188C1317.28 124.468 1316.88 124.692 1316.38 124.86C1315.9 125.019 1315.41 125.098 1314.91 125.098C1313.78 125.098 1312.9 124.776 1312.25 124.132C1311.61 123.479 1311.29 122.587 1311.29 121.458C1311.29 120.739 1311.43 120.1 1311.71 119.54C1312 118.98 1312.4 118.546 1312.91 118.238C1313.43 117.93 1314.01 117.776 1314.66 117.776C1315.61 117.776 1316.36 118.084 1316.9 118.7C1317.45 119.316 1317.73 120.17 1317.73 121.262V121.5ZM1314.69 118.826C1314.16 118.826 1313.72 118.985 1313.39 119.302C1313.05 119.619 1312.84 120.072 1312.74 120.66H1316.48C1316.43 120.063 1316.24 119.61 1315.94 119.302C1315.63 118.985 1315.21 118.826 1314.69 118.826ZM1330.2 117.944L1327.51 125H1326.23L1324.34 119.89L1322.46 125H1321.17L1318.48 117.944H1319.95L1321.87 123.334L1323.82 117.944H1324.94L1326.88 123.334L1328.82 117.944H1330.2Z" fill="white"/>
<path fill-rule="evenodd" clip-rule="evenodd" d="M0 70H60V879H0V70Z" fill="url(#paint1_linear_700_234)"/>
<path d="M39.5032 104.325L30.2624 96.1537C30.0308 95.9488 29.687 95.9488 29.4554 96.1537L26.1607 99.0651V97.8859C26.1607 97.192 25.6087 96.6289 24.9286 96.6289C24.2485 96.6289 23.6965 97.192 23.6965 97.8859V101.244L20.2121 104.325C19.9558 104.552 19.9275 104.95 20.1505 105.212C20.3748 105.474 20.7629 105.501 21.0204 105.275L29.8571 97.461L38.6925 105.275C38.8108 105.378 38.9525 105.429 39.0966 105.429C39.2703 105.429 39.4391 105.354 39.5611 105.212C39.7878 104.95 39.7582 104.555 39.5032 104.325Z" fill="white"/>
<path d="M30.6258 100.57C30.4036 100.382 30.1304 100.286 29.8571 100.286C29.5839 100.286 29.3107 100.38 29.0873 100.57L23.0159 105.68C22.7341 105.917 22.5714 106.27 22.5714 106.645V112.753C22.5714 113.441 23.1154 114 23.7857 114H27.4286V107.766H32.2857V114H35.9286C36.5977 114 37.1429 113.441 37.1429 112.753V106.645C37.1429 106.269 36.9789 105.917 36.6972 105.682L30.6258 100.57Z" fill="white"/>
<path fill-rule="evenodd" clip-rule="evenodd" d="M8 227C8 224.239 10.2386 222 13 222H48C50.7614 222 53 224.239 53 227V262C53 264.761 50.7614 267 48 267H13C10.2386 267 8 264.761 8 262V227Z" fill="#2350BC" fill-opacity="0.3"/>
<path d="M29.0777 174.002C29.0777 173.392 29.2222 172.816 29.4775 172.304C29.3698 172.299 29.8227 172.3 22.866 172.3C21.3094 172.3 20.0221 173.566 20.0142 175.138L20 177.96C21.1014 177.96 21.323 177.96 22.4102 177.96L22.4243 175.15C22.425 175.011 22.5381 174.899 22.6772 174.899C22.8162 174.899 22.9287 175.012 22.9287 175.151V177.96H26.3072C27.0353 176.796 28.2873 176.065 29.6499 176.009C29.2801 175.413 29.0777 174.726 29.0777 174.002Z" fill="white"/>
<path d="M26.0975 166C24.7182 166 23.6 167.118 23.6 168.498C23.6 169.871 24.7117 170.995 26.0975 170.995C27.467 170.995 28.5951 169.886 28.5951 168.498C28.5951 167.118 27.4769 166 26.0975 166Z" fill="white"/>
<path d="M39.3376 183.425L39.3173 180.537C39.3095 178.979 38.0361 177.7 36.4656 177.7C34.6522 177.7 32.0477 177.7 30.148 177.7C28.5834 177.7 27.2221 178.973 27.2142 180.537L27.2 183.425H29.6102L29.6243 180.55C29.6249 180.43 29.7223 180.333 29.8421 180.333C29.9619 180.334 30.0587 180.431 30.0587 180.551V183.425C31.4715 183.425 35.1185 183.425 36.4417 183.425V180.551C36.4417 180.422 36.5455 180.318 36.6738 180.318C36.802 180.318 36.9065 180.421 36.9071 180.549L36.9212 183.425L39.3376 183.425Z" fill="white"/>
<path d="M32.4267 176.453C33.8221 176.453 34.9534 175.322 34.9534 173.927C34.9534 172.531 33.8221 171.4 32.4267 171.4C31.0312 171.4 29.9 172.531 29.9 173.927C29.9 175.322 31.0312 176.453 32.4267 176.453Z" fill="white"/>
<path fill-rule="evenodd" clip-rule="evenodd" d="M22 236V250.985C22 252.641 23.3419 253.982 24.997 253.982C26.6521 253.982 27.9942 252.641 27.9942 250.985V247.988H32.4898V236H22ZM23.4986 237.499H27.9942V238.997H23.4986V237.499ZM23.4986 247.988H26.4956V246.49H23.4986V247.988ZM29.4926 244.991H23.4986V243.493H29.4926V244.991ZM23.4986 241.994H30.9912V240.496H23.4986V241.994Z" fill="white"/>
<path d="M29.4926 249.487V250.985C29.4926 252.137 29.0536 253.186 28.3379 253.982H34.7376C36.3927 253.982 37.7346 252.641 37.7346 250.985V249.487H29.4926Z" fill="white"/>
<path fill-rule="evenodd" clip-rule="evenodd" d="M27.5218 323.775L20.5935 316.836C20.3417 316.583 20.3417 316.171 20.5935 315.918L30.4964 306C29.4279 306 27.9356 306.619 27.1801 307.376L19.5666 315.001C18.8111 315.758 18.8111 316.996 19.5666 317.753L25.2374 323.432C25.8531 324.049 26.7879 324.163 27.5218 323.775ZM38.9145 306H34.3817C33.3132 306 31.8209 306.619 31.0654 307.376L23.4519 315.001C22.6964 315.758 22.6964 316.996 23.4519 317.753L29.1227 323.432C29.8782 324.189 31.1145 324.189 31.8701 323.432L39.4834 315.807C40.239 315.05 40.8571 313.556 40.8571 312.486V307.946C40.8571 306.876 39.983 306 38.9145 306ZM36.3243 312.486C35.2514 312.486 34.3817 311.615 34.3817 310.54C34.3817 309.465 35.2514 308.594 36.3243 308.594C37.3972 308.594 38.2669 309.465 38.2669 310.54C38.2669 311.615 37.3972 312.486 36.3243 312.486Z" fill="white"/>
<g filter="url(#filter1_d_700_234)">
<path fill-rule="evenodd" clip-rule="evenodd" d="M77 156H1346V216H77V156Z" fill="white"/>
</g>
<g filter="url(#filter2_d_700_234)">
<path fill-rule="evenodd" clip-rule="evenodd" d="M1296 174C1296 171.239 1298.24 169 1301 169H1325.58C1328.34 169 1330.58 171.239 1330.58 174V198C1330.58 200.761 1328.34 203 1325.58 203H1301C1298.24 203 1296 200.761 1296 198V174Z" fill="url(#paint2_linear_700_234)"/>
</g>
<path d="M1318.86 180H1307.38C1306.62 180 1306 180.579 1306 181.286C1306 181.993 1306.62 182.571 1307.38 182.571H1318.86C1319.61 182.571 1320.23 181.993 1320.23 181.286C1320.23 180.579 1319.61 180 1318.86 180Z" fill="white"/>
<path d="M1318.86 184.714H1307.38C1306.62 184.714 1306 185.293 1306 186C1306 186.707 1306.62 187.286 1307.38 187.286H1318.86C1319.61 187.286 1320.23 186.707 1320.23 186C1320.23 185.293 1319.61 184.714 1318.86 184.714Z" fill="white"/>
<path d="M1318.86 189.429H1307.38C1306.62 189.429 1306 190.007 1306 190.714C1306 191.421 1306.62 192 1307.38 192H1318.86C1319.61 192 1320.23 191.421 1320.23 190.714C1320.23 190.007 1319.61 189.429 1318.86 189.429Z" fill="white"/>
<path d="M1274.08 189.286C1273.03 189.286 1272.19 190.119 1272.19 191.143C1272.19 192.167 1273.03 193 1274.08 193C1275.12 193 1275.96 192.167 1275.96 191.143C1275.96 190.119 1275.12 189.286 1274.08 189.286Z" fill="#A0BCE4"/>
<path d="M1278.8 189.286C1277.76 189.286 1276.91 190.119 1276.91 191.143C1276.91 192.167 1277.76 193 1278.8 193C1279.84 193 1280.69 192.167 1280.69 191.143C1280.69 190.119 1279.84 189.286 1278.8 189.286Z" fill="#A0BCE4"/>
<path d="M1283.52 189.286C1282.48 189.286 1281.63 190.119 1281.63 191.143C1281.63 192.167 1282.48 193 1283.52 193C1284.56 193 1285.41 192.167 1285.41 191.143C1285.41 190.119 1284.56 189.286 1283.52 189.286Z" fill="#A0BCE4"/>
<path d="M1274.08 184.643C1273.03 184.643 1272.19 185.476 1272.19 186.5C1272.19 187.524 1273.03 188.357 1274.08 188.357C1275.12 188.357 1275.96 187.524 1275.96 186.5C1275.96 185.476 1275.12 184.643 1274.08 184.643Z" fill="#A0BCE4"/>
<path d="M1278.8 184.643C1277.76 184.643 1276.91 185.476 1276.91 186.5C1276.91 187.524 1277.76 188.357 1278.8 188.357C1279.84 188.357 1280.69 187.524 1280.69 186.5C1280.69 185.476 1279.84 184.643 1278.8 184.643Z" fill="#A0BCE4"/>
<path d="M1283.52 184.643C1282.48 184.643 1281.63 185.476 1281.63 186.5C1281.63 187.524 1282.48 188.357 1283.52 188.357C1284.56 188.357 1285.41 187.524 1285.41 186.5C1285.41 185.476 1284.56 184.643 1283.52 184.643Z" fill="#A0BCE4"/>
<path d="M1274.08 180C1273.03 180 1272.19 180.833 1272.19 181.857C1272.19 182.881 1273.03 183.714 1274.08 183.714C1275.12 183.714 1275.96 182.881 1275.96 181.857C1275.96 180.833 1275.12 180 1274.08 180Z" fill="#A0BCE4"/>
<path d="M1278.8 180C1277.76 180 1276.91 180.833 1276.91 181.857C1276.91 182.881 1277.76 183.714 1278.8 183.714C1279.84 183.714 1280.69 182.881 1280.69 181.857C1280.69 180.833 1279.84 180 1278.8 180Z" fill="#A0BCE4"/>
<path d="M1283.52 183.714C1284.56 183.714 1285.41 182.881 1285.41 181.857C1285.41 180.833 1284.56 180 1283.52 180C1282.48 180 1281.63 180.833 1281.63 181.857C1281.63 182.881 1282.48 183.714 1283.52 183.714Z" fill="#A0BCE4"/>
<path fill-rule="evenodd" clip-rule="evenodd" d="M188.423 37.7793L192.133 41.4898C192.309 41.6658 192.309 41.9569 192.133 42.133C192.045 42.2244 191.926 42.2684 191.811 42.2684C191.696 42.2684 191.578 42.221 191.49 42.133L187.779 38.4225C186.635 39.4179 185.142 40.0205 183.51 40.0205C179.922 40.0205 177 37.0988 177 33.5102C177 29.9216 179.918 27 183.51 27C187.099 27 190.02 29.9183 190.02 33.5102C190.02 35.142 189.418 36.635 188.423 37.7793ZM183.507 27.9141C180.423 27.9141 177.911 30.4227 177.911 33.5102C177.911 36.5978 180.423 39.1098 183.507 39.1098C186.594 39.1098 189.103 36.5944 189.103 33.5102C189.103 30.4261 186.594 27.9141 183.507 27.9141Z" fill="#2565C0" fill-opacity="0.437104"/>
<path d="M207.396 40.112C205.837 40.112 204.596 39.692 203.672 38.852L204.106 37.97C204.601 38.39 205.105 38.6887 205.618 38.866C206.131 39.0433 206.729 39.132 207.41 39.132C208.213 39.132 208.829 38.978 209.258 38.67C209.697 38.3527 209.916 37.9093 209.916 37.34C209.916 37.004 209.809 36.7333 209.594 36.528C209.389 36.3133 209.113 36.1453 208.768 36.024C208.432 35.9027 207.979 35.7767 207.41 35.646C206.645 35.478 206.015 35.296 205.52 35.1C205.025 34.904 204.624 34.624 204.316 34.26C204.008 33.8867 203.854 33.4013 203.854 32.804C203.854 32.2347 204.003 31.7353 204.302 31.306C204.601 30.8673 205.021 30.5267 205.562 30.284C206.113 30.0413 206.752 29.92 207.48 29.92C208.171 29.92 208.815 30.0273 209.412 30.242C210.009 30.4567 210.513 30.7693 210.924 31.18L210.476 32.062C210.009 31.6607 209.533 31.3667 209.048 31.18C208.572 30.9933 208.049 30.9 207.48 30.9C206.705 30.9 206.099 31.068 205.66 31.404C205.221 31.7307 205.002 32.1833 205.002 32.762C205.002 33.266 205.193 33.644 205.576 33.896C205.959 34.148 206.547 34.3673 207.34 34.554C208.199 34.7593 208.871 34.9507 209.356 35.128C209.851 35.296 210.261 35.5573 210.588 35.912C210.915 36.2573 211.078 36.7193 211.078 37.298C211.078 37.858 210.929 38.3527 210.63 38.782C210.331 39.202 209.902 39.5287 209.342 39.762C208.791 39.9953 208.143 40.112 207.396 40.112ZM218.709 36.444H213.543C213.552 37.34 213.757 38.0167 214.159 38.474C214.569 38.9313 215.162 39.16 215.937 39.16C216.758 39.16 217.514 38.8847 218.205 38.334L218.583 39.16C218.275 39.4493 217.878 39.678 217.393 39.846C216.917 40.014 216.427 40.098 215.923 40.098C214.821 40.098 213.958 39.776 213.333 39.132C212.707 38.4787 212.395 37.5873 212.395 36.458C212.395 35.7393 212.535 35.1047 212.815 34.554C213.095 33.994 213.487 33.56 213.991 33.252C214.495 32.944 215.069 32.79 215.713 32.79C216.646 32.79 217.379 33.098 217.911 33.714C218.443 34.3207 218.709 35.1607 218.709 36.234V36.444ZM215.727 33.672C215.139 33.672 214.658 33.8493 214.285 34.204C213.921 34.5587 213.687 35.058 213.585 35.702H217.687C217.631 35.0393 217.435 34.5353 217.099 34.19C216.772 33.8447 216.315 33.672 215.727 33.672ZM226.632 32.958V40H225.512V38.726C225.307 39.1647 224.994 39.5053 224.574 39.748C224.163 39.9813 223.683 40.098 223.132 40.098C222.507 40.098 221.956 39.9487 221.48 39.65C221.013 39.3513 220.649 38.9313 220.388 38.39C220.136 37.8393 220.01 37.2 220.01 36.472C220.01 35.744 220.141 35.1047 220.402 34.554C220.663 33.994 221.027 33.56 221.494 33.252C221.97 32.944 222.516 32.79 223.132 32.79C223.683 32.79 224.163 32.9113 224.574 33.154C224.985 33.3967 225.297 33.7373 225.512 34.176V32.958H226.632ZM223.356 39.16C224.047 39.16 224.579 38.9267 224.952 38.46C225.325 37.984 225.512 37.312 225.512 36.444C225.512 35.576 225.325 34.9087 224.952 34.442C224.579 33.9753 224.047 33.742 223.356 33.742C222.665 33.742 222.124 33.9847 221.732 34.47C221.349 34.946 221.158 35.6133 221.158 36.472C221.158 37.3307 221.349 37.9933 221.732 38.46C222.115 38.9267 222.656 39.16 223.356 39.16ZM232.1 32.79C232.334 32.79 232.548 32.818 232.744 32.874L232.716 33.91C232.502 33.8353 232.254 33.798 231.974 33.798C231.293 33.798 230.784 34.0127 230.448 34.442C230.122 34.862 229.958 35.3753 229.958 35.982V40H228.824V34.932C228.824 34.204 228.787 33.546 228.712 32.958H229.79L229.902 34.26C230.08 33.784 230.364 33.42 230.756 33.168C231.148 32.916 231.596 32.79 232.1 32.79ZM236.714 40.098C236.033 40.098 235.435 39.9487 234.922 39.65C234.418 39.3513 234.026 38.9313 233.746 38.39C233.475 37.8393 233.34 37.2 233.34 36.472C233.34 35.744 233.48 35.1047 233.76 34.554C234.04 33.994 234.437 33.56 234.95 33.252C235.473 32.944 236.079 32.79 236.77 32.79C237.246 32.79 237.703 32.874 238.142 33.042C238.59 33.2007 238.959 33.4247 239.248 33.714L238.87 34.554C238.515 34.274 238.17 34.0687 237.834 33.938C237.507 33.8073 237.171 33.742 236.826 33.742C236.107 33.742 235.543 33.9847 235.132 34.47C234.721 34.946 234.516 35.6133 234.516 36.472C234.516 37.3213 234.717 37.984 235.118 38.46C235.529 38.9267 236.098 39.16 236.826 39.16C237.171 39.16 237.507 39.0947 237.834 38.964C238.17 38.8333 238.515 38.628 238.87 38.348L239.248 39.188C238.949 39.468 238.571 39.692 238.114 39.86C237.666 40.0187 237.199 40.098 236.714 40.098ZM244.206 32.79C245.895 32.79 246.74 33.7187 246.74 35.576V40H245.606V35.632C245.606 34.9787 245.475 34.5027 245.214 34.204C244.952 33.896 244.542 33.742 243.982 33.742C243.328 33.742 242.806 33.9427 242.414 34.344C242.022 34.7453 241.826 35.2867 241.826 35.968V40H240.692V29.696H241.826V34.106C242.05 33.6767 242.367 33.35 242.778 33.126C243.198 32.902 243.674 32.79 244.206 32.79Z" fill="#A0BCE4"/>
<g filter="url(#filter3_d_700_234)">
<path fill-rule="evenodd" clip-rule="evenodd" d="M5 0H1371V70H5V0Z" fill="white"/>
</g>
<path fill-rule="evenodd" clip-rule="evenodd" d="M1322 59C1335.25 59 1346 48.2548 1346 35C1346 21.7452 1335.25 11 1322 11C1308.75 11 1298 21.7452 1298 35C1298 48.2548 1308.75 59 1322 59Z" fill="#E8EBF8"/>
<g filter="url(#filter4_d_700_234)">
<path fill-rule="evenodd" clip-rule="evenodd" d="M77 241H1346V860H77V241Z" fill="white"/>
</g>
<defs>
<filter id="filter0_d_700_234" x="1219" y="90" width="139" height="64" filterUnits="userSpaceOnUse" color-interpolation-filters="sRGB">
<feFlood flood-opacity="0" result="BackgroundImageFix"/>
<feColorMatrix in="SourceAlpha" type="matrix" values="0 0 0 0 0 0 0 0 0 0 0 0 0 0 0 0 0 0 127 0" result="hardAlpha"/>
<feOffset dy="2"/>
<feGaussianBlur stdDeviation="6"/>
<feColorMatrix type="matrix" values="0 0 0 0 0.299079 0 0 0 0 0.554519 0 0 0 0 0.923416 0 0 0 0.186481 0"/>
<feBlend mode="normal" in2="BackgroundImageFix" result="effect1_dropShadow_700_234"/>
<feBlend mode="normal" in="SourceGraphic" in2="effect1_dropShadow_700_234" result="shape"/>
</filter>
<filter id="filter1_d_700_234" x="67" y="148" width="1289" height="80" filterUnits="userSpaceOnUse" color-interpolation-filters="sRGB">
<feFlood flood-opacity="0" result="BackgroundImageFix"/>
<feColorMatrix in="SourceAlpha" type="matrix" values="0 0 0 0 0 0 0 0 0 0 0 0 0 0 0 0 0 0 127 0" result="hardAlpha"/>
<feOffset dy="2"/>
<feGaussianBlur stdDeviation="5"/>
<feColorMatrix type="matrix" values="0 0 0 0 0.299079 0 0 0 0 0.554519 0 0 0 0 0.923416 0 0 0 0.10077 0"/>
<feBlend mode="normal" in2="BackgroundImageFix" result="effect1_dropShadow_700_234"/>
<feBlend mode="normal" in="SourceGraphic" in2="effect1_dropShadow_700_234" result="shape"/>
</filter>
<filter id="filter2_d_700_234" x="1284" y="159" width="58.5762" height="58" filterUnits="userSpaceOnUse" color-interpolation-filters="sRGB">
<feFlood flood-opacity="0" result="BackgroundImageFix"/>
<feColorMatrix in="SourceAlpha" type="matrix" values="0 0 0 0 0 0 0 0 0 0 0 0 0 0 0 0 0 0 127 0" result="hardAlpha"/>
<feOffset dy="2"/>
<feGaussianBlur stdDeviation="6"/>
<feColorMatrix type="matrix" values="0 0 0 0 0.299079 0 0 0 0 0.554519 0 0 0 0 0.923416 0 0 0 0.186481 0"/>
<feBlend mode="normal" in2="BackgroundImageFix" result="effect1_dropShadow_700_234"/>
<feBlend mode="normal" in="SourceGraphic" in2="effect1_dropShadow_700_234" result="shape"/>
</filter>
<filter id="filter3_d_700_234" x="-5" y="-8" width="1386" height="90" filterUnits="userSpaceOnUse" color-interpolation-filters="sRGB">
<feFlood flood-opacity="0" result="BackgroundImageFix"/>
<feColorMatrix in="SourceAlpha" type="matrix" values="0 0 0 0 0 0 0 0 0 0 0 0 0 0 0 0 0 0 127 0" result="hardAlpha"/>
<feOffset dy="2"/>
<feGaussianBlur stdDeviation="5"/>
<feColorMatrix type="matrix" values="0 0 0 0 0.299079 0 0 0 0 0.554519 0 0 0 0 0.923416 0 0 0 0.10077 0"/>
<feBlend mode="normal" in2="BackgroundImageFix" result="effect1_dropShadow_700_234"/>
<feBlend mode="normal" in="SourceGraphic" in2="effect1_dropShadow_700_234" result="shape"/>
</filter>
<filter id="filter4_d_700_234" x="67" y="233" width="1289" height="639" filterUnits="userSpaceOnUse" color-interpolation-filters="sRGB">
<feFlood flood-opacity="0" result="BackgroundImageFix"/>
<feColorMatrix in="SourceAlpha" type="matrix" values="0 0 0 0 0 0 0 0 0 0 0 0 0 0 0 0 0 0 127 0" result="hardAlpha"/>
<feOffset dy="2"/>
<feGaussianBlur stdDeviation="5"/>
<feColorMatrix type="matrix" values="0 0 0 0 0.299079 0 0 0 0 0.554519 0 0 0 0 0.923416 0 0 0 0.10077 0"/>
<feBlend mode="normal" in2="BackgroundImageFix" result="effect1_dropShadow_700_234"/>
<feBlend mode="normal" in="SourceGraphic" in2="effect1_dropShadow_700_234" result="shape"/>
</filter>
<linearGradient id="paint0_linear_700_234" x1="1231" y1="140" x2="1346" y2="140" gradientUnits="userSpaceOnUse">
<stop stop-color="#4C8DEB"/>
<stop offset="1" stop-color="#4C60EB"/>
</linearGradient>
<linearGradient id="paint1_linear_700_234" x1="0" y1="70" x2="0" y2="879" gradientUnits="userSpaceOnUse">
<stop stop-color="#4C8DEB"/>
<stop offset="1" stop-color="#4C60EB"/>
</linearGradient>
<linearGradient id="paint2_linear_700_234" x1="1296" y1="202.76" x2="1330.09" y2="202.76" gradientUnits="userSpaceOnUse">
<stop stop-color="#4C8DEB"/>
<stop offset="1" stop-color="#4C74EC"/>
</linearGradient>
</defs>
</svg>
