<svg width="1366" height="82" viewBox="0 0 1366 82" fill="none" xmlns="http://www.w3.org/2000/svg">
<path fill-rule="evenodd" clip-rule="evenodd" d="M188.423 37.7793L192.133 41.4898C192.309 41.6658 192.309 41.9569 192.133 42.133C192.045 42.2244 191.926 42.2684 191.811 42.2684C191.696 42.2684 191.578 42.221 191.49 42.133L187.779 38.4225C186.635 39.4179 185.142 40.0205 183.51 40.0205C179.922 40.0205 177 37.0988 177 33.5102C177 29.9216 179.918 27 183.51 27C187.099 27 190.02 29.9183 190.02 33.5102C190.02 35.142 189.418 36.635 188.423 37.7793ZM183.507 27.9141C180.423 27.9141 177.911 30.4227 177.911 33.5102C177.911 36.5978 180.423 39.1098 183.507 39.1098C186.594 39.1098 189.103 36.5944 189.103 33.5102C189.103 30.4261 186.594 27.9141 183.507 27.9141Z" fill="#2565C0" fill-opacity="0.437104"/>
<path d="M207.396 40.112C205.837 40.112 204.596 39.692 203.672 38.852L204.106 37.97C204.601 38.39 205.105 38.6887 205.618 38.866C206.131 39.0433 206.729 39.132 207.41 39.132C208.213 39.132 208.829 38.978 209.258 38.67C209.697 38.3527 209.916 37.9093 209.916 37.34C209.916 37.004 209.809 36.7333 209.594 36.528C209.389 36.3133 209.113 36.1453 208.768 36.024C208.432 35.9027 207.979 35.7767 207.41 35.646C206.645 35.478 206.015 35.296 205.52 35.1C205.025 34.904 204.624 34.624 204.316 34.26C204.008 33.8867 203.854 33.4013 203.854 32.804C203.854 32.2347 204.003 31.7353 204.302 31.306C204.601 30.8673 205.021 30.5267 205.562 30.284C206.113 30.0413 206.752 29.92 207.48 29.92C208.171 29.92 208.815 30.0273 209.412 30.242C210.009 30.4567 210.513 30.7693 210.924 31.18L210.476 32.062C210.009 31.6607 209.533 31.3667 209.048 31.18C208.572 30.9933 208.049 30.9 207.48 30.9C206.705 30.9 206.099 31.068 205.66 31.404C205.221 31.7307 205.002 32.1833 205.002 32.762C205.002 33.266 205.193 33.644 205.576 33.896C205.959 34.148 206.547 34.3673 207.34 34.554C208.199 34.7593 208.871 34.9507 209.356 35.128C209.851 35.296 210.261 35.5573 210.588 35.912C210.915 36.2573 211.078 36.7193 211.078 37.298C211.078 37.858 210.929 38.3527 210.63 38.782C210.331 39.202 209.902 39.5287 209.342 39.762C208.791 39.9953 208.143 40.112 207.396 40.112ZM218.709 36.444H213.543C213.552 37.34 213.757 38.0167 214.159 38.474C214.569 38.9313 215.162 39.16 215.937 39.16C216.758 39.16 217.514 38.8847 218.205 38.334L218.583 39.16C218.275 39.4493 217.878 39.678 217.393 39.846C216.917 40.014 216.427 40.098 215.923 40.098C214.821 40.098 213.958 39.776 213.333 39.132C212.707 38.4787 212.395 37.5873 212.395 36.458C212.395 35.7393 212.535 35.1047 212.815 34.554C213.095 33.994 213.487 33.56 213.991 33.252C214.495 32.944 215.069 32.79 215.713 32.79C216.646 32.79 217.379 33.098 217.911 33.714C218.443 34.3207 218.709 35.1607 218.709 36.234V36.444ZM215.727 33.672C215.139 33.672 214.658 33.8493 214.285 34.204C213.921 34.5587 213.687 35.058 213.585 35.702H217.687C217.631 35.0393 217.435 34.5353 217.099 34.19C216.772 33.8447 216.315 33.672 215.727 33.672ZM226.632 32.958V40H225.512V38.726C225.307 39.1647 224.994 39.5053 224.574 39.748C224.163 39.9813 223.683 40.098 223.132 40.098C222.507 40.098 221.956 39.9487 221.48 39.65C221.013 39.3513 220.649 38.9313 220.388 38.39C220.136 37.8393 220.01 37.2 220.01 36.472C220.01 35.744 220.141 35.1047 220.402 34.554C220.663 33.994 221.027 33.56 221.494 33.252C221.97 32.944 222.516 32.79 223.132 32.79C223.683 32.79 224.163 32.9113 224.574 33.154C224.985 33.3967 225.297 33.7373 225.512 34.176V32.958H226.632ZM223.356 39.16C224.047 39.16 224.579 38.9267 224.952 38.46C225.325 37.984 225.512 37.312 225.512 36.444C225.512 35.576 225.325 34.9087 224.952 34.442C224.579 33.9753 224.047 33.742 223.356 33.742C222.665 33.742 222.124 33.9847 221.732 34.47C221.349 34.946 221.158 35.6133 221.158 36.472C221.158 37.3307 221.349 37.9933 221.732 38.46C222.115 38.9267 222.656 39.16 223.356 39.16ZM232.1 32.79C232.334 32.79 232.548 32.818 232.744 32.874L232.716 33.91C232.502 33.8353 232.254 33.798 231.974 33.798C231.293 33.798 230.784 34.0127 230.448 34.442C230.122 34.862 229.958 35.3753 229.958 35.982V40H228.824V34.932C228.824 34.204 228.787 33.546 228.712 32.958H229.79L229.902 34.26C230.08 33.784 230.364 33.42 230.756 33.168C231.148 32.916 231.596 32.79 232.1 32.79ZM236.714 40.098C236.033 40.098 235.435 39.9487 234.922 39.65C234.418 39.3513 234.026 38.9313 233.746 38.39C233.475 37.8393 233.34 37.2 233.34 36.472C233.34 35.744 233.48 35.1047 233.76 34.554C234.04 33.994 234.437 33.56 234.95 33.252C235.473 32.944 236.079 32.79 236.77 32.79C237.246 32.79 237.703 32.874 238.142 33.042C238.59 33.2007 238.959 33.4247 239.248 33.714L238.87 34.554C238.515 34.274 238.17 34.0687 237.834 33.938C237.507 33.8073 237.171 33.742 236.826 33.742C236.107 33.742 235.543 33.9847 235.132 34.47C234.721 34.946 234.516 35.6133 234.516 36.472C234.516 37.3213 234.717 37.984 235.118 38.46C235.529 38.9267 236.098 39.16 236.826 39.16C237.171 39.16 237.507 39.0947 237.834 38.964C238.17 38.8333 238.515 38.628 238.87 38.348L239.248 39.188C238.949 39.468 238.571 39.692 238.114 39.86C237.666 40.0187 237.199 40.098 236.714 40.098ZM244.206 32.79C245.895 32.79 246.74 33.7187 246.74 35.576V40H245.606V35.632C245.606 34.9787 245.475 34.5027 245.214 34.204C244.952 33.896 244.542 33.742 243.982 33.742C243.328 33.742 242.806 33.9427 242.414 34.344C242.022 34.7453 241.826 35.2867 241.826 35.968V40H240.692V29.696H241.826V34.106C242.05 33.6767 242.367 33.35 242.778 33.126C243.198 32.902 243.674 32.79 244.206 32.79Z" fill="#A0BCE4"/>
<g filter="url(#filter0_d_700_252)">
<path fill-rule="evenodd" clip-rule="evenodd" d="M5 0H1371V70H5V0Z" fill="white"/>
</g>
<path fill-rule="evenodd" clip-rule="evenodd" d="M1322 59C1335.25 59 1346 48.2548 1346 35C1346 21.7452 1335.25 11 1322 11C1308.75 11 1298 21.7452 1298 35C1298 48.2548 1308.75 59 1322 59Z" fill="#E8EBF8"/>
<defs>
<filter id="filter0_d_700_252" x="-5" y="-8" width="1386" height="90" filterUnits="userSpaceOnUse" color-interpolation-filters="sRGB">
<feFlood flood-opacity="0" result="BackgroundImageFix"/>
<feColorMatrix in="SourceAlpha" type="matrix" values="0 0 0 0 0 0 0 0 0 0 0 0 0 0 0 0 0 0 127 0" result="hardAlpha"/>
<feOffset dy="2"/>
<feGaussianBlur stdDeviation="5"/>
<feColorMatrix type="matrix" values="0 0 0 0 0.299079 0 0 0 0 0.554519 0 0 0 0 0.923416 0 0 0 0.10077 0"/>
<feBlend mode="normal" in2="BackgroundImageFix" result="effect1_dropShadow_700_252"/>
<feBlend mode="normal" in="SourceGraphic" in2="effect1_dropShadow_700_252" result="shape"/>
</filter>
</defs>
</svg>
