<svg width="71" height="21" viewBox="0 0 71 21" fill="none" xmlns="http://www.w3.org/2000/svg">
<path d="M8.332 20.252C5.588 20.252 3.544 19.5613 2.2 18.18C0.874667 16.7987 0.212 14.7547 0.212 12.048V0.259999H3.124V11.992C3.124 13.896 3.53467 15.3333 4.356 16.304C5.196 17.256 6.52133 17.732 8.332 17.732C10.0493 17.732 11.3467 17.256 12.224 16.304C13.1013 15.3333 13.54 13.896 13.54 11.992V0.259999H16.396V12.048C16.396 14.7547 15.7147 16.7987 14.352 18.18C12.9893 19.5613 10.9827 20.252 8.332 20.252ZM25.5058 20.252C24.3298 20.252 23.2472 20.1027 22.2578 19.804C21.2685 19.5053 20.4472 19.0853 19.7938 18.544L20.6618 16.612C21.3525 17.1347 22.1178 17.5267 22.9578 17.788C23.7978 18.0493 24.6565 18.18 25.5338 18.18C26.5605 18.18 27.3352 18.0027 27.8578 17.648C28.3805 17.2747 28.6418 16.7707 28.6418 16.136C28.6418 15.6507 28.4738 15.2587 28.1378 14.96C27.8205 14.6613 27.2885 14.4373 26.5418 14.288L23.8538 13.756C22.6592 13.4947 21.7538 13.0467 21.1378 12.412C20.5218 11.7773 20.2138 10.9653 20.2138 9.976C20.2138 9.136 20.4378 8.38933 20.8858 7.736C21.3525 7.08267 22.0058 6.56933 22.8458 6.196C23.7045 5.82267 24.7032 5.636 25.8418 5.636C26.8872 5.636 27.8578 5.78533 28.7538 6.084C29.6498 6.38267 30.3965 6.812 30.9938 7.372L30.0978 9.248C29.5192 8.76267 28.8658 8.38933 28.1378 8.128C27.4098 7.848 26.6725 7.708 25.9258 7.708C24.8805 7.708 24.1058 7.904 23.6018 8.296C23.0978 8.688 22.8458 9.20133 22.8458 9.836C22.8458 10.3213 22.9952 10.7227 23.2938 11.04C23.6112 11.3387 24.1058 11.572 24.7778 11.74L27.4658 12.272C28.7352 12.5333 29.6872 12.9627 30.3218 13.56C30.9565 14.1573 31.2738 14.96 31.2738 15.968C31.2738 16.8453 31.0312 17.6107 30.5458 18.264C30.0605 18.9173 29.3885 19.412 28.5298 19.748C27.6712 20.084 26.6632 20.252 25.5058 20.252ZM41.1312 20.252C38.8538 20.252 37.0618 19.608 35.7552 18.32C34.4485 17.032 33.7952 15.2493 33.7952 12.972C33.7952 11.4973 34.0752 10.2093 34.6352 9.108C35.2138 8.00667 36.0072 7.15733 37.0152 6.56C38.0418 5.944 39.2272 5.636 40.5712 5.636C41.8965 5.636 43.0072 5.916 43.9032 6.476C44.7992 7.036 45.4805 7.82933 45.9472 8.856C46.4138 9.864 46.6472 11.0587 46.6472 12.44V13.336H36.0072V11.712H44.7152L44.2392 12.076C44.2392 10.676 43.9218 9.59333 43.2872 8.828C42.6712 8.044 41.7752 7.652 40.5992 7.652C39.2925 7.652 38.2845 8.10933 37.5752 9.024C36.8658 9.92 36.5112 11.1613 36.5112 12.748V13.028C36.5112 14.6893 36.9125 15.94 37.7152 16.78C38.5365 17.62 39.6938 18.04 41.1872 18.04C42.0085 18.04 42.7738 17.928 43.4832 17.704C44.2112 17.4613 44.9018 17.0693 45.5552 16.528L46.4792 18.46C45.8258 19.0387 45.0325 19.4867 44.0992 19.804C43.1658 20.1027 42.1765 20.252 41.1312 20.252ZM49.8363 20V9.388C49.8363 8.80933 49.8176 8.23067 49.7803 7.652C49.7616 7.05467 49.7243 6.46667 49.6683 5.888H52.4123L52.7203 9.528H52.2723C52.459 8.65067 52.7763 7.92267 53.2243 7.344C53.6723 6.76533 54.2136 6.336 54.8483 6.056C55.5016 5.776 56.183 5.636 56.8923 5.636C57.191 5.636 57.443 5.65467 57.6483 5.692C57.8536 5.71067 58.059 5.748 58.2643 5.804L58.2363 8.324C57.919 8.19333 57.639 8.11867 57.3963 8.1C57.1723 8.06267 56.8923 8.044 56.5563 8.044C55.735 8.044 55.035 8.23067 54.4563 8.604C53.8776 8.95867 53.439 9.444 53.1403 10.06C52.8416 10.676 52.6923 11.3387 52.6923 12.048V20H49.8363ZM65.1543 20.252C63.9783 20.252 62.8956 20.1027 61.9063 19.804C60.9169 19.5053 60.0956 19.0853 59.4423 18.544L60.3103 16.612C61.0009 17.1347 61.7663 17.5267 62.6063 17.788C63.4463 18.0493 64.3049 18.18 65.1823 18.18C66.2089 18.18 66.9836 18.0027 67.5063 17.648C68.0289 17.2747 68.2903 16.7707 68.2903 16.136C68.2903 15.6507 68.1223 15.2587 67.7863 14.96C67.4689 14.6613 66.9369 14.4373 66.1903 14.288L63.5023 13.756C62.3076 13.4947 61.4023 13.0467 60.7863 12.412C60.1703 11.7773 59.8623 10.9653 59.8623 9.976C59.8623 9.136 60.0863 8.38933 60.5343 7.736C61.0009 7.08267 61.6543 6.56933 62.4943 6.196C63.3529 5.82267 64.3516 5.636 65.4903 5.636C66.5356 5.636 67.5063 5.78533 68.4023 6.084C69.2983 6.38267 70.0449 6.812 70.6423 7.372L69.7463 9.248C69.1676 8.76267 68.5143 8.38933 67.7863 8.128C67.0583 7.848 66.3209 7.708 65.5743 7.708C64.5289 7.708 63.7543 7.904 63.2503 8.296C62.7463 8.688 62.4943 9.20133 62.4943 9.836C62.4943 10.3213 62.6436 10.7227 62.9423 11.04C63.2596 11.3387 63.7543 11.572 64.4263 11.74L67.1143 12.272C68.3836 12.5333 69.3356 12.9627 69.9703 13.56C70.6049 14.1573 70.9223 14.96 70.9223 15.968C70.9223 16.8453 70.6796 17.6107 70.1943 18.264C69.7089 18.9173 69.0369 19.412 68.1783 19.748C67.3196 20.084 66.3116 20.252 65.1543 20.252Z" fill="#405169"/>
</svg>
