<svg width="14" height="13" viewBox="0 0 14 13" fill="none" xmlns="http://www.w3.org/2000/svg">
<path d="M2.07514 9.28571C1.03381 9.28571 0.186523 10.1189 0.186523 11.1429C0.186523 12.1668 1.03381 13 2.07514 13C3.11648 13 3.96376 12.1668 3.96376 11.1429C3.96376 10.1189 3.11648 9.28571 2.07514 9.28571Z" fill="#A0BCE4"/>
<path d="M6.79669 9.28571C5.75535 9.28571 4.90807 10.1189 4.90807 11.1429C4.90807 12.1668 5.75535 13 6.79669 13C7.83803 13 8.68531 12.1668 8.68531 11.1429C8.68531 10.1189 7.83803 9.28571 6.79669 9.28571Z" fill="#A0BCE4"/>
<path d="M11.5182 9.28571C10.4769 9.28571 9.62962 10.1189 9.62962 11.1429C9.62962 12.1668 10.4769 13 11.5182 13C12.5596 13 13.4069 12.1668 13.4069 11.1429C13.4069 10.1189 12.5596 9.28571 11.5182 9.28571Z" fill="#A0BCE4"/>
<path d="M2.07514 4.64286C1.03381 4.64286 0.186523 5.47602 0.186523 6.5C0.186523 7.52398 1.03381 8.35714 2.07514 8.35714C3.11648 8.35714 3.96376 7.52398 3.96376 6.5C3.96376 5.47602 3.11648 4.64286 2.07514 4.64286Z" fill="#A0BCE4"/>
<path d="M6.79669 4.64286C5.75535 4.64286 4.90807 5.47602 4.90807 6.5C4.90807 7.52398 5.75535 8.35714 6.79669 8.35714C7.83803 8.35714 8.68531 7.52398 8.68531 6.5C8.68531 5.47602 7.83803 4.64286 6.79669 4.64286Z" fill="#A0BCE4"/>
<path d="M11.5182 4.64286C10.4769 4.64286 9.62962 5.47602 9.62962 6.5C9.62962 7.52398 10.4769 8.35714 11.5182 8.35714C12.5596 8.35714 13.4069 7.52398 13.4069 6.5C13.4069 5.47602 12.5596 4.64286 11.5182 4.64286Z" fill="#A0BCE4"/>
<path d="M2.07514 0C1.03381 0 0.186523 0.833161 0.186523 1.85714C0.186523 2.88112 1.03381 3.71429 2.07514 3.71429C3.11648 3.71429 3.96376 2.88112 3.96376 1.85714C3.96376 0.833161 3.11648 0 2.07514 0Z" fill="#A0BCE4"/>
<path d="M6.79669 0C5.75535 0 4.90807 0.833161 4.90807 1.85714C4.90807 2.88112 5.75535 3.71429 6.79669 3.71429C7.83803 3.71429 8.68531 2.88112 8.68531 1.85714C8.68531 0.833161 7.83803 0 6.79669 0Z" fill="#A0BCE4"/>
<path d="M11.5182 3.71429C12.5596 3.71429 13.4069 2.88112 13.4069 1.85714C13.4069 0.833161 12.5596 0 11.5182 0C10.4769 0 9.62962 0.833161 9.62962 1.85714C9.62962 2.88112 10.4769 3.71429 11.5182 3.71429Z" fill="#A0BCE4"/>
</svg>
