<svg width="16" height="18" viewBox="0 0 16 18" fill="none" xmlns="http://www.w3.org/2000/svg">
<path fill-rule="evenodd" clip-rule="evenodd" d="M0 0V14.9854C0 16.6405 1.34192 17.9824 2.997 17.9824C4.65208 17.9824 5.99422 16.6405 5.99422 14.9854V11.9882H10.4898V0H0ZM1.49861 1.49861H5.99422V2.997H1.49861V1.49861ZM1.49861 11.9882H4.49561V10.4898H1.49861V11.9882ZM7.49261 8.99122H1.49861V7.49261H7.49261V8.99122ZM1.49861 5.99422H8.99122V4.49561H1.49861V5.99422Z" fill="white"/>
<path d="M7.49261 13.4868V14.9854C7.49261 16.137 7.05363 17.1863 6.33793 17.9824H12.7376C14.3927 17.9824 15.7346 16.6405 15.7346 14.9854V13.4868H7.49261Z" fill="white"/>
</svg>
