<svg width="200" height="200" viewBox="0 0 200 200" fill="none" xmlns="http://www.w3.org/2000/svg">
<g clip-path="url(#clip0_4_3082)">
<path d="M200 0H0V200H200V0Z" fill="white"/>
<path d="M173.93 154.429C179.186 154.429 183.446 147.594 183.446 139.163C183.446 130.732 179.186 123.897 173.93 123.897C168.675 123.897 164.415 130.732 164.415 139.163C164.415 147.594 168.675 154.429 173.93 154.429Z" fill="#E2E2E2"/>
<path d="M173.93 121.185C179.186 121.185 183.446 114.35 183.446 105.919C183.446 97.4876 179.186 90.6528 173.93 90.6528C168.675 90.6528 164.415 97.4876 164.415 105.919C164.415 114.35 168.675 121.185 173.93 121.185Z" fill="#E2E2E2"/>
<path d="M173.93 187.673C179.186 187.673 183.446 180.838 183.446 172.407C183.446 163.976 179.186 157.141 173.93 157.141C168.675 157.141 164.415 163.976 164.415 172.407C164.415 180.838 168.675 187.673 173.93 187.673Z" fill="#E2E2E2"/>
<path d="M160.679 114.252C160.679 115.101 160.249 115.79 159.72 115.79H151.452C150.922 115.79 150.493 115.101 150.493 114.252V108.817C150.493 107.967 150.922 107.279 151.452 107.279H159.72C160.249 107.279 160.679 107.967 160.679 108.817V114.252Z" fill="#41E5B2"/>
<path d="M154.747 115.79L155.586 117.424L156.425 115.79H154.747Z" fill="#41E5B2"/>
<path d="M160.867 174.448H23.4866V174.786H160.867V174.448Z" fill="#D1D3D4"/>
<path d="M160.867 160.38H23.4866V160.718H160.867V160.38Z" fill="#D1D3D4"/>
<path d="M160.867 146.312H23.4866V146.649H160.867V146.312Z" fill="#D1D3D4"/>
<path d="M160.867 132.243H23.4866V132.581H160.867V132.243Z" fill="#D1D3D4"/>
<path d="M160.867 118.175H23.4866V118.512H160.867V118.175Z" fill="#D1D3D4"/>
<path d="M160.867 104.107H23.4866V104.444H160.867V104.107Z" fill="#D1D3D4"/>
<path d="M160.867 90.0381H23.4866V90.3756H160.867V90.0381Z" fill="#D1D3D4"/>
<g opacity="0.11">
<path d="M31.5696 153.025V187.816H155.591V122.194L135.991 129.665L106.392 104.921L77.0265 130.242L65.8585 93.2321L50.0065 103.088L31.5696 153.025Z" fill="#5D5D5D"/>
</g>
<path d="M31.8786 153.324L31.2817 152.76L49.7026 102.656L66.0476 92.5458L77.1142 129.494L106.401 104.31L135.894 129.094L155.514 121.828L155.669 122.911L135.8 130.27L135.686 130.174L106.405 105.567L76.8033 131.023L65.7 93.9517L50.1767 103.554L31.8786 153.324Z" fill="#E71B44"/>
<path d="M33.1136 153.025C33.1136 154.393 32.4222 155.502 31.5695 155.502C30.7167 155.502 30.0254 154.393 30.0254 153.025C30.0254 151.657 30.7168 150.548 31.5695 150.548C32.4223 150.548 33.1136 151.657 33.1136 153.025Z" fill="white"/>
<path d="M31.5696 156.058C30.5271 156.058 29.6792 154.697 29.6792 153.024C29.6792 151.352 30.5272 149.992 31.5696 149.992C32.6122 149.992 33.4601 151.352 33.4601 153.024C33.4601 154.697 32.6121 156.058 31.5696 156.058ZM31.5696 151.103C30.9093 151.103 30.3719 151.965 30.3719 153.024C30.3719 154.084 30.9093 154.947 31.5696 154.947C32.23 154.947 32.7674 154.084 32.7674 153.024C32.7674 151.965 32.2299 151.103 31.5696 151.103Z" fill="#132250"/>
<path d="M51.5506 103.088C51.5506 104.456 50.8591 105.565 50.006 105.565C49.1537 105.565 48.4619 104.456 48.4619 103.088C48.4619 101.72 49.1537 100.611 50.006 100.611C50.8592 100.61 51.5506 101.72 51.5506 103.088Z" fill="white"/>
<path d="M50.0062 106.121C48.9636 106.121 48.1157 104.76 48.1157 103.088C48.1157 101.415 48.9636 100.055 50.0062 100.055C51.0489 100.055 51.8971 101.415 51.8971 103.088C51.8971 104.76 51.0488 106.121 50.0062 106.121ZM50.0062 101.166C49.3458 101.166 48.8084 102.028 48.8084 103.088C48.8084 104.147 49.3458 105.009 50.0062 105.009C50.6669 105.009 51.2044 104.147 51.2044 103.088C51.2044 102.029 50.6668 101.166 50.0062 101.166Z" fill="#132250"/>
<path d="M78.5706 130.241C78.5706 131.609 77.8793 132.719 77.0265 132.719C76.1738 132.719 75.4824 131.609 75.4824 130.241C75.4824 128.873 76.1738 127.764 77.0265 127.764C77.8792 127.764 78.5706 128.873 78.5706 130.241Z" fill="white"/>
<path d="M77.0264 133.274C75.9839 133.274 75.136 131.914 75.136 130.241C75.136 128.569 75.9839 127.209 77.0264 127.209C78.069 127.209 78.9169 128.569 78.9169 130.241C78.9169 131.914 78.069 133.274 77.0264 133.274ZM77.0264 128.32C76.3661 128.32 75.8287 129.182 75.8287 130.241C75.8287 131.301 76.3661 132.163 77.0264 132.163C77.6868 132.163 78.2242 131.301 78.2242 130.241C78.2242 129.182 77.6868 128.32 77.0264 128.32Z" fill="#132250"/>
<path d="M107.936 104.921C107.936 106.289 107.245 107.399 106.392 107.399C105.539 107.399 104.848 106.289 104.848 104.921C104.848 103.553 105.539 102.444 106.392 102.444C107.245 102.444 107.936 103.553 107.936 104.921Z" fill="white"/>
<path d="M106.392 107.954C105.349 107.954 104.501 106.594 104.501 104.921C104.501 103.249 105.349 101.889 106.392 101.889C107.434 101.889 108.283 103.249 108.283 104.921C108.283 106.594 107.434 107.954 106.392 107.954ZM106.392 103C105.731 103 105.194 103.862 105.194 104.921C105.194 105.981 105.731 106.843 106.392 106.843C107.052 106.843 107.59 105.981 107.59 104.921C107.59 103.862 107.052 103 106.392 103Z" fill="#132250"/>
<path d="M137.535 129.665C137.535 131.033 136.844 132.142 135.991 132.142C135.139 132.142 134.447 131.033 134.447 129.665C134.447 128.297 135.139 127.188 135.991 127.188C136.844 127.188 137.535 128.297 137.535 129.665Z" fill="white"/>
<path d="M135.991 132.698C134.949 132.698 134.101 131.338 134.101 129.665C134.101 127.993 134.949 126.633 135.991 126.633C137.034 126.633 137.882 127.993 137.882 129.665C137.882 131.338 137.034 132.698 135.991 132.698ZM135.991 127.744C135.331 127.744 134.793 128.606 134.793 129.665C134.793 130.724 135.331 131.587 135.991 131.587C136.652 131.587 137.189 130.724 137.189 129.665C137.189 128.606 136.652 127.744 135.991 127.744Z" fill="#132250"/>
<path d="M157.125 122.193C157.125 123.562 156.433 124.671 155.58 124.671C154.727 124.671 154.036 123.562 154.036 122.193C154.036 120.825 154.727 119.716 155.58 119.716C156.433 119.716 157.125 120.825 157.125 122.193Z" fill="white"/>
<path d="M155.58 125.227C154.538 125.227 153.69 123.866 153.69 122.193C153.69 120.521 154.538 119.161 155.58 119.161C156.623 119.161 157.471 120.521 157.471 122.193C157.471 123.866 156.623 125.227 155.58 125.227ZM155.58 120.272C154.92 120.272 154.383 121.134 154.383 122.193C154.383 123.253 154.92 124.115 155.58 124.115C156.241 124.115 156.779 123.253 156.779 122.193C156.779 121.134 156.241 120.272 155.58 120.272Z" fill="#132250"/>
<g opacity="0.3">
<path d="M31.7525 174.17L44.2787 159.575L58.1777 137.599L77.0099 166.928L99.6235 147.263L123.191 152.577L155.892 166.928V187.248H31.6523L31.7525 174.17Z" fill="#58595B"/>
</g>
<path d="M31.8644 175.072L31.4573 174.174L44.1427 159.369L58.1801 137.274L76.9775 166.962L99.4647 147.136L123.224 152.17L156.067 166.863L155.881 167.932L123.062 153.25L99.5989 148.285L76.8592 168.333L76.6755 168.043L58.1792 138.831L44.5909 160.219L44.5704 160.243L31.8644 175.072Z" fill="#58595B"/>
<path d="M45.7276 160.023C45.7276 161.391 45.0379 162.501 44.1869 162.501C43.3364 162.501 42.6462 161.391 42.6462 160.023C42.6462 158.655 43.3364 157.545 44.1869 157.545C45.0379 157.545 45.7276 158.655 45.7276 160.023Z" fill="white"/>
<path d="M44.1868 163.055C43.1465 163.055 42.3003 161.695 42.3003 160.023C42.3003 158.351 43.1465 156.991 44.1868 156.991C45.2272 156.991 46.0734 158.351 46.0734 160.023C46.0734 161.695 45.2273 163.055 44.1868 163.055ZM44.1868 158.1C43.5281 158.1 42.9921 158.962 42.9921 160.022C42.9921 161.083 43.528 161.945 44.1868 161.945C44.8457 161.945 45.3816 161.083 45.3816 160.022C45.3816 158.962 44.8457 158.1 44.1868 158.1Z" fill="#58595B"/>
<path d="M33.2008 174.617C33.2008 175.985 32.5111 177.094 31.6601 177.094C30.8095 177.094 30.1199 175.985 30.1199 174.617C30.1199 173.249 30.8095 172.14 31.6601 172.14C32.5112 172.14 33.2008 173.249 33.2008 174.617Z" fill="white"/>
<path d="M31.6603 177.649C30.6202 177.649 29.7742 176.289 29.7742 174.617C29.7742 172.945 30.6202 171.585 31.6603 171.585C32.7006 171.585 33.5468 172.945 33.5468 174.617C33.5468 176.289 32.7006 177.649 31.6603 177.649ZM31.6603 172.695C31.0017 172.695 30.4659 173.557 30.4659 174.617C30.4659 175.677 31.0016 176.539 31.6603 176.539C32.3191 176.539 32.8551 175.677 32.8551 174.617C32.8551 173.557 32.3191 172.695 31.6603 172.695Z" fill="#58595B"/>
<path d="M59.6265 138.047C59.6265 139.415 58.9369 140.524 58.0859 140.524C57.2353 140.524 56.5457 139.415 56.5457 138.047C56.5457 136.678 57.2353 135.569 58.0859 135.569C58.9369 135.569 59.6265 136.678 59.6265 138.047Z" fill="white"/>
<path d="M58.0861 141.079C57.046 141.079 56.2 139.719 56.2 138.047C56.2 136.374 57.046 135.014 58.0861 135.014C59.1264 135.014 59.9726 136.374 59.9726 138.047C59.9726 139.719 59.1264 141.079 58.0861 141.079ZM58.0861 136.124C57.4275 136.124 56.8917 136.986 56.8917 138.046C56.8917 139.106 57.4274 139.969 58.0861 139.969C58.7448 139.969 59.2808 139.106 59.2808 138.046C59.2807 136.986 58.7448 136.124 58.0861 136.124Z" fill="#58595B"/>
<path d="M78.4585 167.375C78.4585 168.744 77.7689 169.853 76.9179 169.853C76.0673 169.853 75.3772 168.744 75.3772 167.375C75.3772 166.007 76.0673 164.898 76.9179 164.898C77.7689 164.898 78.4585 166.007 78.4585 167.375Z" fill="white"/>
<path d="M76.9181 170.408C75.8777 170.408 75.0315 169.047 75.0315 167.375C75.0315 165.703 75.8777 164.343 76.9181 164.343C77.9584 164.343 78.8046 165.703 78.8046 167.375C78.8046 169.047 77.9584 170.408 76.9181 170.408ZM76.9181 165.453C76.2593 165.453 75.7233 166.315 75.7233 167.375C75.7233 168.435 76.2592 169.298 76.9181 169.298C77.5768 169.298 78.1128 168.435 78.1128 167.375C78.1127 166.315 77.5768 165.453 76.9181 165.453Z" fill="#58595B"/>
<path d="M101.072 147.95C101.072 149.318 100.382 150.428 99.5312 150.428C98.6811 150.428 97.9915 149.318 97.9915 147.95C97.9915 146.582 98.6811 145.473 99.5312 145.473C100.382 145.473 101.072 146.582 101.072 147.95Z" fill="white"/>
<path d="M99.5312 150.983C98.4915 150.983 97.6455 149.622 97.6455 147.95C97.6455 146.278 98.4915 144.918 99.5312 144.918C100.572 144.918 101.418 146.278 101.418 147.95C101.418 149.622 100.572 150.983 99.5312 150.983ZM99.5312 146.028C98.8731 146.028 98.3373 146.89 98.3373 147.95C98.3373 149.01 98.873 149.873 99.5312 149.873C100.19 149.873 100.726 149.01 100.726 147.95C100.726 146.89 100.19 146.028 99.5312 146.028Z" fill="#58595B"/>
<path d="M124.64 153.025C124.64 154.393 123.95 155.502 123.099 155.502C122.248 155.502 121.559 154.393 121.559 153.025C121.559 151.657 122.248 150.548 123.099 150.548C123.95 150.548 124.64 151.657 124.64 153.025Z" fill="white"/>
<path d="M123.099 156.057C122.059 156.057 121.213 154.697 121.213 153.025C121.213 151.353 122.059 149.993 123.099 149.993C124.14 149.993 124.986 151.353 124.986 153.025C124.986 154.697 124.14 156.057 123.099 156.057ZM123.099 151.103C122.441 151.103 121.905 151.965 121.905 153.025C121.905 154.085 122.441 154.947 123.099 154.947C123.758 154.947 124.294 154.085 124.294 153.025C124.294 151.965 123.758 151.103 123.099 151.103Z" fill="#58595B"/>
<path d="M157.341 167.375C157.341 168.744 156.651 169.853 155.8 169.853C154.95 169.853 154.26 168.744 154.26 167.375C154.26 166.008 154.95 164.898 155.8 164.898C156.651 164.898 157.341 166.008 157.341 167.375Z" fill="white"/>
<path d="M155.8 170.408C154.76 170.408 153.914 169.048 153.914 167.375C153.914 165.703 154.76 164.343 155.8 164.343C156.841 164.343 157.687 165.703 157.687 167.375C157.687 169.048 156.841 170.408 155.8 170.408ZM155.8 165.453C155.142 165.453 154.606 166.315 154.606 167.375C154.606 168.436 155.142 169.298 155.8 169.298C156.459 169.298 156.995 168.436 156.995 167.375C156.995 166.315 156.459 165.453 155.8 165.453Z" fill="#58595B"/>
<path d="M67.3975 93.1118C67.3975 94.4799 66.7062 95.5893 65.853 95.5893C65.0002 95.5893 64.3088 94.4797 64.3088 93.1118C64.3088 91.7437 65.0003 90.6346 65.853 90.6346C66.7061 90.6346 67.3975 91.7437 67.3975 93.1118Z" fill="white"/>
<path d="M65.8529 96.1451C64.8103 96.1451 63.9624 94.7845 63.9624 93.1119C63.9624 91.4394 64.8103 90.0788 65.8529 90.0788C66.8956 90.0788 67.7437 91.4394 67.7437 93.1119C67.7437 94.7845 66.8956 96.1451 65.8529 96.1451ZM65.8529 91.19C65.1925 91.19 64.6551 92.0522 64.6551 93.1119C64.6551 94.1717 65.1925 95.0339 65.8529 95.0339C66.5136 95.0339 67.0511 94.1717 67.0511 93.1119C67.0511 92.0522 66.5136 91.19 65.8529 91.19Z" fill="#132250"/>
<path opacity="0.3" d="M126.634 180.672L77.2512 156.291L48.5101 174.471L31.6606 160.606V187.696H155.94V178.194L126.634 180.672Z" fill="#939598"/>
<path d="M126.591 181.232L126.532 181.203L77.2655 156.88L48.5258 175.056L31.5027 161.101L31.8185 160.11L48.5626 173.836L77.237 155.702L77.3534 155.759L126.677 180.111L155.922 177.638L155.959 178.75L126.591 181.232Z" fill="#939598"/>
<path d="M33.209 160.605C33.209 161.974 32.5159 163.083 31.6601 163.083C30.8052 163.083 30.1116 161.974 30.1116 160.605C30.1116 159.237 30.8051 158.128 31.6601 158.128C32.5159 158.128 33.209 159.238 33.209 160.605Z" fill="white"/>
<path d="M31.6602 163.639C30.6151 163.639 29.7646 162.278 29.7646 160.605C29.7646 158.932 30.615 157.571 31.6602 157.571C32.7056 157.571 33.5562 158.932 33.5562 160.605C33.5562 162.278 32.7056 163.639 31.6602 163.639ZM31.6602 158.685C30.9976 158.685 30.4586 159.546 30.4586 160.605C30.4586 161.665 30.9976 162.526 31.6602 162.526C32.323 162.526 32.8622 161.665 32.8622 160.605C32.8622 159.546 32.323 158.685 31.6602 158.685Z" fill="#939598"/>
<path d="M157.489 178.194C157.489 179.562 156.796 180.672 155.94 180.672C155.085 180.672 154.392 179.562 154.392 178.194C154.392 176.826 155.085 175.717 155.94 175.717C156.796 175.717 157.489 176.826 157.489 178.194Z" fill="white"/>
<path d="M155.94 181.228C154.895 181.228 154.045 179.867 154.045 178.194C154.045 176.521 154.895 175.16 155.94 175.16C156.986 175.16 157.836 176.521 157.836 178.194C157.836 179.867 156.986 181.228 155.94 181.228ZM155.94 176.273C155.278 176.273 154.739 177.135 154.739 178.194C154.739 179.253 155.278 180.115 155.94 180.115C156.603 180.115 157.142 179.253 157.142 178.194C157.142 177.135 156.603 176.273 155.94 176.273Z" fill="#939598"/>
<path d="M128.171 180.671C128.171 182.04 127.478 183.149 126.623 183.149C125.768 183.149 125.074 182.04 125.074 180.671C125.074 179.304 125.768 178.194 126.623 178.194C127.478 178.194 128.171 179.304 128.171 180.671Z" fill="white"/>
<path d="M126.623 183.706C125.578 183.706 124.727 182.344 124.727 180.671C124.727 178.998 125.578 177.637 126.623 177.637C127.668 177.637 128.519 178.998 128.519 180.671C128.519 182.344 127.668 183.706 126.623 183.706ZM126.623 178.751C125.96 178.751 125.421 179.612 125.421 180.671C125.421 181.73 125.96 182.592 126.623 182.592C127.285 182.592 127.824 181.73 127.824 180.671C127.824 179.612 127.285 178.751 126.623 178.751Z" fill="#939598"/>
<path d="M50.0587 174.617C50.0587 175.986 49.3656 177.095 48.5101 177.095C47.6548 177.095 46.9617 175.986 46.9617 174.617C46.9617 173.249 47.6548 172.14 48.5101 172.14C49.3654 172.14 50.0587 173.249 50.0587 174.617Z" fill="white"/>
<path d="M48.5101 177.652C47.4649 177.652 46.6145 176.29 46.6145 174.617C46.6145 172.944 47.4648 171.583 48.5101 171.583C49.5553 171.583 50.4056 172.944 50.4056 174.617C50.4056 176.29 49.5553 177.652 48.5101 177.652ZM48.5101 172.697C47.8475 172.697 47.3085 173.558 47.3085 174.617C47.3085 175.676 47.8475 176.538 48.5101 176.538C49.1726 176.538 49.7115 175.676 49.7115 174.617C49.7116 173.558 49.1726 172.697 48.5101 172.697Z" fill="#939598"/>
<path d="M78.7061 156.201C78.7061 157.569 78.0125 158.678 77.1572 158.678C76.3023 158.678 75.6086 157.569 75.6086 156.201C75.6086 154.833 76.3022 153.723 77.1572 153.723C78.0125 153.723 78.7061 154.833 78.7061 156.201Z" fill="white"/>
<path d="M77.1573 159.235C76.1122 159.235 75.2617 157.873 75.2617 156.2C75.2617 154.527 76.1121 153.166 77.1573 153.166C78.2027 153.166 79.0533 154.527 79.0533 156.2C79.0532 157.873 78.2026 159.235 77.1573 159.235ZM77.1573 154.28C76.4947 154.28 75.9558 155.141 75.9558 156.2C75.9558 157.26 76.4948 158.121 77.1573 158.121C77.8201 158.121 78.3593 157.26 78.3593 156.2C78.3592 155.141 77.8199 154.28 77.1573 154.28Z" fill="#939598"/>
<path d="M160.867 188.009H23.0657V84.7675H23.9075V186.658H160.867V188.009Z" fill="#58595B"/>
<path d="M17.7785 177.096V173.904H17.4465V173.468C17.5399 173.45 17.6289 173.393 17.7135 173.298C17.7982 173.202 17.859 173.085 17.8959 172.949H18.1681V177.096H17.7785Z" fill="#939598"/>
<path d="M19.7453 176.15C19.7453 176.426 19.6847 176.659 19.5638 176.851C19.4429 177.043 19.2979 177.139 19.1289 177.139C18.957 177.139 18.811 177.043 18.6907 176.85C18.5705 176.657 18.5103 176.424 18.5103 176.15V173.888C18.5103 173.612 18.5706 173.378 18.6917 173.185C18.8126 172.992 18.9583 172.895 19.1288 172.895C19.3005 172.895 19.4463 172.993 19.5659 173.186C19.6853 173.38 19.7451 173.614 19.7451 173.888L19.7453 176.15ZM19.3411 173.875C19.3411 173.775 19.319 173.691 19.2751 173.62C19.2311 173.549 19.1783 173.514 19.1164 173.514C19.0545 173.514 19.002 173.55 18.9587 173.62C18.9155 173.691 18.8938 173.775 18.8938 173.875V176.14C18.8938 176.24 18.9155 176.325 18.9587 176.395C19.002 176.466 19.0545 176.501 19.1164 176.501C19.1783 176.501 19.2311 176.466 19.2751 176.395C19.3191 176.325 19.3411 176.24 19.3411 176.14V173.875Z" fill="#939598"/>
<path d="M21.3163 176.15C21.3163 176.426 21.2557 176.659 21.1349 176.851C21.014 177.043 20.869 177.139 20.7 177.139C20.5281 177.139 20.3821 177.043 20.2617 176.85C20.1415 176.657 20.0813 176.424 20.0813 176.15V173.888C20.0813 173.612 20.1416 173.378 20.2627 173.185C20.3836 172.992 20.5293 172.895 20.6999 172.895C20.8715 172.895 21.0173 172.993 21.137 173.186C21.2563 173.38 21.3163 173.614 21.3163 173.888V176.15ZM20.9123 173.875C20.9123 173.775 20.8902 173.691 20.8463 173.62C20.8023 173.549 20.7494 173.514 20.6875 173.514C20.6256 173.514 20.5732 173.55 20.5299 173.62C20.4865 173.691 20.465 173.775 20.465 173.875V176.14C20.465 176.24 20.4866 176.325 20.5299 176.395C20.5732 176.466 20.6256 176.501 20.6875 176.501C20.7494 176.501 20.8023 176.466 20.8463 176.395C20.8903 176.325 20.9123 176.24 20.9123 176.14V173.875Z" fill="#939598"/>
<path d="M17.4528 159.884C17.4528 159.492 17.5188 159.192 17.6507 158.985C17.7648 158.802 17.9146 158.71 18.1002 158.71C18.2706 158.71 18.416 158.813 18.5362 159.018C18.6566 159.223 18.7167 159.462 18.7167 159.736C18.7167 160.018 18.6776 160.29 18.5992 160.553C18.5566 160.698 18.4569 160.948 18.3001 161.303C18.2577 161.4 18.1942 161.551 18.1106 161.756L18.0403 161.925C17.9951 162.035 17.9608 162.122 17.9373 162.186C17.9264 162.219 17.921 162.238 17.921 162.245H18.6859V162.858H17.4468V162.284C17.4468 162.271 17.4752 162.194 17.5319 162.055C17.5581 161.991 17.5877 161.921 17.6209 161.844L17.7223 161.61C17.7813 161.48 17.8743 161.271 18.0009 160.985C18.1208 160.716 18.2101 160.472 18.2694 160.254C18.3176 160.075 18.3416 159.909 18.3416 159.755C18.3416 159.629 18.3194 159.522 18.2756 159.434C18.2274 159.342 18.1656 159.295 18.0901 159.295C17.9814 159.295 17.9044 159.396 17.8592 159.596C17.8439 159.662 17.8364 159.742 17.8364 159.834V159.993H17.4529V159.884H17.4528Z" fill="#939598"/>
<path d="M20.2732 161.915C20.2732 162.191 20.2127 162.424 20.0918 162.616C19.9709 162.808 19.8259 162.904 19.6569 162.904C19.485 162.904 19.339 162.808 19.2188 162.615C19.0986 162.422 19.0383 162.189 19.0383 161.915V159.653C19.0383 159.377 19.0987 159.143 19.2198 158.95C19.3407 158.757 19.4863 158.661 19.6569 158.661C19.8286 158.661 19.9743 158.758 20.094 158.952C20.2134 159.146 20.2733 159.38 20.2733 159.653V161.915H20.2732ZM19.8692 159.64C19.8692 159.54 19.8471 159.455 19.8032 159.385C19.7592 159.314 19.7063 159.279 19.6444 159.279C19.5826 159.279 19.5301 159.314 19.4868 159.385C19.4434 159.455 19.4218 159.54 19.4218 159.64V161.905C19.4218 162.005 19.4434 162.089 19.4868 162.16C19.5301 162.231 19.5826 162.266 19.6444 162.266C19.7063 162.266 19.7592 162.23 19.8032 162.16C19.8471 162.089 19.8692 162.005 19.8692 161.905V159.64Z" fill="#939598"/>
<path d="M21.8441 161.915C21.8441 162.191 21.7836 162.424 21.6627 162.616C21.5418 162.808 21.3968 162.904 21.2278 162.904C21.0559 162.904 20.9099 162.808 20.7896 162.615C20.6694 162.422 20.6091 162.189 20.6091 161.915V159.653C20.6091 159.377 20.6695 159.143 20.7906 158.95C20.9115 158.757 21.0571 158.661 21.2277 158.661C21.3994 158.661 21.5451 158.758 21.6648 158.952C21.7841 159.146 21.8441 159.38 21.8441 159.653V161.915ZM21.44 159.64C21.44 159.54 21.4179 159.455 21.374 159.385C21.33 159.314 21.2771 159.279 21.2152 159.279C21.1534 159.279 21.1009 159.314 21.0576 159.385C21.0142 159.455 20.9926 159.54 20.9926 159.64V161.905C20.9926 162.005 21.0142 162.089 21.0576 162.16C21.1009 162.231 21.1534 162.266 21.2152 162.266C21.2771 162.266 21.33 162.23 21.374 162.16C21.4179 162.089 21.44 162.005 21.44 161.905V159.64Z" fill="#939598"/>
<path d="M18.0528 148.03C18.2314 148.03 18.3209 147.897 18.3209 147.631V147.386C18.3209 146.961 18.182 146.748 17.9043 146.748V146.213C18.0541 146.213 18.1648 146.146 18.2362 146.012C18.3022 145.891 18.3352 145.721 18.3352 145.503V145.407C18.3352 145.136 18.2609 145.001 18.1124 145.001C18.03 145.001 17.9696 145.051 17.9312 145.152C17.9023 145.229 17.8879 145.329 17.8879 145.451V145.56H17.5063V145.464C17.5063 145.169 17.5531 144.928 17.6464 144.743C17.7523 144.531 17.9014 144.425 18.094 144.425C18.2768 144.425 18.4231 144.525 18.5331 144.723C18.6321 144.902 18.6815 145.124 18.6815 145.391V145.566C18.6815 145.825 18.6334 146.047 18.5372 146.235C18.4959 146.314 18.4478 146.381 18.3929 146.436C18.5083 146.54 18.5975 146.698 18.661 146.909C18.6938 147.017 18.7104 147.148 18.7104 147.303V147.63C18.7104 147.937 18.645 148.188 18.5145 148.385C18.3894 148.574 18.239 148.669 18.063 148.669C17.8911 148.669 17.7455 148.572 17.6259 148.378C17.5063 148.184 17.4465 147.951 17.4465 147.68V147.578L17.8176 147.531L17.826 147.677C17.8314 147.78 17.8544 147.865 17.8951 147.931C17.9355 147.997 17.988 148.03 18.0528 148.03Z" fill="#939598"/>
<path d="M20.2772 147.68C20.2772 147.955 20.2167 148.189 20.0958 148.381C19.9749 148.573 19.8299 148.669 19.6609 148.669C19.489 148.669 19.343 148.572 19.2227 148.38C19.1023 148.187 19.0422 147.953 19.0422 147.68V145.417C19.0422 145.142 19.1026 144.908 19.2237 144.714C19.3446 144.522 19.4902 144.425 19.6608 144.425C19.8325 144.425 19.9782 144.522 20.0979 144.716C20.2172 144.91 20.2772 145.144 20.2772 145.417V147.68ZM19.8731 145.404C19.8731 145.305 19.851 145.22 19.8071 145.149C19.7631 145.079 19.7102 145.043 19.6483 145.043C19.5865 145.043 19.534 145.079 19.4907 145.149C19.4473 145.22 19.4258 145.305 19.4258 145.404V147.67C19.4258 147.769 19.4475 147.854 19.4907 147.925C19.534 147.995 19.5865 148.03 19.6483 148.03C19.7102 148.03 19.7631 147.995 19.8071 147.925C19.8511 147.854 19.8731 147.769 19.8731 147.67V145.404Z" fill="#939598"/>
<path d="M21.8483 147.68C21.8483 147.955 21.7877 148.189 21.6668 148.381C21.5459 148.573 21.4009 148.669 21.2319 148.669C21.0601 148.669 20.9141 148.572 20.7937 148.38C20.6734 148.187 20.6133 147.953 20.6133 147.68V145.417C20.6133 145.142 20.6736 144.908 20.7947 144.714C20.9156 144.522 21.0613 144.425 21.2318 144.425C21.4035 144.425 21.5493 144.522 21.6689 144.716C21.7883 144.91 21.8483 145.144 21.8483 145.417V147.68ZM21.4442 145.404C21.4442 145.305 21.4221 145.22 21.3782 145.149C21.3342 145.079 21.2813 145.043 21.2194 145.043C21.1575 145.043 21.1051 145.079 21.0617 145.149C21.0185 145.22 20.9968 145.305 20.9968 145.404V147.67C20.9968 147.769 21.0185 147.854 21.0617 147.925C21.1051 147.995 21.1575 148.03 21.2194 148.03C21.2813 148.03 21.3342 147.995 21.3782 147.925C21.4222 147.854 21.4442 147.769 21.4442 147.67V145.404Z" fill="#939598"/>
<path d="M17.4465 132.866L18.1351 130.24H18.5248V132.866H18.7742V133.494H18.5248V134.387H18.1351V133.494H17.4465V132.866ZM18.1351 132.866V131.57L17.8134 132.866H18.1351Z" fill="#939598"/>
<path d="M20.3308 133.445C20.3308 133.72 20.2703 133.954 20.1494 134.146C20.0285 134.338 19.8835 134.434 19.7145 134.434C19.5426 134.434 19.3966 134.337 19.2764 134.144C19.1562 133.952 19.0959 133.718 19.0959 133.445V131.182C19.0959 130.907 19.1563 130.672 19.2774 130.479C19.3983 130.287 19.5439 130.19 19.7145 130.19C19.8862 130.19 20.0319 130.287 20.1516 130.481C20.2711 130.675 20.3309 130.909 20.3309 131.182V133.445H20.3308ZM19.9267 131.169C19.9267 131.07 19.9046 130.985 19.8607 130.914C19.8167 130.844 19.7638 130.809 19.7019 130.809C19.6401 130.809 19.5876 130.844 19.5443 130.914C19.5009 130.985 19.4793 131.07 19.4793 131.169V133.435C19.4793 133.534 19.5009 133.619 19.5443 133.69C19.5876 133.76 19.6401 133.796 19.7019 133.796C19.7638 133.796 19.8167 133.76 19.8607 133.69C19.9047 133.619 19.9267 133.534 19.9267 133.435V131.169Z" fill="#939598"/>
<path d="M21.9017 133.445C21.9017 133.72 21.8412 133.954 21.7203 134.146C21.5994 134.338 21.4544 134.434 21.2854 134.434C21.1135 134.434 20.9675 134.337 20.8472 134.144C20.727 133.952 20.6667 133.718 20.6667 133.445V131.182C20.6667 130.907 20.7271 130.672 20.8482 130.479C20.9691 130.287 21.1147 130.19 21.2853 130.19C21.457 130.19 21.6027 130.287 21.7224 130.481C21.8417 130.675 21.9017 130.909 21.9017 131.182V133.445ZM21.4976 131.169C21.4976 131.07 21.4755 130.985 21.4316 130.914C21.3877 130.844 21.3347 130.809 21.2729 130.809C21.211 130.809 21.1585 130.844 21.1152 130.914C21.0719 130.985 21.0502 131.07 21.0502 131.169V133.435C21.0502 133.534 21.0719 133.619 21.1152 133.69C21.1585 133.76 21.211 133.796 21.2729 133.796C21.3347 133.796 21.3876 133.76 21.4316 133.69C21.4756 133.619 21.4976 133.534 21.4976 133.435V131.169Z" fill="#939598"/>
<path d="M17.8754 116.633V117.523C17.9141 117.434 17.9683 117.366 18.0388 117.317C18.076 117.293 18.1194 117.281 18.1691 117.281C18.3399 117.281 18.4661 117.377 18.5474 117.569C18.6177 117.734 18.6529 117.968 18.6529 118.27V119.163C18.6529 119.47 18.5923 119.721 18.4714 119.917C18.356 120.107 18.2103 120.202 18.0343 120.202C17.864 120.202 17.7223 120.102 17.6097 119.904C17.501 119.714 17.4468 119.483 17.4468 119.209V119.11L17.82 119.064L17.8281 119.206C17.8377 119.371 17.8797 119.482 17.9539 119.537C17.976 119.554 17.9993 119.563 18.0241 119.563C18.1836 119.563 18.2633 119.43 18.2633 119.163V118.148C18.2633 118.026 18.2356 117.926 18.1804 117.847C18.154 117.809 18.1174 117.79 18.0704 117.79C18.0013 117.79 17.9502 117.833 17.9171 117.919C17.8893 117.994 17.8756 118.074 17.8756 118.157V118.27H17.4859V116.004H18.6259V116.632H17.8754V116.633Z" fill="#939598"/>
<path d="M20.2154 119.209C20.2154 119.485 20.1548 119.719 20.0339 119.911C19.913 120.102 19.768 120.199 19.599 120.199C19.4271 120.199 19.2811 120.102 19.1609 119.909C19.0407 119.716 18.9805 119.483 18.9805 119.209V116.947C18.9805 116.671 19.0408 116.437 19.1619 116.244C19.2828 116.051 19.4285 115.955 19.599 115.955C19.7707 115.955 19.9165 116.052 20.0361 116.246C20.1556 116.44 20.2155 116.674 20.2155 116.947V119.209H20.2154ZM19.8112 116.934C19.8112 116.834 19.7891 116.75 19.7451 116.679C19.7011 116.609 19.6482 116.573 19.5865 116.573C19.5246 116.573 19.4721 116.609 19.4288 116.679C19.3855 116.75 19.3638 116.834 19.3638 116.934V119.199C19.3638 119.299 19.3855 119.384 19.4288 119.454C19.472 119.525 19.5246 119.56 19.5865 119.56C19.6484 119.56 19.7012 119.525 19.7451 119.454C19.7891 119.384 19.8112 119.299 19.8112 119.199V116.934Z" fill="#939598"/>
<path d="M21.7865 119.209C21.7865 119.485 21.726 119.719 21.6051 119.911C21.4842 120.102 21.3392 120.199 21.1702 120.199C20.9983 120.199 20.8523 120.102 20.732 119.909C20.6117 119.716 20.5515 119.483 20.5515 119.209V116.947C20.5515 116.671 20.6118 116.437 20.733 116.244C20.8538 116.051 20.9995 115.955 21.1701 115.955C21.3417 115.955 21.4875 116.052 21.6072 116.246C21.7265 116.44 21.7865 116.674 21.7865 116.947V119.209ZM21.3824 116.934C21.3824 116.834 21.3603 116.75 21.3164 116.679C21.2725 116.609 21.2195 116.573 21.1576 116.573C21.0957 116.573 21.0433 116.609 21 116.679C20.9566 116.75 20.935 116.834 20.935 116.934V119.199C20.935 119.299 20.9566 119.384 21 119.454C21.0433 119.525 21.0957 119.56 21.1576 119.56C21.2195 119.56 21.2724 119.525 21.3164 119.454C21.3603 119.384 21.3824 119.299 21.3824 119.199V116.934Z" fill="#939598"/>
<path d="M18.2156 102.801V102.699C18.2156 102.597 18.1988 102.512 18.1651 102.442C18.1314 102.373 18.0835 102.338 18.0219 102.338C17.96 102.338 17.9121 102.373 17.8784 102.442C17.8448 102.512 17.828 102.597 17.828 102.699V103.525C17.9174 103.398 18.0156 103.334 18.1229 103.334C18.2945 103.334 18.4231 103.429 18.5083 103.621C18.5838 103.789 18.6216 104.022 18.6216 104.319V105.03H18.6196C18.6113 105.295 18.5519 105.517 18.4412 105.695C18.3305 105.874 18.195 105.963 18.0341 105.963C17.8622 105.963 17.7208 105.865 17.6094 105.668C17.5008 105.479 17.4465 105.247 17.4465 104.974V102.712C17.4465 102.509 17.4772 102.326 17.5382 102.163C17.5994 102 17.6864 101.878 17.7991 101.799C17.8705 101.746 17.9489 101.719 18.0341 101.719C18.2046 101.719 18.3461 101.819 18.459 102.017C18.5674 102.207 18.6216 102.438 18.6216 102.712V102.801L18.2156 102.801ZM17.828 104.964C17.828 105.066 17.844 105.15 17.8756 105.216C17.9102 105.288 17.9585 105.325 18.0209 105.325C18.083 105.325 18.1313 105.288 18.1659 105.216C18.1991 105.15 18.2158 105.066 18.2158 104.964V104.197C18.2158 104.078 18.188 103.979 18.1329 103.899C18.1066 103.862 18.0699 103.843 18.0229 103.843C17.9553 103.843 17.9041 103.886 17.8695 103.972C17.8418 104.043 17.828 104.121 17.828 104.207V104.964Z" fill="#939598"/>
<path d="M20.1842 104.974C20.1842 105.25 20.1237 105.484 20.0028 105.675C19.8819 105.867 19.7369 105.963 19.5679 105.963C19.396 105.963 19.25 105.867 19.1298 105.674C19.0096 105.481 18.9495 105.248 18.9495 104.974V102.712C18.9495 102.436 19.0098 102.202 19.1309 102.009C19.2518 101.816 19.3975 101.72 19.568 101.72C19.7397 101.72 19.8855 101.817 20.0051 102.011C20.1245 102.205 20.1845 102.439 20.1845 102.712V104.974H20.1842ZM19.7802 102.699C19.7802 102.599 19.7581 102.514 19.7142 102.444C19.6702 102.373 19.6174 102.338 19.5555 102.338C19.4936 102.338 19.4411 102.373 19.3978 102.444C19.3545 102.514 19.3328 102.599 19.3328 102.699V104.964C19.3328 105.064 19.3545 105.148 19.3978 105.219C19.4411 105.29 19.4936 105.325 19.5555 105.325C19.6174 105.325 19.6702 105.289 19.7142 105.219C19.7582 105.149 19.7802 105.064 19.7802 104.964V102.699Z" fill="#939598"/>
<path d="M21.7554 104.974C21.7554 105.25 21.6948 105.484 21.574 105.675C21.4531 105.867 21.3081 105.963 21.1391 105.963C20.9672 105.963 20.8212 105.867 20.7008 105.674C20.5806 105.481 20.5205 105.248 20.5205 104.974V102.712C20.5205 102.436 20.5808 102.202 20.702 102.009C20.8228 101.816 20.9685 101.72 21.1391 101.72C21.3107 101.72 21.4565 101.817 21.5762 102.011C21.6955 102.205 21.7555 102.439 21.7555 102.712V104.974H21.7554ZM21.3513 102.699C21.3513 102.599 21.3292 102.514 21.2853 102.444C21.2413 102.373 21.1884 102.338 21.1265 102.338C21.0646 102.338 21.0122 102.373 20.9688 102.444C20.9255 102.514 20.9038 102.599 20.9038 102.699V104.964C20.9038 105.064 20.9255 105.148 20.9688 105.219C21.0121 105.29 21.0646 105.325 21.1265 105.325C21.1884 105.325 21.2413 105.289 21.2853 105.219C21.3293 105.149 21.3513 105.064 21.3513 104.964V102.699Z" fill="#939598"/>
<path d="M18.6176 87.5341V88.1622L18.0712 91.6816H17.6885L18.235 88.1622H17.4465V87.5341H18.6176Z" fill="#939598"/>
<path d="M20.1206 90.7387C20.1206 91.0144 20.0601 91.248 19.9392 91.4399C19.8183 91.6317 19.6733 91.728 19.5043 91.728C19.3324 91.728 19.1864 91.6316 19.0662 91.4385C18.9459 91.2456 18.8857 91.0123 18.8857 90.7387V88.4765C18.8857 88.2007 18.9461 87.9665 19.0672 87.7734C19.1881 87.5806 19.3337 87.484 19.5043 87.484C19.676 87.484 19.8219 87.5811 19.9414 87.775C20.0609 87.969 20.1207 88.203 20.1207 88.4763L20.1206 90.7387ZM19.7165 88.4633C19.7165 88.364 19.6944 88.2792 19.6505 88.2086C19.6066 88.138 19.5536 88.1027 19.4917 88.1027C19.4299 88.1027 19.3774 88.1382 19.3341 88.2086C19.2909 88.2792 19.2692 88.364 19.2692 88.4633V90.7291C19.2692 90.8283 19.2909 90.9132 19.3341 90.9838C19.3774 91.0544 19.4299 91.0897 19.4917 91.0897C19.5536 91.0897 19.6065 91.0542 19.6505 90.9838C19.6945 90.9132 19.7165 90.8283 19.7165 90.7291V88.4633Z" fill="#939598"/>
<path d="M21.6915 90.7387C21.6915 91.0144 21.631 91.248 21.5101 91.4399C21.3892 91.6317 21.2442 91.728 21.0752 91.728C20.9033 91.728 20.7573 91.6316 20.637 91.4385C20.5168 91.2456 20.4565 91.0123 20.4565 90.7387V88.4765C20.4565 88.2007 20.5169 87.9665 20.638 87.7734C20.7589 87.5806 20.9045 87.484 21.0751 87.484C21.2468 87.484 21.3925 87.5811 21.5122 87.775C21.6315 87.969 21.6915 88.203 21.6915 88.4763V90.7387ZM21.2874 88.4633C21.2874 88.364 21.2653 88.2792 21.2214 88.2086C21.1775 88.138 21.1245 88.1027 21.0627 88.1027C21.0008 88.1027 20.9483 88.1382 20.905 88.2086C20.8618 88.2792 20.8401 88.364 20.8401 88.4633V90.7291C20.8401 90.8283 20.8618 90.9132 20.905 90.9838C20.9483 91.0544 21.0008 91.0897 21.0627 91.0897C21.1245 91.0897 21.1774 91.0542 21.2214 90.9838C21.2654 90.9132 21.2874 90.8283 21.2874 90.7291V88.4633Z" fill="#939598"/>
<path d="M18.395 50.7629H17.9807V50.1344H19.197V50.7629H18.7847V54.2788H18.395V50.7629Z" fill="#939598"/>
<path d="M20.0816 50.0816C20.2534 50.0816 20.3994 50.1784 20.5198 50.3726C20.64 50.5669 20.7002 50.8005 20.7002 51.0738V53.3364C20.7002 53.6121 20.6397 53.846 20.5188 54.0389C20.3979 54.2321 20.2522 54.3284 20.0817 54.3284C19.9098 54.3284 19.7642 54.2316 19.6446 54.0376C19.525 53.8437 19.4653 53.6096 19.4653 53.3364V51.0738C19.4653 50.7984 19.5257 50.5642 19.6468 50.3711C19.7676 50.1783 19.9126 50.0816 20.0816 50.0816ZM20.2939 51.0608C20.2939 50.9615 20.2722 50.877 20.229 50.8075C20.1857 50.738 20.1332 50.7032 20.0713 50.7032C20.0094 50.7032 19.9566 50.738 19.9126 50.8075C19.8686 50.8768 19.8466 50.9615 19.8466 51.0608V53.3296C19.8466 53.4289 19.8687 53.513 19.9126 53.5825C19.9566 53.6521 20.0094 53.6868 20.0713 53.6868C20.1332 53.6868 20.1857 53.6521 20.229 53.5825C20.2723 53.5132 20.2939 53.4289 20.2939 53.3296V51.0608Z" fill="#939598"/>
<path d="M21.3823 50.7629H20.968V50.1344H22.1843V50.7629H21.772V54.2788H21.3823V50.7629Z" fill="#939598"/>
<path d="M22.6435 53.326L22.5489 54.2788H22.1433L22.5823 50.1342H23.1184L23.5513 54.2788H23.1415L23.0503 53.326H22.6435ZM22.8484 51.084L22.7041 52.7178H22.9928L22.8484 51.084Z" fill="#939598"/>
<path d="M24.9409 54.2788H23.8792V50.1342H24.2688V53.6569H24.9409V54.2788Z" fill="#939598"/>
<path d="M79.0665 74.0177H17.8469V78.5185H79.0665V74.0177Z" fill="#F1F2F2"/>
<path d="M68.0489 74.0177H17.8469V78.5185H68.0489V74.0177Z" fill="#5D5D5D"/>
<path d="M79.0665 68.059H17.8469V72.5599H79.0665V68.059Z" fill="#F1F2F2"/>
<path d="M50.997 68.059H17.8469V72.5599H50.997V68.059Z" fill="#132250"/>
<path d="M79.0665 62.0998H17.8469V66.6007H79.0665V62.0998Z" fill="#F1F2F2"/>
<path d="M58.7601 62.0998H17.8469V66.6007H58.7601V62.0998Z" fill="#E71B44"/>
<path d="M79.0665 56.1412H17.8469V60.6421H79.0665V56.1412Z" fill="#F1F2F2"/>
<path d="M40.7745 56.1412H17.8469V60.6421H40.7745V56.1412Z" fill="#41E5B2"/>
<path d="M153.233 112.286L153.997 109.372H154.43V112.286H154.706V112.983H154.43V113.974H153.997V112.983H153.233V112.286ZM153.997 112.286V110.848L153.64 112.286H153.997Z" fill="white"/>
<path d="M156.464 112.928C156.464 113.234 156.396 113.493 156.262 113.706C156.128 113.919 155.966 114.025 155.777 114.025H155.743C155.552 114.025 155.391 113.918 155.258 113.702C155.125 113.487 155.059 113.229 155.059 112.928V112.51C155.059 112.229 155.117 111.982 155.235 111.772C155.285 111.682 155.344 111.607 155.411 111.548C155.295 111.453 155.205 111.294 155.141 111.071C155.109 110.956 155.093 110.812 155.093 110.638V110.388C155.093 110.09 155.148 109.843 155.258 109.648C155.38 109.427 155.541 109.317 155.743 109.317H155.777C155.98 109.317 156.142 109.427 156.264 109.648C156.374 109.845 156.429 110.093 156.429 110.388V110.638C156.429 110.924 156.376 111.161 156.269 111.35C156.222 111.434 156.169 111.5 156.111 111.548C156.239 111.663 156.338 111.839 156.408 112.073C156.445 112.193 156.463 112.339 156.463 112.51L156.464 112.928ZM156.045 110.578C156.042 110.263 155.98 110.065 155.859 109.985C155.832 109.965 155.799 109.955 155.761 109.955C155.686 109.955 155.625 109.988 155.578 110.054C155.54 110.108 155.513 110.177 155.497 110.261C155.481 110.345 155.474 110.451 155.477 110.578C155.482 110.778 155.502 110.921 155.537 111.009C155.583 111.126 155.657 111.185 155.761 111.185C155.865 111.185 155.94 111.123 155.988 110.999C156.027 110.893 156.046 110.753 156.045 110.578ZM156.031 112.602C156.031 112.327 155.992 112.144 155.914 112.051C155.878 112.007 155.827 111.985 155.761 111.985C155.647 111.985 155.569 112.063 155.528 112.22C155.503 112.315 155.491 112.442 155.491 112.602V112.822C155.491 112.973 155.52 113.096 155.578 113.189C155.627 113.267 155.688 113.309 155.761 113.313C155.878 113.304 155.96 113.211 156.006 113.034C156.022 112.975 156.031 112.905 156.031 112.822V112.602H156.031Z" fill="white"/>
<path d="M157.296 110.069V111.056C157.339 110.958 157.399 110.883 157.477 110.829C157.518 110.802 157.567 110.789 157.622 110.789C157.811 110.789 157.951 110.895 158.041 111.108C158.119 111.291 158.158 111.551 158.158 111.886V112.877C158.158 113.217 158.091 113.495 157.957 113.714C157.829 113.924 157.667 114.029 157.472 114.029C157.283 114.029 157.126 113.919 157.001 113.699C156.88 113.488 156.82 113.232 156.82 112.928V112.818L157.234 112.766L157.243 112.924C157.254 113.108 157.301 113.23 157.383 113.291C157.407 113.311 157.434 113.321 157.461 113.321C157.638 113.321 157.726 113.173 157.726 112.877V111.75C157.726 111.615 157.696 111.504 157.634 111.416C157.605 111.375 157.564 111.354 157.512 111.354C157.436 111.354 157.379 111.401 157.342 111.497C157.311 111.58 157.296 111.668 157.296 111.761V111.886H156.864V109.372H158.129V110.069H157.296V110.069Z" fill="white"/>
<path d="M63.1787 130.743C63.1787 131.593 62.7493 132.281 62.2201 132.281H53.9519C53.4224 132.281 52.9929 131.593 52.9929 130.743V125.308C52.9929 124.459 53.4224 123.77 53.9519 123.77H62.2201C62.7493 123.77 63.1787 124.459 63.1787 125.308V130.743Z" fill="#58595B"/>
<path d="M57.2471 132.281L58.0857 133.916L58.925 132.281H57.2471Z" fill="#58595B"/>
<path d="M56.406 129.808C56.6042 129.808 56.7034 129.66 56.7034 129.364V129.093C56.7034 128.621 56.5493 128.385 56.2414 128.385V127.792C56.4076 127.792 56.5303 127.717 56.6096 127.568C56.6828 127.434 56.7194 127.245 56.7194 127.003V126.897C56.7194 126.597 56.6369 126.446 56.4723 126.446C56.3808 126.446 56.3137 126.502 56.271 126.614C56.2389 126.699 56.2229 126.81 56.2229 126.946V127.066H55.7996V126.96C55.7996 126.632 55.8514 126.366 55.9553 126.16C56.0727 125.925 56.2379 125.807 56.4516 125.807C56.6545 125.807 56.8167 125.918 56.9387 126.138C57.0487 126.336 57.1036 126.583 57.1036 126.879V127.074C57.1036 127.36 57.05 127.607 56.9434 127.815C56.8977 127.903 56.8443 127.978 56.7833 128.039C56.9114 128.154 57.0105 128.329 57.0806 128.563C57.1172 128.683 57.1355 128.829 57.1355 129V129.364C57.1355 129.704 57.0632 129.983 56.9182 130.2C56.7793 130.411 56.6125 130.516 56.4172 130.516C56.2265 130.516 56.0649 130.408 55.9322 130.193C55.7995 129.978 55.7332 129.72 55.7332 129.419V129.305L56.1448 129.253L56.154 129.415C56.1602 129.53 56.1857 129.624 56.2306 129.698C56.2759 129.771 56.3344 129.808 56.406 129.808Z" fill="white"/>
<path d="M58.7323 125.863V126.56L58.1262 130.465H57.7018L58.3081 126.56H57.4331V125.863H58.7323Z" fill="white"/>
<path d="M59.0366 127.165C59.0366 126.73 59.1098 126.397 59.2563 126.167C59.3829 125.964 59.5491 125.862 59.7549 125.862C59.944 125.862 60.1054 125.976 60.2388 126.204C60.3721 126.431 60.4388 126.697 60.4388 127C60.4388 127.313 60.3955 127.616 60.3085 127.907C60.2612 128.068 60.1506 128.346 59.9768 128.74C59.9296 128.847 59.8593 129.015 59.7665 129.243L59.6886 129.43C59.6382 129.552 59.6 129.649 59.5742 129.72C59.562 129.756 59.5558 129.778 59.5558 129.786H60.4047V130.465H59.0298V129.828C59.0298 129.814 59.0613 129.729 59.1242 129.575C59.1533 129.504 59.1861 129.426 59.2228 129.34L59.3354 129.08C59.401 128.936 59.5042 128.705 59.6446 128.387C59.7776 128.088 59.8768 127.818 59.9423 127.576C59.9957 127.378 60.0223 127.193 60.0223 127.022C60.0223 126.883 59.9981 126.764 59.9493 126.666C59.8958 126.564 59.8273 126.512 59.7433 126.512C59.6229 126.512 59.5376 126.624 59.4871 126.846C59.4706 126.919 59.462 127.008 59.462 127.11V127.287H59.0365L59.0366 127.165Z" fill="white"/>
<path d="M82.2505 148.382C82.2505 149.231 81.821 149.919 81.2919 149.919H73.0237C72.4941 149.919 72.0647 149.231 72.0647 148.382V142.946C72.0647 142.097 72.4941 141.408 73.0237 141.408H81.2919C81.821 141.408 82.2505 142.097 82.2505 142.946V148.382Z" fill="#939598"/>
<path d="M76.3188 149.919L77.1576 151.554L77.9968 149.919H76.3188Z" fill="#939598"/>
<path d="M74.8122 144.803C74.8122 144.368 74.8854 144.035 75.032 143.805C75.1585 143.602 75.3248 143.5 75.5305 143.5C75.7196 143.5 75.8811 143.614 76.0144 143.842C76.1478 144.069 76.2144 144.335 76.2144 144.638C76.2144 144.951 76.1712 145.254 76.0841 145.545C76.0369 145.706 75.9262 145.984 75.7524 146.378C75.7052 146.485 75.635 146.653 75.5421 146.881L75.4642 147.068C75.4139 147.19 75.3756 147.287 75.3499 147.358C75.3376 147.394 75.3315 147.416 75.3315 147.424H76.1803V148.103H74.8054V147.466C74.8054 147.452 74.837 147.367 74.8999 147.213C74.929 147.142 74.9618 147.064 74.9985 146.978L75.1111 146.718C75.1766 146.574 75.2799 146.343 75.4202 146.025C75.5532 145.726 75.6524 145.456 75.718 145.214C75.7713 145.016 75.798 144.831 75.798 144.66C75.798 144.521 75.7736 144.402 75.725 144.304C75.6714 144.202 75.603 144.15 75.519 144.15C75.3985 144.15 75.3132 144.262 75.2627 144.484C75.2461 144.557 75.2376 144.646 75.2376 144.748V144.925H74.8121L74.8122 144.803Z" fill="white"/>
<path d="M76.2349 146.414L76.9989 143.501H77.4314V146.414H77.708V147.112H77.4314V148.103H76.9989V147.112H76.2349V146.414ZM76.9988 146.414V144.977L76.6416 146.414H76.9988Z" fill="white"/>
<path d="M79.4354 147.057C79.4354 147.363 79.3683 147.622 79.2339 147.835C79.0997 148.048 78.9388 148.154 78.7514 148.154C78.5607 148.154 78.3987 148.047 78.265 147.833C78.1317 147.619 78.0649 147.36 78.0649 147.057V144.547C78.0649 144.241 78.1321 143.981 78.2664 143.767C78.4004 143.553 78.5622 143.445 78.7514 143.445C78.9418 143.445 79.1036 143.553 79.2362 143.769C79.3689 143.984 79.4354 144.243 79.4354 144.547V147.057ZM78.9868 144.532C78.9868 144.422 78.9624 144.328 78.9136 144.249C78.8648 144.171 78.8063 144.132 78.7376 144.132C78.6689 144.132 78.6106 144.171 78.5625 144.249C78.5146 144.328 78.4905 144.422 78.4905 144.532V147.046C78.4905 147.156 78.5146 147.25 78.5625 147.328C78.6106 147.406 78.6689 147.446 78.7376 147.446C78.8063 147.446 78.8648 147.406 78.9136 147.328C78.9624 147.25 78.9868 147.156 78.9868 147.046V144.532Z" fill="white"/>
<path d="M153.044 55.6704H152.816C152.816 55.1825 152.667 54.9426 152.438 54.9426C152.134 54.9426 151.987 55.2758 151.987 55.9553V56.1583C151.987 56.8374 152.134 57.1709 152.438 57.1709C152.672 57.1709 152.824 56.9353 152.824 56.4512H153.044C153.044 57.1709 152.793 57.5004 152.438 57.5004C151.987 57.5004 151.754 57.0246 151.754 56.0565C151.754 55.0888 151.987 54.613 152.438 54.613C152.793 54.6132 153.044 54.9586 153.044 55.6704Z" fill="#58595B"/>
<path d="M154.642 56.0565C154.642 57.0246 154.383 57.5004 153.958 57.5004C153.532 57.5004 153.273 57.0246 153.273 56.0565C153.273 55.0888 153.532 54.613 153.958 54.613C154.383 54.6132 154.642 55.0888 154.642 56.0565ZM153.506 55.9553V56.1583C153.506 56.8374 153.679 57.1709 153.958 57.1709C154.237 57.1709 154.409 56.8374 154.409 56.1583V55.9553C154.409 55.2758 154.237 54.9426 153.958 54.9426C153.679 54.9426 153.506 55.2758 153.506 55.9553Z" fill="#58595B"/>
<path d="M156.118 57.4517V55.4264C156.118 55.3289 156.136 54.9952 156.136 54.9952H156.126C156.126 54.9952 156.085 55.3287 156.067 55.4264L155.72 57.4517H155.52L155.173 55.4264C155.16 55.3492 155.119 54.9952 155.119 54.9952H155.109C155.109 54.9952 155.124 55.3449 155.124 55.4264V57.4517H154.924V54.6618H155.264L155.57 56.492C155.603 56.6954 155.629 57.1182 155.629 57.1182H155.639C155.639 57.1182 155.662 56.687 155.695 56.492L156.004 54.6618H156.341V57.4517H156.118Z" fill="#58595B"/>
<path d="M156.899 56.3007V57.4517H156.676V54.6618H157.297C157.639 54.6618 157.817 54.9913 157.817 55.475C157.817 55.9672 157.619 56.3007 157.297 56.3007H156.899ZM156.899 54.987V55.9752H157.29C157.467 55.9752 157.584 55.7759 157.584 55.475C157.584 55.1745 157.48 54.9872 157.29 54.9872H156.899V54.987Z" fill="#58595B"/>
<path d="M158.063 57.4517V54.6618H158.286V57.126H158.996V57.4515L158.063 57.4517Z" fill="#58595B"/>
<path d="M159.22 57.4517V54.6618H160.292V54.987H159.443V55.8615H160.181V56.1866H159.443V57.126H160.307V57.4515L159.22 57.4517Z" fill="#58595B"/>
<path d="M160.477 54.6618H161.649V54.987H161.175V57.4515H160.951V54.987H160.477L160.477 54.6618Z" fill="#58595B"/>
<path d="M161.877 57.4517V54.6618H162.95V54.987H162.101V55.8615H162.838V56.1866H162.101V57.126H162.965V57.4515L161.877 57.4517Z" fill="#58595B"/>
<path d="M163.264 57.4517V54.6618H163.804C164.215 54.6618 164.463 55.1171 164.463 56.0159C164.463 56.9716 164.215 57.4515 163.804 57.4515L163.264 57.4517ZM163.487 54.987V57.126H163.784C164.058 57.126 164.23 56.7966 164.23 56.1175V55.9143C164.23 55.292 164.058 54.9868 163.784 54.9868L163.487 54.987Z" fill="#58595B"/>
<path d="M167.231 56.2438H167.624V56.5856H167.231V57.4517H167.021V56.5856H166.631V56.2438H167.021V55.3736H167.231V56.2438Z" fill="#1BAAD9"/>
<path d="M168.755 55.3898C168.755 55.6544 168.692 55.8859 168.565 56.0201C168.725 56.1462 168.791 56.3859 168.791 56.687C168.791 57.1346 168.651 57.5005 168.314 57.5005C167.977 57.5005 167.838 57.1346 167.838 56.687C167.838 56.3861 167.904 56.1462 168.061 56.0201C167.936 55.8857 167.873 55.6542 167.873 55.3898C167.873 54.9629 168.023 54.6132 168.314 54.6132C168.606 54.6132 168.755 54.9629 168.755 55.3898ZM168.051 56.687C168.051 57.0045 168.142 57.2037 168.314 57.2037C168.487 57.2037 168.578 57.0045 168.578 56.687C168.578 56.3699 168.487 56.1749 168.314 56.1749C168.142 56.1749 168.051 56.3699 168.051 56.687ZM168.081 55.3939C168.081 55.695 168.172 55.8777 168.314 55.8777C168.456 55.8777 168.55 55.695 168.55 55.3939C168.55 55.093 168.456 54.9098 168.314 54.9098C168.172 54.91 168.081 55.093 168.081 55.3939Z" fill="#1BAAD9"/>
<path d="M169.902 55.52H169.691C169.691 55.1337 169.618 54.91 169.471 54.91C169.26 54.91 169.209 55.3166 169.207 55.9635C169.281 55.8007 169.387 55.6989 169.514 55.6989C169.808 55.6989 169.947 56.0973 169.947 56.5977C169.947 57.1551 169.755 57.5005 169.494 57.5005C169.182 57.5005 168.994 57.1711 168.994 56.1381C168.994 54.975 169.174 54.6134 169.481 54.6134C169.777 54.6132 169.902 55.0036 169.902 55.52ZM169.225 56.5975C169.225 56.931 169.306 57.2037 169.481 57.2037C169.656 57.2037 169.734 56.9312 169.734 56.5975C169.734 56.2643 169.656 55.9918 169.481 55.9918C169.306 55.9916 169.225 56.2643 169.225 56.5975Z" fill="#1BAAD9"/>
<path d="M170.464 57.4517H170.211V57.0125H170.464V57.4517Z" fill="#1BAAD9"/>
<path d="M171.682 56.0565C171.682 57.1913 171.502 57.5004 171.205 57.5004C170.906 57.5004 170.729 57.1913 170.729 56.0565C170.729 54.9221 170.906 54.613 171.205 54.613C171.502 54.6132 171.682 54.9221 171.682 56.0565ZM170.941 55.9144V56.1989C170.941 56.7806 170.997 57.2036 171.205 57.2036C171.413 57.2036 171.469 56.7806 171.469 56.1989V55.9144C171.469 55.3328 171.413 54.9098 171.205 54.9098C170.997 54.91 170.941 55.333 170.941 55.9144Z" fill="#1BAAD9"/>
<path d="M172.782 55.0036H172.171L172.138 55.8535C172.194 55.764 172.296 55.6378 172.445 55.6378C172.673 55.6378 172.856 55.9265 172.856 56.5406C172.856 57.1549 172.671 57.5003 172.372 57.5003C172.078 57.5003 171.885 57.1549 171.885 56.5856H172.1C172.1 56.9675 172.219 57.2075 172.372 57.2075C172.526 57.2075 172.64 56.9921 172.64 56.5406C172.64 56.1544 172.536 55.9387 172.389 55.9387C172.278 55.9387 172.181 56.0688 172.131 56.2599L171.933 56.2069L171.991 54.6617H172.782L172.782 55.0036Z" fill="#1BAAD9"/>
<path d="M173.652 54.6132C173.556 55.3615 173.282 56.244 173.186 56.4674H173.662V55.5889C173.713 55.3897 173.736 55.2435 173.769 55.0276H173.87V56.4672H174.047V56.7643H173.87V57.4515H173.662V56.7643H172.99V56.4633C173.173 55.9305 173.34 55.2471 173.442 54.613H173.652V54.6132Z" fill="#1BAAD9"/>
<path d="M167.186 65.4485H166.547V65.0499H167.186V65.4485Z" fill="#132250"/>
<path d="M168.223 64.4153H168.012C168.012 64.0291 167.939 63.8054 167.792 63.8054C167.582 63.8054 167.531 64.212 167.528 64.8588C167.602 64.6961 167.708 64.5943 167.835 64.5943C168.129 64.5943 168.269 64.9929 168.269 65.4931C168.269 66.0505 168.076 66.3959 167.815 66.3959C167.503 66.3959 167.315 66.0665 167.315 65.0335C167.315 63.8704 167.495 63.5087 167.802 63.5087C168.099 63.5086 168.223 63.8989 168.223 64.4153ZM167.546 65.4929C167.546 65.8266 167.627 66.0991 167.802 66.0991C167.977 66.0991 168.056 65.8266 168.056 65.4929C168.056 65.1595 167.977 64.8872 167.802 64.8872C167.627 64.8872 167.546 65.1597 167.546 65.4929Z" fill="#132250"/>
<path d="M168.786 66.3471H168.532V65.9079H168.786V66.3471Z" fill="#132250"/>
<path d="M169.985 64.2323C169.985 64.9317 169.544 65.3833 169.349 65.8631C169.329 65.912 169.314 65.961 169.303 66.0055H169.993V66.3473H169.047V66.2943C169.047 66.0747 169.09 65.8717 169.169 65.6886C169.377 65.2007 169.765 64.7981 169.765 64.2287C169.765 64.0414 169.714 63.818 169.529 63.818C169.349 63.818 169.286 64.0619 169.286 64.3505V64.5175H169.07C169.07 64.5175 169.063 64.4522 169.063 64.3547C169.063 63.7571 169.281 63.5089 169.532 63.5089C169.782 63.5086 169.985 63.7198 169.985 64.2323Z" fill="#132250"/>
<path d="M171.129 64.2729C171.129 64.6023 171.032 64.7811 170.903 64.8995V64.9155C171.05 65.005 171.159 65.2287 171.159 65.5988C171.159 66.0948 170.961 66.3957 170.682 66.3957C170.366 66.3957 170.193 66.0663 170.193 65.5581V65.5255H170.406V65.5704C170.406 65.9159 170.498 66.0991 170.667 66.0991C170.832 66.0991 170.946 65.9407 170.946 65.5743C170.946 65.18 170.807 65.0783 170.66 65.0783H170.515V64.7811H170.665C170.799 64.7811 170.916 64.6226 170.916 64.2932C170.916 63.9478 170.804 63.8054 170.677 63.8054C170.538 63.8054 170.437 63.9638 170.437 64.3098V64.3464H170.224V64.2731C170.224 63.8093 170.411 63.5087 170.675 63.5087C170.946 63.5086 171.129 63.777 171.129 64.2729Z" fill="#132250"/>
<path d="M172.316 64.9521C172.316 66.0868 172.136 66.3959 171.839 66.3959C171.54 66.3959 171.363 66.0868 171.363 64.9521C171.363 63.8177 171.54 63.5086 171.839 63.5086C172.136 63.5086 172.316 63.8177 172.316 64.9521ZM171.576 64.81V65.0945C171.576 65.6761 171.631 66.0991 171.839 66.0991C172.047 66.0991 172.103 65.6761 172.103 65.0945V64.81C172.103 64.2284 172.047 63.8054 171.839 63.8054C171.631 63.8054 171.576 64.2284 171.576 64.81Z" fill="#132250"/>
<path d="M166.727 74.3193H167.12V74.661H166.727V75.5271H166.517V74.661H166.127V74.3193H166.517V73.449H166.727V74.3193Z" fill="#1BAAD9"/>
<path d="M168.269 73.4121C168.269 74.1116 167.828 74.5631 167.633 75.043C167.612 75.0916 167.597 75.1408 167.587 75.1854H168.277V75.5271H167.331V75.4742C167.331 75.2545 167.374 75.0515 167.453 74.8683C167.661 74.3804 168.048 73.9775 168.048 73.4084C168.048 73.221 167.998 72.9975 167.813 72.9975C167.633 72.9975 167.569 73.2414 167.569 73.5299V73.697H167.354C167.354 73.697 167.346 73.6317 167.346 73.5342C167.346 72.9365 167.564 72.6884 167.815 72.6884C168.066 72.6886 168.269 72.8996 168.269 73.4121Z" fill="#1BAAD9"/>
<path d="M169.413 73.4529C169.413 73.7824 169.317 73.9611 169.187 74.0793V74.0955C169.334 74.185 169.443 74.4087 169.443 74.7788C169.443 75.2749 169.246 75.5758 168.967 75.5758C168.65 75.5758 168.478 75.2463 168.478 74.7381V74.7055H168.691V74.7504C168.691 75.0959 168.782 75.2791 168.952 75.2791C169.116 75.2791 169.23 75.1205 169.23 74.7544C169.23 74.3601 169.091 74.2585 168.944 74.2585H168.799V73.9613H168.949C169.083 73.9613 169.2 73.8029 169.2 73.4734C169.2 73.128 169.088 72.9856 168.962 72.9856C168.822 72.9856 168.721 73.144 168.721 73.49V73.5266H168.508V73.4533C168.508 72.99 168.696 72.6889 168.959 72.6889C169.23 72.6886 169.413 72.9569 169.413 73.4529Z" fill="#1BAAD9"/>
<path d="M169.96 75.5271H169.707V75.0879H169.96V75.5271Z" fill="#1BAAD9"/>
<path d="M170.836 72.6886C170.739 73.4367 170.465 74.3194 170.369 74.5428H170.845V73.6645C170.896 73.4652 170.919 73.3191 170.952 73.1032H171.053V74.5428H171.231V74.8399H171.053V75.5271H170.845V74.8399H170.174V74.539C170.356 74.0062 170.524 73.3228 170.625 72.6888H170.836V72.6886Z" fill="#1BAAD9"/>
<path d="M172.304 73.4529C172.304 73.7824 172.207 73.9611 172.078 74.0793V74.0955C172.225 74.185 172.334 74.4087 172.334 74.7788C172.334 75.2749 172.136 75.5758 171.857 75.5758C171.541 75.5758 171.368 75.2463 171.368 74.7381V74.7055H171.581V74.7504C171.581 75.0959 171.672 75.2791 171.842 75.2791C172.007 75.2791 172.121 75.1205 172.121 74.7544C172.121 74.3601 171.982 74.2585 171.835 74.2585H171.69V73.9613H171.84C171.974 73.9613 172.091 73.8029 172.091 73.4734C172.091 73.128 171.979 72.9856 171.852 72.9856C171.713 72.9856 171.612 73.144 171.612 73.49V73.5266H171.399V73.4533C171.399 72.99 171.586 72.6889 171.85 72.6889C172.121 72.6886 172.304 72.9569 172.304 73.4529Z" fill="#1BAAD9"/>
<path d="M173.473 73.4121C173.473 74.1116 173.032 74.5631 172.836 75.043C172.816 75.0916 172.801 75.1408 172.791 75.1854H173.48V75.5271H172.535V75.4742C172.535 75.2545 172.578 75.0515 172.656 74.8683C172.864 74.3804 173.252 73.9775 173.252 73.4084C173.252 73.221 173.201 72.9975 173.016 72.9975C172.836 72.9975 172.773 73.2414 172.773 73.5299V73.697H172.557C172.557 73.697 172.55 73.6317 172.55 73.5342C172.55 72.9365 172.768 72.6884 173.019 72.6884C173.27 72.6886 173.473 72.8996 173.473 73.4121Z" fill="#1BAAD9"/>
<path d="M152.735 65.0499L153.085 66.3471H152.837L152.515 65.1148H152.048V66.3471H151.825V63.5572H152.525C152.867 63.5572 153.045 63.8701 153.045 64.3296C153.045 64.6758 152.93 64.944 152.735 65.0499ZM152.048 63.8825V64.7897H152.517C152.695 64.7897 152.811 64.6066 152.811 64.3298C152.811 64.0533 152.707 63.8825 152.517 63.8825H152.048Z" fill="#58595B"/>
<path d="M153.327 66.3471V63.5572H154.399V63.8824H153.55V64.7569H154.287V65.082H153.55V66.0218H154.414V66.3469H153.327V66.3471Z" fill="#58595B"/>
<path d="M155.933 64.5658H155.705C155.705 64.0779 155.555 63.838 155.327 63.838C155.023 63.838 154.876 64.1713 154.876 64.8503V65.0537C154.876 65.7328 155.023 66.0663 155.327 66.0663C155.56 66.0663 155.712 65.8307 155.712 65.3465H155.933C155.933 66.0663 155.682 66.3957 155.327 66.3957C154.876 66.3957 154.643 65.9202 154.643 64.9519C154.643 63.984 154.876 63.5084 155.327 63.5084C155.682 63.5086 155.933 63.854 155.933 64.5658Z" fill="#58595B"/>
<path d="M157.361 65.4403C157.361 66.0665 157.145 66.3957 156.788 66.3957C156.43 66.3957 156.215 66.0663 156.215 65.4403V63.5572H156.438V65.4606C156.438 65.8549 156.57 66.0663 156.788 66.0663C157.006 66.0663 157.138 65.8549 157.138 65.4606V63.5572H157.361V65.4403Z" fill="#58595B"/>
<path d="M158.626 65.0499L158.976 66.3471H158.727L158.406 65.1148H157.939V66.3471H157.716V63.5572H158.416C158.758 63.5572 158.935 63.8701 158.935 64.3296C158.935 64.6758 158.821 64.944 158.626 65.0499ZM157.939 63.8825V64.7897H158.408C158.585 64.7897 158.702 64.6066 158.702 64.3298C158.702 64.0533 158.598 63.8825 158.408 63.8825H157.939Z" fill="#58595B"/>
<path d="M160.127 65.0499L160.477 66.3471H160.229L159.907 65.1148H159.44V66.3471H159.217V63.5572H159.917C160.259 63.5572 160.436 63.8701 160.436 64.3296C160.436 64.6758 160.322 64.944 160.127 65.0499ZM159.44 63.8825V64.7897H159.909C160.087 64.7897 160.203 64.6066 160.203 64.3298C160.203 64.0533 160.099 63.8825 159.909 63.8825H159.44Z" fill="#58595B"/>
<path d="M160.942 66.3471H160.719V63.5572H160.942V66.3471Z" fill="#58595B"/>
<path d="M162.443 66.3471H162.258L161.606 64.5701C161.563 64.4519 161.495 64.1957 161.495 64.1957L161.487 64.2C161.487 64.2 161.497 64.456 161.497 64.5701V66.3471H161.297V63.5572H161.49L162.136 65.3102C162.174 65.4157 162.242 65.6842 162.242 65.6842L162.25 65.6802C162.25 65.6802 162.242 65.3997 162.242 65.3102V63.5572H162.443V66.3471Z" fill="#58595B"/>
<path d="M163.878 66.0382C163.772 66.2904 163.617 66.3959 163.429 66.3959C162.991 66.3959 162.745 65.9203 162.745 64.9521C162.745 63.9841 163.008 63.5086 163.442 63.5086C163.804 63.5086 164.073 63.8337 164.073 64.5089H163.845C163.845 64.0451 163.68 63.8378 163.442 63.8378C163.155 63.8378 162.978 64.1711 162.978 64.8501V65.0535C162.978 65.7326 163.138 66.0661 163.429 66.0661C163.718 66.0661 163.845 65.8059 163.845 65.2731V65.2082H163.394V64.895H164.073V66.3469H163.926L163.878 66.0382Z" fill="#58595B"/>
<path d="M152.048 74.3761V75.5271H151.825V72.7374H152.446C152.788 72.7374 152.966 73.0668 152.966 73.5506C152.966 74.0428 152.768 74.3763 152.446 74.3763H152.048V74.3761ZM152.048 73.0624V74.0506H152.438C152.616 74.0506 152.733 73.8513 152.733 73.5504C152.733 73.2499 152.629 73.0626 152.438 73.0626H152.048V73.0624Z" fill="#58595B"/>
<path d="M153.212 75.5271V72.7374H154.285V73.0626H153.436V73.9371H154.173V74.2622H153.436V75.2016H154.3V75.5271H153.212Z" fill="#58595B"/>
<path d="M155.745 75.5271H155.56L154.909 73.7501C154.865 73.6319 154.797 73.3758 154.797 73.3758L154.789 73.3797C154.789 73.3797 154.799 73.6362 154.799 73.7501V75.5271H154.599V72.7374H154.792L155.438 74.4902C155.476 74.5957 155.545 74.8642 155.545 74.8642L155.552 74.8604C155.552 74.8604 155.545 74.5798 155.545 74.4904V72.7376H155.745V75.5271Z" fill="#58595B"/>
<path d="M156.101 75.5271V72.7374H156.64C157.051 72.7374 157.299 73.1927 157.299 74.0914C157.299 75.0474 157.051 75.5273 156.64 75.5273H156.101V75.5271ZM156.324 73.0624V75.2014H156.62C156.894 75.2014 157.066 74.872 157.066 74.1929V73.9898C157.066 73.3676 156.894 73.0624 156.62 73.0624H156.324Z" fill="#58595B"/>
<path d="M157.825 75.5271H157.602V72.7374H157.825V75.5271Z" fill="#58595B"/>
<path d="M159.326 75.5271H159.141L158.489 73.7501C158.446 73.6319 158.377 73.3758 158.377 73.3758L158.37 73.3797C158.37 73.3797 158.38 73.6362 158.38 73.7501V75.5271H158.18V72.7374H158.372L159.019 74.4902C159.057 74.5957 159.125 74.8642 159.125 74.8642L159.133 74.8604C159.133 74.8604 159.125 74.5798 159.125 74.4904V72.7376H159.325V75.5271H159.326Z" fill="#58595B"/>
<path d="M160.761 75.218C160.655 75.4702 160.5 75.5758 160.312 75.5758C159.874 75.5758 159.628 75.1 159.628 74.1319C159.628 73.1642 159.892 72.6884 160.325 72.6884C160.688 72.6884 160.956 73.0135 160.956 73.6888H160.728C160.728 73.225 160.563 73.0178 160.325 73.0178C160.039 73.0178 159.861 73.351 159.861 74.0305V74.2335C159.861 74.9127 160.021 75.2462 160.312 75.2462C160.601 75.2462 160.728 74.9859 160.728 74.4531V74.3882H160.277V74.075H160.956V75.5269H160.809L160.761 75.218Z" fill="#58595B"/>
<path d="M177.48 54.505H177.172V58.2455H177.48V54.505Z" fill="#1BAAD9"/>
<path d="M176.326 56.3488L176.115 55.9875L177.326 54.166L178.537 55.9875L178.326 56.3488L177.326 54.8442L176.326 56.3488Z" fill="#1BAAD9"/>
<path d="M177.48 71.787H177.172V75.5275H177.48V71.787Z" fill="#1BAAD9"/>
<path d="M176.326 73.6315L176.115 73.2702L177.326 71.4478L178.537 73.2702L178.326 73.6315L177.326 72.1262L176.326 73.6315Z" fill="#1BAAD9"/>
<path d="M177.48 62.6068H177.172V66.3472H177.48V62.6068Z" fill="#132250"/>
<path d="M177.326 66.6863L176.115 64.8644L176.326 64.503L177.326 66.0078L178.326 64.503L178.537 64.8644L177.326 66.6863Z" fill="#132250"/>
<path d="M178.939 60.1453H151.648V60.249H178.939V60.1453Z" fill="#6D6E71"/>
<path d="M178.939 69.6082H151.648V69.7119H178.939V69.6082Z" fill="#6D6E71"/>
<path d="M181.333 105.919C181.333 112.478 178.019 117.795 173.93 117.795C169.842 117.795 166.528 112.478 166.528 105.919C166.528 99.3597 169.842 94.043 173.93 94.043C178.019 94.0431 181.333 99.3599 181.333 105.919Z" fill="#1BAAD9"/>
<path d="M169.419 106.396H170.016V106.915H169.419V108.232H169.099V106.915H168.505V106.396H169.099V105.073H169.419V106.396Z" fill="white"/>
<path d="M171.788 106.111C171.788 107.836 171.515 108.306 171.064 108.306C170.609 108.306 170.34 107.836 170.34 106.111C170.34 104.386 170.609 103.917 171.064 103.917C171.515 103.917 171.788 104.386 171.788 106.111ZM170.663 105.895V106.328C170.663 107.212 170.748 107.855 171.064 107.855C171.38 107.855 171.465 107.212 171.465 106.328V105.895C171.465 105.011 171.38 104.368 171.064 104.368C170.748 104.368 170.663 105.011 170.663 105.895Z" fill="white"/>
<path d="M172.575 108.232H172.189V107.564H172.575V108.232Z" fill="white"/>
<path d="M174.37 105.097C174.37 105.499 174.274 105.852 174.081 106.056C174.324 106.247 174.425 106.612 174.425 107.069C174.425 107.75 174.213 108.306 173.7 108.306C173.187 108.306 172.975 107.75 172.975 107.069C172.975 106.612 173.075 106.247 173.315 106.056C173.126 105.852 173.03 105.499 173.03 105.097C173.03 104.448 173.257 103.917 173.7 103.917C174.143 103.917 174.37 104.448 174.37 105.097ZM173.299 107.069C173.299 107.552 173.438 107.855 173.7 107.855C173.962 107.855 174.101 107.552 174.101 107.069C174.101 106.587 173.962 106.291 173.7 106.291C173.438 106.291 173.299 106.587 173.299 107.069ZM173.345 105.104C173.345 105.561 173.484 105.839 173.7 105.839C173.916 105.839 174.059 105.561 174.059 105.104C174.059 104.646 173.916 104.368 173.7 104.368C173.484 104.368 173.345 104.646 173.345 105.104Z" fill="white"/>
<path d="M176.136 105.079C176.136 105.579 175.989 105.851 175.792 106.031V106.056C176.016 106.192 176.181 106.532 176.181 107.094C176.181 107.848 175.881 108.306 175.457 108.306C174.975 108.306 174.713 107.805 174.713 107.033V106.983H175.037V107.051C175.037 107.577 175.176 107.855 175.434 107.855C175.684 107.855 175.858 107.614 175.858 107.057C175.858 106.458 175.646 106.303 175.422 106.303H175.203V105.852H175.43C175.634 105.852 175.811 105.611 175.811 105.11C175.811 104.584 175.642 104.368 175.449 104.368C175.237 104.368 175.083 104.609 175.083 105.135V105.19H174.759V105.079C174.759 104.374 175.045 103.917 175.445 103.917C175.858 103.917 176.136 104.324 176.136 105.079Z" fill="white"/>
<path d="M177.496 105.035C177.496 105.895 177.311 106.148 177.002 106.148C176.694 106.148 176.509 105.889 176.509 105.035C176.509 104.176 176.694 103.916 177.002 103.916C177.311 103.917 177.496 104.176 177.496 105.035ZM176.775 104.986V105.079C176.775 105.493 176.817 105.783 177.002 105.783C177.187 105.783 177.23 105.493 177.23 105.079V104.986C177.23 104.572 177.187 104.281 177.002 104.281C176.817 104.281 176.775 104.572 176.775 104.986ZM177.087 108.232H176.818L178.429 103.99H178.702L177.087 108.232ZM179.007 107.193C179.007 108.053 178.822 108.306 178.513 108.306C178.205 108.306 178.02 108.046 178.02 107.193C178.02 106.334 178.205 106.074 178.513 106.074C178.822 106.074 179.007 106.334 179.007 107.193ZM178.286 107.144V107.236C178.286 107.651 178.328 107.941 178.513 107.941C178.698 107.941 178.741 107.651 178.741 107.236V107.144C178.741 106.729 178.698 106.439 178.513 106.439C178.328 106.439 178.286 106.729 178.286 107.144Z" fill="white"/>
<path d="M181.333 139.163C181.333 145.722 178.019 151.039 173.93 151.039C169.842 151.039 166.528 145.722 166.528 139.163C166.528 132.604 169.842 127.287 173.93 127.287C178.019 127.287 181.333 132.604 181.333 139.163Z" fill="#132250"/>
<path d="M170.245 140.109H169.274V139.504H170.245V140.109Z" fill="white"/>
<path d="M172.303 141.024H172.881V141.476H171.359V141.024H171.987V138.007H171.355V137.686C171.571 137.649 171.933 137.47 172.18 137.234H172.303L172.303 141.024Z" fill="white"/>
<path d="M173.556 141.476H173.17V140.808H173.556V141.476Z" fill="white"/>
<path d="M175.321 137.754H174.392L174.342 139.046C174.427 138.91 174.581 138.718 174.808 138.718C175.155 138.718 175.432 139.158 175.432 140.091C175.432 141.024 175.151 141.55 174.696 141.55C174.249 141.55 173.957 141.024 173.957 140.159H174.284C174.284 140.74 174.465 141.104 174.696 141.104C174.931 141.104 175.105 140.777 175.105 140.091C175.105 139.504 174.947 139.176 174.723 139.176C174.554 139.176 174.407 139.374 174.33 139.664L174.03 139.584L174.118 137.234H175.321V137.754Z" fill="white"/>
<path d="M176.72 138.279C176.72 139.139 176.535 139.392 176.226 139.392C175.918 139.392 175.733 139.132 175.733 138.279C175.733 137.42 175.918 137.16 176.226 137.16C176.535 137.16 176.72 137.42 176.72 138.279ZM175.999 138.23V138.323C175.999 138.737 176.041 139.027 176.226 139.027C176.411 139.027 176.454 138.737 176.454 138.323V138.23C176.454 137.816 176.411 137.525 176.226 137.525C176.041 137.525 175.999 137.816 175.999 138.23ZM176.311 141.476H176.041L177.652 137.234H177.926L176.311 141.476ZM178.23 140.437C178.23 141.296 178.045 141.55 177.737 141.55C177.429 141.55 177.244 141.29 177.244 140.437C177.244 139.578 177.429 139.318 177.737 139.318C178.045 139.318 178.23 139.578 178.23 140.437ZM177.51 140.388V140.48C177.51 140.895 177.552 141.186 177.737 141.186C177.922 141.186 177.964 140.895 177.964 140.48V140.388C177.964 139.973 177.922 139.683 177.737 139.683C177.552 139.683 177.51 139.973 177.51 140.388Z" fill="white"/>
<path d="M181.333 172.407C181.333 178.966 178.019 184.283 173.93 184.283C169.842 184.283 166.528 178.966 166.528 172.407C166.528 165.848 169.842 160.531 173.93 160.531C178.019 160.531 181.333 165.848 181.333 172.407Z" fill="#E71B44"/>
<path d="M169.419 172.884H170.016V173.403H169.419V174.72H169.099V173.403H168.505V172.884H169.099V171.561H169.419V172.884Z" fill="white"/>
<path d="M171.788 172.599C171.788 174.324 171.515 174.794 171.064 174.794C170.609 174.794 170.34 174.324 170.34 172.599C170.34 170.874 170.609 170.405 171.064 170.405C171.515 170.405 171.788 170.874 171.788 172.599ZM170.663 172.383V172.816C170.663 173.7 170.748 174.343 171.064 174.343C171.38 174.343 171.465 173.7 171.465 172.816V172.383C171.465 171.499 171.38 170.856 171.064 170.856C170.748 170.856 170.663 171.499 170.663 172.383Z" fill="white"/>
<path d="M172.575 174.72H172.189V174.052H172.575V174.72Z" fill="white"/>
<path d="M173.958 174.269H174.536V174.72H173.014V174.269H173.642V171.252H173.01V170.93C173.226 170.893 173.588 170.714 173.835 170.479H173.958L173.958 174.269Z" fill="white"/>
<path d="M176.155 171.505C176.155 172.568 175.484 173.255 175.188 173.984C175.157 174.058 175.134 174.133 175.118 174.201H176.166V174.72H174.729V174.639C174.729 174.306 174.795 173.996 174.914 173.718C175.23 172.976 175.82 172.364 175.82 171.498C175.82 171.214 175.743 170.874 175.461 170.874C175.188 170.874 175.091 171.245 175.091 171.684V171.938H174.764C174.764 171.938 174.752 171.839 174.752 171.69C174.752 170.781 175.084 170.404 175.465 170.404C175.847 170.405 176.155 170.726 176.155 171.505Z" fill="white"/>
<path d="M177.496 171.524C177.496 172.383 177.311 172.636 177.002 172.636C176.694 172.636 176.509 172.377 176.509 171.524C176.509 170.664 176.694 170.405 177.002 170.405C177.311 170.405 177.496 170.664 177.496 171.524ZM176.775 171.474V171.567C176.775 171.981 176.817 172.271 177.002 172.271C177.187 172.271 177.23 171.981 177.23 171.567V171.474C177.23 171.06 177.187 170.77 177.002 170.77C176.817 170.77 176.775 171.06 176.775 171.474ZM177.087 174.72H176.818L178.429 170.479H178.702L177.087 174.72ZM179.007 173.681C179.007 174.541 178.822 174.794 178.513 174.794C178.205 174.794 178.02 174.534 178.02 173.681C178.02 172.822 178.205 172.562 178.513 172.562C178.822 172.562 179.007 172.822 179.007 173.681ZM178.286 173.632V173.724C178.286 174.139 178.328 174.43 178.513 174.43C178.698 174.43 178.741 174.139 178.741 173.724V173.632C178.741 173.218 178.698 172.927 178.513 172.927C178.328 172.927 178.286 173.218 178.286 173.632Z" fill="white"/>
<path d="M83.5571 59.7159H84.078V62.7645C84.078 63.2802 84.2368 63.5542 84.5133 63.5542C84.7901 63.5542 84.9528 63.2802 84.9528 62.7645V59.7159H85.4737V62.7906C85.4737 63.7633 85.1116 64.2722 84.5133 64.2722C83.9153 64.2722 83.5571 63.7633 83.5571 62.7906V59.7159Z" fill="#6D6E71"/>
<path d="M87.736 60.9563V61.0346H87.2028V60.9759C87.2028 60.5971 87.0605 60.3558 86.8246 60.3558C86.5723 60.3558 86.4338 60.5583 86.4338 60.8323C86.4338 61.7397 87.7888 61.2045 87.7888 62.8492C87.7888 63.8742 87.382 64.2724 86.8043 64.2724C86.2915 64.2724 85.8398 63.8023 85.8398 62.8822C85.8398 62.8299 85.844 62.7709 85.844 62.7383H86.3851C86.3851 62.7513 86.381 62.8102 86.381 62.8428C86.381 63.2668 86.5438 63.5542 86.8285 63.5542C87.1418 63.5542 87.2518 63.2866 87.2518 63.0255C87.2518 61.9615 85.8968 62.5946 85.8968 60.8909C85.8968 60.0421 86.3363 59.6376 86.8285 59.6376C87.3252 59.6378 87.736 60.0358 87.736 60.9563Z" fill="#6D6E71"/>
<path d="M89.116 64.1939V59.7159H90.0232C90.7192 59.7159 91.1423 60.4469 91.1423 61.8897C91.1423 63.4237 90.7192 64.1939 90.0232 64.1939H89.116ZM89.6367 60.4599V63.4499H89.9743C90.3609 63.4499 90.6051 62.9861 90.6051 62.0528V61.7266C90.6051 60.8843 90.3609 60.4599 89.9743 60.4599H89.6367Z" fill="#6D6E71"/>
<path d="M93.1564 62.4774C93.1564 63.711 92.8715 64.2724 92.302 64.2724C91.7323 64.2724 91.4475 63.711 91.4475 62.4774C91.4475 61.2437 91.7324 60.682 92.302 60.682C92.8715 60.682 93.1564 61.2437 93.1564 62.4774ZM91.9561 62.3531V62.6012C91.9561 63.2606 92.0496 63.6132 92.302 63.6132C92.5543 63.6132 92.6478 63.2606 92.6478 62.6012V62.3531C92.6478 61.6939 92.5543 61.3415 92.302 61.3415C92.0496 61.3415 91.9561 61.6939 91.9561 62.3531Z" fill="#6D6E71"/>
<path d="M94.0273 64.1939H93.5391V59.4742H94.0273V64.1939Z" fill="#6D6E71"/>
<path d="M94.955 64.1939H94.4668V59.4742H94.955V64.1939Z" fill="#6D6E71"/>
<path d="M96.786 61.6939V63.3843C96.786 63.5478 96.8432 63.613 96.8999 63.613H96.9977V64.1679C96.9448 64.2135 96.8554 64.272 96.7088 64.272C96.5134 64.272 96.379 64.0893 96.3304 63.8216H96.31C96.188 64.0959 96.0538 64.272 95.7689 64.272C95.5695 64.272 95.2319 64.1023 95.2319 63.3061C95.2319 62.3793 95.6712 62.105 96.2939 62.105V61.7458C96.2939 61.5112 96.2572 61.3217 96.07 61.3217C95.8706 61.3217 95.8138 61.5175 95.8138 61.6806V61.7788H95.3376C95.3337 61.7396 95.3337 61.6939 95.3337 61.6349C95.3337 61.0608 95.6184 60.6818 96.0579 60.6818C96.5543 60.682 96.786 61.0542 96.786 61.6939ZM96.2938 62.6731C96.0089 62.6731 95.732 62.7905 95.732 63.2344C95.732 63.4695 95.8053 63.6196 95.9722 63.6196C96.2042 63.6196 96.2938 63.2738 96.2938 62.869V62.6731Z" fill="#6D6E71"/>
<path d="M98.3161 60.7342V61.4916H98.141C97.9296 61.4916 97.7424 61.6743 97.7424 62.2813V64.1941H97.2542V60.7604H97.6608L97.7179 61.2631H97.7424C97.7993 60.9761 97.8969 60.6822 98.1126 60.6822C98.2388 60.682 98.3161 60.7342 98.3161 60.7342Z" fill="#6D6E71"/>
<path d="M102.404 63.5444H103.015V64.0207H101.407V63.5444H102.071V60.3586H101.403V60.0191C101.631 59.9802 102.014 59.7907 102.274 59.5428H102.404V63.5444Z" fill="black"/>
<path d="M105.183 62.5651C105.183 63.5704 104.837 64.0991 104.264 64.0991C103.69 64.0991 103.344 63.5704 103.344 62.5651V59.5428H103.702V62.5977C103.702 63.2308 103.914 63.5704 104.264 63.5704C104.614 63.5704 104.825 63.2308 104.825 62.5977V59.5428H105.183L105.183 62.5651Z" fill="black"/>
<path d="M107.454 60.7241V60.8027H107.084V60.7045C107.084 60.2478 106.868 59.9931 106.587 59.9931C106.294 59.9931 106.071 60.1888 106.071 60.62C106.071 61.6902 107.519 61.1549 107.519 62.7282C107.519 63.7335 107.116 64.0991 106.575 64.0991C106.067 64.0991 105.635 63.7403 105.635 62.7546C105.635 62.7089 105.639 62.6433 105.639 62.6241H106.01C106.01 62.6303 106.005 62.7219 106.005 62.761C106.005 63.3096 106.241 63.5706 106.559 63.5706C106.933 63.5706 107.145 63.3096 107.145 62.8262C107.145 61.697 105.692 62.2847 105.692 60.6658C105.692 59.8431 106.091 59.4647 106.579 59.4647C107.064 59.4644 107.454 59.8299 107.454 60.7241Z" fill="black"/>
<path d="M107.979 64.0207V59.5426H108.846C109.505 59.5426 109.904 60.2736 109.904 61.7164C109.904 63.2503 109.505 64.0207 108.846 64.0207H107.979ZM108.337 60.0651V63.4986H108.813C109.253 63.4986 109.53 62.9699 109.53 61.8797V61.5535C109.53 60.5544 109.253 60.0651 108.813 60.0651H108.337Z" fill="black"/>
<path d="M125.55 59.8955C125.55 60.4246 125.395 60.7114 125.188 60.9009V60.9269C125.424 61.0708 125.599 61.4296 125.599 62.0239C125.599 62.8201 125.281 63.3032 124.834 63.3032C124.325 63.3032 124.048 62.7745 124.048 61.9587V61.9064H124.39V61.9783C124.39 62.5328 124.537 62.8267 124.809 62.8267C125.074 62.8267 125.257 62.572 125.257 61.9845C125.257 61.3513 125.033 61.1882 124.797 61.1882H124.565V60.7116H124.805C125.021 60.7116 125.208 60.4572 125.208 59.9283C125.208 59.3734 125.029 59.1451 124.826 59.1451C124.602 59.1451 124.439 59.3998 124.439 59.9547V60.0134H124.097V59.8959C124.097 59.1519 124.399 58.6688 124.822 58.6688C125.257 58.6685 125.55 59.0993 125.55 59.8955Z" fill="black"/>
<path d="M127.426 59.8303C127.426 60.9531 126.718 61.6779 126.404 62.4478C126.372 62.5264 126.348 62.6046 126.331 62.6765H127.438V63.2248H125.92V63.1399C125.92 62.7874 125.99 62.4612 126.116 62.1672C126.449 61.384 127.072 60.7378 127.072 59.8239C127.072 59.5234 126.991 59.1645 126.694 59.1645C126.405 59.1645 126.303 59.5563 126.303 60.0198V60.2875H125.957C125.957 60.2875 125.945 60.1829 125.945 60.0262C125.945 59.0669 126.295 58.6686 126.698 58.6686C127.1 58.6685 127.426 59.0077 127.426 59.8303Z" fill="black"/>
<path d="M128.285 63.2248H127.878V62.5198H128.285V63.2248Z" fill="black"/>
<path d="M130.181 59.9152C130.181 60.3396 130.079 60.7114 129.876 60.9267C130.132 61.1292 130.238 61.5143 130.238 61.9973C130.238 62.7153 130.014 63.3029 129.473 63.3029C128.932 63.3029 128.708 62.7153 128.708 61.9973C128.708 61.5143 128.814 61.1291 129.066 60.9267C128.866 60.7114 128.765 60.3396 128.765 59.9152C128.765 59.2298 129.005 58.6685 129.473 58.6685C129.941 58.6685 130.181 59.2298 130.181 59.9152ZM129.05 61.9975C129.05 62.5068 129.196 62.8267 129.473 62.8267C129.749 62.8267 129.896 62.5068 129.896 61.9975C129.896 61.4886 129.75 61.1752 129.473 61.1752C129.196 61.1752 129.05 61.4884 129.05 61.9975ZM129.099 59.9219C129.099 60.405 129.245 60.6986 129.473 60.6986C129.701 60.6986 129.851 60.405 129.851 59.9219C129.851 59.4389 129.701 59.1449 129.473 59.1449C129.245 59.1449 129.099 59.4389 129.099 59.9219Z" fill="black"/>
<path d="M132.036 59.9152C132.036 60.3396 131.935 60.7114 131.731 60.9267C131.988 61.1292 132.093 61.5143 132.093 61.9973C132.093 62.7153 131.87 63.3029 131.328 63.3029C130.787 63.3029 130.563 62.7153 130.563 61.9973C130.563 61.5143 130.669 61.1291 130.921 60.9267C130.722 60.7114 130.62 60.3396 130.62 59.9152C130.62 59.2298 130.86 58.6685 131.328 58.6685C131.796 58.6685 132.036 59.2298 132.036 59.9152ZM130.905 61.9975C130.905 62.5068 131.052 62.8267 131.328 62.8267C131.605 62.8267 131.751 62.5068 131.751 61.9975C131.751 61.4886 131.605 61.1752 131.328 61.1752C131.051 61.1752 130.905 61.4884 130.905 61.9975ZM130.954 59.9219C130.954 60.405 131.1 60.6986 131.328 60.6986C131.556 60.6986 131.707 60.405 131.707 59.9219C131.707 59.4389 131.556 59.1449 131.328 59.1449C131.1 59.1449 130.954 59.4389 130.954 59.9219Z" fill="black"/>
<path d="M133.978 59.0927C133.595 60.0198 133.115 61.443 133.115 62.892C133.115 63.0162 133.115 63.0681 133.119 63.225H132.741C132.741 61.6843 133.196 60.2285 133.558 59.2952H132.391V58.7469H133.978L133.978 59.0927Z" fill="black"/>
<path d="M135.731 60.1242H135.394C135.394 59.5041 135.276 59.1449 135.04 59.1449C134.702 59.1449 134.621 59.7977 134.617 60.8357C134.734 60.5747 134.905 60.4112 135.109 60.4112C135.581 60.4112 135.805 61.051 135.805 61.854C135.805 62.7485 135.495 63.303 135.076 63.303C134.576 63.303 134.275 62.7743 134.275 61.1162C134.275 59.2494 134.564 58.6685 135.056 58.6685C135.532 58.6685 135.731 59.295 135.731 60.1242ZM134.645 61.854C134.645 62.3893 134.775 62.8267 135.056 62.8267C135.337 62.8267 135.463 62.3893 135.463 61.854C135.463 61.3187 135.337 60.8813 135.056 60.8813C134.775 60.8813 134.645 61.3187 134.645 61.854Z" fill="black"/>
<path d="M140.096 58.4476H140.497V58.7966H140.096V59.6816H139.881V58.7966H139.482V58.4476H139.881V57.5586H140.096V58.4476Z" fill="#808285"/>
<path d="M141.689 58.2567C141.689 59.4157 141.505 59.7314 141.202 59.7314C140.896 59.7314 140.715 59.4157 140.715 58.2567C140.715 57.0973 140.896 56.7816 141.202 56.7816C141.505 56.7816 141.689 57.0973 141.689 58.2567ZM140.933 58.1112V58.402C140.933 58.9963 140.989 59.4283 141.202 59.4283C141.414 59.4283 141.471 58.9961 141.471 58.402V58.1112C141.471 57.5169 141.414 57.0852 141.202 57.0852C140.989 57.085 140.933 57.5169 140.933 58.1112Z" fill="#808285"/>
<path d="M142.217 59.6816H141.958V59.233H142.217V59.6816Z" fill="#808285"/>
<path d="M143.147 59.3781H143.535V59.6815H142.512V59.3781H142.935V57.351H142.51V57.1349C142.655 57.11 142.898 56.9893 143.064 56.8316H143.147V59.3781Z" fill="#808285"/>
<path d="M144.66 57.0517C144.416 57.6417 144.111 58.5474 144.111 59.4697C144.111 59.5487 144.111 59.582 144.113 59.6816H143.872C143.872 58.7013 144.162 57.7749 144.393 57.1806H143.65V56.8316H144.66V57.0517Z" fill="#808285"/>
<path d="M145.792 57.5629C145.792 57.8993 145.693 58.082 145.561 58.2027V58.2191C145.711 58.3107 145.823 58.539 145.823 58.9171C145.823 59.4241 145.621 59.7312 145.336 59.7312C145.012 59.7312 144.836 59.3948 144.836 58.8752V58.8423H145.054V58.8879C145.054 59.2412 145.147 59.4282 145.32 59.4282C145.489 59.4282 145.605 59.2661 145.605 58.8922C145.605 58.4891 145.463 58.3852 145.313 58.3852H145.165V58.0818H145.318C145.455 58.0818 145.574 57.9198 145.574 57.5834C145.574 57.2301 145.46 57.085 145.331 57.085C145.188 57.085 145.085 57.2471 145.085 57.6V57.6376H144.867V57.5629C144.867 57.0893 145.059 56.7816 145.328 56.7816C145.605 56.7816 145.792 57.056 145.792 57.5629Z" fill="#808285"/>
<path d="M146.957 57.708H146.742C146.742 57.3134 146.667 57.085 146.517 57.085C146.302 57.085 146.25 57.5004 146.248 58.1608C146.323 57.9945 146.431 57.8907 146.561 57.8907C146.861 57.8907 147.004 58.298 147.004 58.8091C147.004 59.3781 146.807 59.7314 146.54 59.7314C146.222 59.7314 146.03 59.395 146.03 58.3394C146.03 57.1513 146.214 56.7816 146.527 56.7816C146.83 56.7816 146.957 57.1806 146.957 57.708ZM146.266 58.8091C146.266 59.1497 146.349 59.4283 146.527 59.4283C146.706 59.4283 146.786 59.1497 146.786 58.8091C146.786 58.4685 146.706 58.19 146.527 58.19C146.348 58.19 146.266 58.4686 146.266 58.8091Z" fill="#808285"/>
<path d="M140.448 62.7692C140.448 63.9282 140.264 64.2438 139.961 64.2438C139.656 64.2438 139.474 63.9282 139.474 62.7692C139.474 61.6098 139.656 61.2941 139.961 61.2941C140.264 61.2941 140.448 61.6098 140.448 62.7692ZM139.692 62.6235V62.9143C139.692 63.5086 139.749 63.9406 139.961 63.9406C140.173 63.9406 140.23 63.5086 140.23 62.9143V62.6235C140.23 62.0292 140.173 61.5975 139.961 61.5975C139.749 61.5975 139.692 62.0294 139.692 62.6235Z" fill="#726658"/>
<path d="M140.976 64.1939H140.718V63.7453H140.976V64.1939Z" fill="#726658"/>
<path d="M142.163 61.6929H141.539L141.505 62.561C141.562 62.4697 141.665 62.341 141.818 62.341C142.051 62.341 142.238 62.636 142.238 63.2633C142.238 63.8906 142.049 64.2437 141.743 64.2437C141.443 64.2437 141.246 63.8904 141.246 63.3089H141.466C141.466 63.6996 141.588 63.9446 141.743 63.9446C141.901 63.9446 142.018 63.7246 142.018 63.2633C142.018 62.8686 141.912 62.6483 141.761 62.6483C141.648 62.6483 141.549 62.7813 141.497 62.9767L141.295 62.9226L141.355 61.3439H142.163L142.163 61.6929Z" fill="#726658"/>
<path d="M143.37 62.0752C143.37 62.4116 143.271 62.5943 143.139 62.715V62.7314C143.29 62.823 143.401 63.0513 143.401 63.4294C143.401 63.9364 143.199 64.2437 142.914 64.2437C142.59 64.2437 142.414 63.9073 142.414 63.3877V63.3547H142.632V63.4004C142.632 63.7537 142.725 63.9406 142.898 63.9406C143.067 63.9406 143.183 63.7786 143.183 63.4046C143.183 63.0016 143.041 62.8977 142.891 62.8977H142.743V62.5943H142.896C143.033 62.5943 143.152 62.4323 143.152 62.0959C143.152 61.7426 143.038 61.5975 142.909 61.5975C142.766 61.5975 142.663 61.7595 142.663 62.1125V62.1501H142.445V62.0754C142.445 61.6018 142.637 61.2941 142.906 61.2941C143.183 61.2941 143.37 61.5684 143.37 62.0752Z" fill="#726658"/>
<path d="M144.284 62.0462C144.284 62.6235 144.16 62.7941 143.953 62.7941C143.745 62.7941 143.621 62.6194 143.621 62.0462C143.621 61.4684 143.745 61.2941 143.953 61.2941C144.16 61.2941 144.284 61.4684 144.284 62.0462ZM143.8 62.0128V62.0752C143.8 62.3535 143.828 62.5488 143.952 62.5488C144.077 62.5488 144.105 62.3535 144.105 62.0752V62.0128C144.105 61.7342 144.077 61.5392 143.952 61.5392C143.828 61.5394 143.8 61.7344 143.8 62.0128ZM144.01 64.1939H143.828L144.911 61.3438H145.095L144.01 64.1939ZM145.299 63.4959C145.299 64.0736 145.175 64.2437 144.968 64.2437C144.76 64.2437 144.636 64.0693 144.636 63.4959C144.636 62.9185 144.761 62.7442 144.968 62.7442C145.175 62.7442 145.299 62.9185 145.299 63.4959ZM144.815 63.4629V63.525C144.815 63.8036 144.843 63.9986 144.968 63.9986C145.092 63.9986 145.121 63.8036 145.121 63.525V63.4629C145.121 63.1843 145.092 62.9889 144.968 62.9889C144.843 62.9891 144.815 63.1845 144.815 63.4629Z" fill="#726658"/>
<path d="M83.553 76.4278V71.9497H85.3311V72.6938H84.0739V73.7644H85.1521V74.5087H84.0739V75.6838H85.3556V76.4278H83.553Z" fill="#6D6E71"/>
<path d="M87.3494 76.4278H86.9425L86.8938 76.0034H86.8693C86.7593 76.271 86.5844 76.5061 86.3281 76.5061C85.9984 76.5061 85.7585 76.2125 85.7585 75.4029V72.9941H86.2468V75.1875C86.2468 75.6316 86.3443 75.7947 86.5275 75.7947C86.7187 75.7947 86.8612 75.5073 86.8612 75.1223V72.9941H87.3494V76.4278Z" fill="#6D6E71"/>
<path d="M88.8593 72.9681V73.7255H88.6841C88.4727 73.7255 88.2856 73.9082 88.2856 74.5152V76.428H87.7974V72.9943H88.204L88.2611 73.497H88.2856C88.3425 73.21 88.4401 72.916 88.6558 72.916C88.7819 72.9159 88.8593 72.9681 88.8593 72.9681Z" fill="#6D6E71"/>
<path d="M90.747 74.7111C90.747 75.9448 90.4621 76.5061 89.8925 76.5061C89.323 76.5061 89.0381 75.9448 89.0381 74.7111C89.0381 73.4774 89.323 72.9159 89.8925 72.9159C90.4621 72.9159 90.747 73.4776 90.747 74.7111ZM89.5465 74.587V74.8349C89.5465 75.4945 89.6401 75.8469 89.8924 75.8469C90.1447 75.8469 90.2383 75.4943 90.2383 74.8349V74.587C90.2383 73.928 90.1447 73.5754 89.8924 73.5754C89.6402 73.5754 89.5465 73.9278 89.5465 74.587Z" fill="#6D6E71"/>
<path d="M102.404 75.2815H103.015V75.7578H101.407V75.2815H102.071V72.0957H101.403V71.7562C101.631 71.7173 102.014 71.5278 102.274 71.2799H102.404V75.2815Z" fill="black"/>
<path d="M103.344 75.7579V71.2799H105.065V71.8021H103.702V73.2057H104.886V73.7276H103.702V75.2357H105.09V75.7579H103.344Z" fill="black"/>
<path d="M107.409 74.3021C107.409 75.3075 107.064 75.836 106.49 75.836C105.916 75.836 105.57 75.3073 105.57 74.3021V71.2799H105.928V74.3348C105.928 74.9679 106.14 75.3075 106.49 75.3075C106.84 75.3075 107.051 74.9679 107.051 74.3348V71.2799H107.409V74.3021H107.409Z" fill="black"/>
<path d="M109.44 73.6756L110.002 75.7578H109.603L109.086 73.7797H108.337V75.7578H107.979V71.2799H109.102C109.651 71.2799 109.936 71.7825 109.936 72.5201C109.936 73.0751 109.753 73.5059 109.44 73.6756ZM108.337 71.8021V73.2579H109.09C109.375 73.2579 109.562 72.964 109.562 72.5203C109.562 72.0763 109.395 71.8023 109.09 71.8023H108.337V71.8021Z" fill="black"/>
<path d="M125.05 69.8752C124.895 71.0763 124.455 72.4927 124.301 72.8519H125.066V71.4417C125.147 71.1218 125.184 70.8868 125.237 70.541H125.4V72.8521H125.684V73.3283H125.4V74.4316H125.066V73.3283H123.988V72.8453C124.281 71.99 124.549 70.8936 124.712 69.8752H125.05Z" fill="black"/>
<path d="M127.426 71.0371C127.426 72.1599 126.718 72.8847 126.405 73.6546C126.372 73.7332 126.348 73.8114 126.331 73.8833H127.438V74.4316H125.92V74.3467C125.92 73.9941 125.99 73.6679 126.116 73.374C126.449 72.5907 127.072 71.9446 127.072 71.0308C127.072 70.7301 126.991 70.3713 126.694 70.3713C126.405 70.3713 126.303 70.7631 126.303 71.2266V71.4943H125.957C125.957 71.4943 125.945 71.3899 125.945 71.233C125.945 70.2736 126.295 69.8754 126.697 69.8754C127.1 69.8754 127.426 70.2144 127.426 71.0371Z" fill="black"/>
<path d="M128.285 74.4316H127.878V73.7266H128.285V74.4316Z" fill="black"/>
<path d="M130.238 72.062C130.238 73.9289 129.953 74.5098 129.473 74.5098C128.985 74.5098 128.781 73.8833 128.781 73.054H129.119C129.119 73.6742 129.241 74.0333 129.489 74.0333C129.815 74.0333 129.888 73.3806 129.896 72.3492C129.774 72.6102 129.607 72.767 129.404 72.767C128.932 72.767 128.708 72.1273 128.708 71.3242C128.708 70.4298 129.017 69.8752 129.436 69.8752C129.937 69.8752 130.238 70.4039 130.238 72.062ZM129.05 71.3244C129.05 71.8597 129.176 72.2972 129.456 72.2972C129.737 72.2972 129.868 71.8597 129.868 71.3244C129.868 70.7891 129.737 70.3517 129.456 70.3517C129.176 70.3517 129.05 70.7891 129.05 71.3244Z" fill="black"/>
<path d="M132.036 71.1219C132.036 71.5463 131.935 71.9182 131.731 72.1335C131.988 72.3358 132.093 72.721 132.093 73.2041C132.093 73.9221 131.869 74.5096 131.328 74.5096C130.787 74.5096 130.563 73.9221 130.563 73.2041C130.563 72.721 130.669 72.3358 130.921 72.1335C130.722 71.9182 130.62 71.5463 130.62 71.1219C130.62 70.4365 130.86 69.8752 131.328 69.8752C131.796 69.8752 132.036 70.4365 132.036 71.1219ZM130.905 73.2043C130.905 73.7136 131.052 74.0335 131.328 74.0335C131.605 74.0335 131.752 73.7136 131.752 73.2043C131.752 72.6954 131.605 72.382 131.328 72.382C131.052 72.382 130.905 72.6952 130.905 73.2043ZM130.954 71.1287C130.954 71.6118 131.101 71.9054 131.328 71.9054C131.556 71.9054 131.707 71.6118 131.707 71.1287C131.707 70.6456 131.556 70.3517 131.328 70.3517C131.101 70.3517 130.954 70.6456 130.954 71.1287Z" fill="black"/>
<path d="M133.4 69.8752C133.245 71.0763 132.806 72.4927 132.651 72.8519H133.416V71.4417C133.497 71.1218 133.534 70.8868 133.587 70.541H133.75V72.8521H134.034V73.3283H133.75V74.4316H133.416V73.3283H132.338V72.8453C132.631 71.99 132.899 70.8936 133.062 69.8752H133.4Z" fill="black"/>
<path d="M135.312 73.9553H135.922V74.4316H134.315V73.9553H134.979V70.7695H134.311V70.4299C134.539 70.3909 134.921 70.2016 135.182 69.9535H135.312V73.9553Z" fill="black"/>
<path d="M140.096 69.2699H140.497V69.6189H140.096V70.5039H139.881V69.6189H139.482V69.2699H139.881V68.3809H140.096V69.2699Z" fill="#808285"/>
<path d="M141.689 69.079C141.689 70.238 141.505 70.5537 141.202 70.5537C140.896 70.5537 140.715 70.238 140.715 69.079C140.715 67.9196 140.896 67.6039 141.202 67.6039C141.505 67.6039 141.689 67.9196 141.689 69.079ZM140.933 68.9335V69.2242C140.933 69.8185 140.989 70.2506 141.202 70.2506C141.414 70.2506 141.471 69.8184 141.471 69.2242V68.9335C141.471 68.3392 141.414 67.9075 141.202 67.9075C140.989 67.9073 140.933 68.3392 140.933 68.9335Z" fill="#808285"/>
<path d="M142.217 70.5039H141.958V70.0553H142.217V70.5039Z" fill="#808285"/>
<path d="M143.46 69.079C143.46 70.238 143.276 70.5537 142.973 70.5537C142.668 70.5537 142.487 70.238 142.487 69.079C142.487 67.9196 142.668 67.6039 142.973 67.6039C143.276 67.6039 143.46 67.9196 143.46 69.079ZM142.704 68.9335V69.2242C142.704 69.8185 142.761 70.2506 142.973 70.2506C143.186 70.2506 143.243 69.8184 143.243 69.2242V68.9335C143.243 68.3392 143.186 67.9075 142.973 67.9075C142.761 67.9073 142.704 68.3392 142.704 68.9335Z" fill="#808285"/>
<path d="M144.328 70.2004H144.716V70.5038H143.694V70.2004H144.116V68.1733H143.691V67.9572C143.836 67.9323 144.079 67.8116 144.245 67.6538H144.328V70.2004Z" fill="#808285"/>
<path d="M145.473 67.6039C145.375 68.3683 145.095 69.2697 144.997 69.4986H145.483V68.6013C145.535 68.3975 145.558 68.248 145.592 68.0278H145.696V69.4986H145.877V69.8016H145.696V70.5039H145.483V69.8016H144.797V69.4943C144.984 68.9499 145.154 68.2522 145.258 67.6039H145.473Z" fill="#808285"/>
<path d="M146.973 68.3852C146.973 68.7216 146.874 68.9045 146.742 69.0251V69.0417C146.892 69.1332 147.004 69.3617 147.004 69.7398C147.004 70.2467 146.802 70.554 146.517 70.554C146.193 70.554 146.017 70.2177 146.017 69.6981V69.6651H146.234V69.7107C146.234 70.064 146.328 70.2508 146.501 70.2508C146.67 70.2508 146.786 70.0888 146.786 69.7148C146.786 69.3118 146.644 69.2079 146.494 69.2079H146.346V68.9045H146.499C146.636 68.9045 146.755 68.7424 146.755 68.4061C146.755 68.0528 146.641 67.9077 146.512 67.9077C146.369 67.9077 146.266 68.0697 146.266 68.4226V68.4603H146.048V68.3856C146.048 67.912 146.24 67.6045 146.509 67.6045C146.786 67.6039 146.973 67.8783 146.973 68.3852Z" fill="#808285"/>
<path d="M140.448 73.3301C140.448 74.4891 140.264 74.8048 139.961 74.8048C139.656 74.8048 139.474 74.4891 139.474 73.3301C139.474 72.1708 139.656 71.8551 139.961 71.8551C140.264 71.8551 140.448 72.1708 140.448 73.3301ZM139.692 73.1845V73.4752C139.692 74.0695 139.749 74.5016 139.961 74.5016C140.173 74.5016 140.23 74.0695 140.23 73.4752V73.1845C140.23 72.5902 140.173 72.1585 139.961 72.1585C139.749 72.1585 139.692 72.5904 139.692 73.1845Z" fill="#726658"/>
<path d="M140.976 74.7551H140.718V74.3064H140.976V74.7551Z" fill="#726658"/>
<path d="M142.22 73.3301C142.22 74.4891 142.036 74.8048 141.733 74.8048C141.427 74.8048 141.246 74.4891 141.246 73.3301C141.246 72.1708 141.427 71.8551 141.733 71.8551C142.036 71.8551 142.22 72.1708 142.22 73.3301ZM141.464 73.1845V73.4752C141.464 74.0695 141.52 74.5016 141.733 74.5016C141.945 74.5016 142.002 74.0695 142.002 73.4752V73.1845C142.002 72.5902 141.945 72.1585 141.733 72.1585C141.52 72.1585 141.464 72.5904 141.464 73.1845Z" fill="#726658"/>
<path d="M143.37 72.6364C143.37 72.9727 143.271 73.1556 143.139 73.2761V73.2925C143.29 73.3841 143.401 73.6125 143.401 73.9906C143.401 74.4975 143.199 74.8048 142.914 74.8048C142.59 74.8048 142.414 74.4685 142.414 73.9489V73.9159H142.632V73.9615C142.632 74.3148 142.725 74.5018 142.898 74.5018C143.067 74.5018 143.183 74.3398 143.183 73.9658C143.183 73.5628 143.041 73.4588 142.891 73.4588H142.743V73.1554H142.896C143.033 73.1554 143.152 72.9934 143.152 72.6571C143.152 72.3038 143.038 72.1587 142.909 72.1587C142.766 72.1587 142.663 72.3207 142.663 72.6736V72.7112H142.445V72.6366C142.445 72.1626 142.637 71.8553 142.906 71.8553C143.183 71.8551 143.37 72.1294 143.37 72.6364Z" fill="#726658"/>
<path d="M144.284 72.6071C144.284 73.1845 144.16 73.3549 143.953 73.3549C143.745 73.3549 143.621 73.1802 143.621 72.6071C143.621 72.0298 143.745 71.8551 143.953 71.8551C144.16 71.8551 144.284 72.0298 144.284 72.6071ZM143.8 72.5738V72.6362C143.8 72.9144 143.828 73.1096 143.952 73.1096C144.077 73.1096 144.105 72.9143 144.105 72.6362V72.5738C144.105 72.2957 144.077 72.1004 143.952 72.1004C143.828 72.1004 143.8 72.2957 143.8 72.5738ZM144.01 74.7551H143.828L144.911 71.905H145.095L144.01 74.7551ZM145.299 74.0569C145.299 74.6346 145.175 74.8048 144.968 74.8048C144.76 74.8048 144.636 74.6305 144.636 74.0569C144.636 73.4795 144.761 73.3052 144.968 73.3052C145.175 73.3052 145.299 73.4795 145.299 74.0569ZM144.815 74.0237V74.0861C144.815 74.3647 144.843 74.5597 144.968 74.5597C145.092 74.5597 145.121 74.3647 145.121 74.0861V74.0237C145.121 73.7455 145.092 73.5501 144.968 73.5501C144.843 73.5501 144.815 73.7455 144.815 74.0237Z" fill="#726658"/>
<path d="M118.845 59.718L117.446 63.2248L116.047 59.718H118.845Z" fill="#132250"/>
<path d="M116.009 74.4316L117.447 70.8276L118.884 74.4316H116.009Z" fill="#1BAAD9"/>
<path d="M188.889 22.1455H11.1111V38.262H188.889V22.1455Z" fill="#41E5B2"/>
<path d="M57.8011 49.7184H54.3079V12.3788H64.2515V18.0362H57.8011V28.2198H62.5142V33.8772H57.8011V49.7184Z" fill="#132250"/>
<path d="M70.7979 49.7184H67.3047V12.4082H70.7979V49.7184Z" fill="#132250"/>
<path d="M78.4936 12.3788L83.1292 37.4733V12.3788H86.6224V49.7184H82.8706L78.065 25.8077V49.7184H74.5718V12.3788H78.4936Z" fill="#132250"/>
<path d="M94.679 41.1428L93.8302 49.7184H90.1929L94.1299 12.4082H98.935L102.816 49.7184H99.1433L98.326 41.1428H94.679ZM96.5139 20.9542L95.2201 35.6638H97.8077L96.5139 20.9542Z" fill="#132250"/>
<path d="M110.327 12.3788L114.963 37.4733V12.3788H118.456V49.7184H114.704L109.899 25.8077V49.7184H106.406V12.3788H110.327Z" fill="#132250"/>
<path d="M127.719 50.1947C126.179 50.1947 124.87 49.3266 123.792 47.5895C122.713 45.8524 122.174 43.7533 122.174 41.2916V20.9244C122.174 18.4433 122.716 16.334 123.801 14.597C124.885 12.8599 126.191 11.9914 127.719 11.9914C129.259 11.9914 130.565 12.8652 131.638 14.6118C132.71 16.3586 133.246 18.4633 133.246 20.9244V25.1825H129.623V20.8052C129.623 19.9121 129.426 19.1481 129.032 18.5125C128.637 17.8775 128.163 17.5597 127.608 17.5597C127.054 17.5597 126.583 17.8775 126.194 18.5125C125.806 19.1481 125.612 19.9121 125.612 20.8052V41.2319C125.612 42.1253 125.806 42.8848 126.194 43.5098C126.583 44.1353 127.054 44.4478 127.608 44.4478C128.163 44.4478 128.637 44.1353 129.032 43.5098C129.426 42.8847 129.623 42.1253 129.623 41.2319V36.0806H133.246V41.2914C133.246 43.7733 132.703 45.8772 131.619 47.6041C130.534 49.331 129.235 50.1947 127.719 50.1947Z" fill="#132250"/>
<path d="M136.76 49.7184V12.3788H146.704V18.0362H140.253V28.2198H144.966V33.8772H140.253V44.0611H146.704V49.7185L136.76 49.7184Z" fill="#132250"/>
</g>
<defs>
<clipPath id="clip0_4_3082">
<rect width="200" height="200" fill="white"/>
</clipPath>
</defs>
</svg>
