<svg width="150" height="150" viewBox="0 0 150 150" fill="none" xmlns="http://www.w3.org/2000/svg">
<g clip-path="url(#clip0_4_3077)">
<path fill-rule="evenodd" clip-rule="evenodd" d="M68.2212 102.26C67.6999 102.242 67.1876 102.118 66.7162 101.895C66.2448 101.672 65.8243 101.354 65.4808 100.962L30.4327 66.0577C30.0612 65.7041 29.7649 65.2791 29.5617 64.8082C29.3585 64.3373 29.2525 63.8302 29.2501 63.3173C29.2513 62.8085 29.357 62.3054 29.5604 61.839C29.7638 61.3726 30.0607 60.9529 30.4327 60.6058L35.8847 54.8365C36.2548 54.447 36.7032 54.1403 37.2004 53.9364C37.6976 53.7326 38.2322 53.6363 38.7693 53.6539C39.2781 53.6551 39.7812 53.7607 40.2476 53.9642C40.714 54.1676 41.1337 54.4645 41.4808 54.8365L55.9039 69.2596C56.2722 69.6132 56.7357 69.8516 57.2374 69.9458C57.7392 70.04 58.2576 69.9858 58.729 69.7898C59.2005 69.5939 59.6046 69.2648 59.8918 68.8427C60.179 68.4206 60.3369 67.9239 60.3462 67.4135V12.5481C60.3676 11.5319 60.777 10.5624 61.4903 9.8383C62.2037 9.11423 63.167 8.69046 64.1828 8.65385H72.1154C73.1418 8.7499 74.1071 9.18469 74.8591 9.88975C75.6112 10.5948 76.1073 11.53 76.2693 12.5481V67.8173C76.284 68.3253 76.4458 68.8181 76.7352 69.236C77.0245 69.6538 77.4289 69.9786 77.8993 70.171C78.3697 70.3635 78.8858 70.4152 79.385 70.32C79.8842 70.2248 80.3451 69.9867 80.7116 69.6346L95.1347 55.2115C95.4848 54.845 95.9056 54.5533 96.3717 54.354C96.8377 54.1547 97.3393 54.0519 97.8462 54.0519C98.3531 54.0519 98.8547 54.1547 99.3208 54.354C99.7868 54.5533 100.208 54.845 100.558 55.2115L105.981 60.5769C106.353 60.93 106.649 61.355 106.851 61.8261C107.053 62.2972 107.158 62.8046 107.158 63.3173C107.158 63.83 107.053 64.3374 106.851 64.8085C106.649 65.2796 106.353 65.7047 105.981 66.0577L70.9327 100.962C70.5959 101.355 70.1808 101.673 69.7139 101.897C69.247 102.12 68.7386 102.244 68.2212 102.26ZM79.7597 117.606C80.1621 123.124 81.8091 128.479 84.577 133.269H16.1539C13.3997 133.269 10.7584 132.175 8.81087 130.228C6.86338 128.28 5.76929 125.639 5.76929 122.885V87.75C5.79834 86.7264 6.21795 85.7527 6.94206 85.0285C7.66617 84.3044 8.63989 83.8848 9.66352 83.8558H17.4808C18.5067 83.8778 19.4845 84.2952 20.21 85.0208C20.9356 85.7464 21.353 86.7241 21.3751 87.75V113.712C21.3968 114.733 21.8102 115.706 22.5296 116.431C23.2491 117.156 24.2196 117.576 25.2404 117.606H79.7597ZM88.8751 114.721C88.8751 109.244 90.4992 103.89 93.5421 99.3361C96.5849 94.7822 100.91 91.2328 105.97 89.1368C111.03 87.0408 116.598 86.4924 121.97 87.561C127.342 88.6295 132.276 91.2669 136.149 95.1397C140.022 99.0126 142.659 103.947 143.728 109.319C144.796 114.69 144.248 120.258 142.152 125.319C140.056 130.379 136.506 134.704 131.952 137.746C127.398 140.789 122.044 142.413 116.567 142.413C109.233 142.421 102.195 139.519 96.9978 134.343C91.8008 129.168 88.8691 122.142 88.8462 114.808L88.8751 114.721ZM133.933 108.26L115.385 126.923C115.072 127.27 114.689 127.547 114.261 127.736C113.834 127.925 113.371 128.022 112.904 128.019C112.436 128.023 111.973 127.928 111.545 127.739C111.117 127.55 110.735 127.272 110.423 126.923L101.423 117.923C101.241 117.771 101.095 117.582 100.995 117.367C100.895 117.153 100.843 116.919 100.843 116.683C100.843 116.446 100.895 116.212 100.995 115.998C101.095 115.784 101.241 115.594 101.423 115.442L103.904 112.962C104.056 112.78 104.245 112.634 104.46 112.533C104.674 112.433 104.908 112.381 105.144 112.381C105.381 112.381 105.615 112.433 105.829 112.533C106.043 112.634 106.233 112.78 106.385 112.962L112.904 119.481L128.885 103.5C129.036 103.318 129.226 103.172 129.44 103.072C129.655 102.971 129.888 102.919 130.125 102.919C130.362 102.919 130.595 102.971 130.81 103.072C131.024 103.172 131.214 103.318 131.365 103.5L133.846 105.981C134.016 106.125 134.154 106.304 134.25 106.506C134.346 106.708 134.399 106.927 134.404 107.151C134.41 107.374 134.368 107.596 134.282 107.802C134.196 108.008 134.067 108.193 133.904 108.346L133.933 108.26Z" fill="#53B2A6" stroke="#53B2A6" stroke-width="0.008"/>
</g>
<defs>
<clipPath id="clip0_4_3077">
<rect width="150" height="150" fill="white"/>
</clipPath>
</defs>
</svg>
