<svg width="200" height="200" viewBox="0 0 200 200" fill="none" xmlns="http://www.w3.org/2000/svg">
<g clip-path="url(#clip0_4_3633)">
<rect width="200" height="200" fill="#D06565"/>
<path d="M200 0H0V200H200V0Z" fill="white"/>
<path d="M102.835 168.116C90.3677 170.604 65.0999 175.646 48.1965 163.58C17.5183 141.681 19.6802 67.2038 58.3589 35.7453C61.7029 33.0256 79.146 19.3822 103.031 20.8707C144.461 23.4528 181.182 70.0597 173.97 107.412C169.749 129.272 151.283 143.801 143.681 149.783C140.548 152.248 125.778 163.538 102.835 168.116Z" fill="#F4F7FA"/>
<path d="M148.48 30.3031L50.9959 24.3581C48.7506 24.2426 46.7295 26.8254 46.7295 28.9942V161.324C46.7295 164.332 49.6439 164.937 51.8892 164.695L148.48 154.296C150.245 154.106 151.669 152.404 151.669 150.494V33.9263C151.669 32.0159 150.245 30.3939 148.48 30.3031Z" fill="#97A6B7"/>
<path d="M150.084 29.252L52.4066 24.1866C50.1613 24.0701 48.3328 25.7472 48.3328 27.9328V161.296C48.3328 163.482 50.1613 165.056 52.4066 164.812L150.084 154.214C151.848 154.022 153.273 152.307 153.273 150.382V32.9035C153.273 30.9782 151.848 29.3435 150.084 29.252Z" fill="#D8DEE8"/>
<path opacity="0.74" d="M52.4065 163.003C51.1955 163.132 50.2078 162.279 50.2078 161.101V28.0217C50.2078 26.8439 51.1955 25.9348 52.4065 25.9951L150.084 30.8591C151.037 30.9066 151.812 31.7927 151.812 32.8343V150.534C151.812 151.575 151.037 152.505 150.084 152.607L52.4065 163.003Z" fill="white"/>
<path d="M143.788 149.45L60.2446 157.936V35.1583L143.788 38.4751V149.45Z" fill="white"/>
<path d="M78.7049 94.0907V101.165L71.7148 101.414V94.272L78.7049 94.0907ZM79.4861 93.289L70.9336 93.5108V102.223L79.4861 101.919V93.289Z" fill="#D8DEE8"/>
<path d="M136.269 99.8983L82.6355 101.807V93.2074L136.269 91.8168V99.8983Z" fill="#D8DEE8"/>
<path d="M78.7049 106.676V113.75L71.7148 114.097V106.956L78.7049 106.676ZM79.4861 105.863L70.9336 106.205V114.918L79.4861 114.493V105.863Z" fill="#D8DEE8"/>
<path d="M136.269 111.673L82.6355 114.337V105.737L136.269 103.592V111.673Z" fill="#D8DEE8"/>
<path d="M78.7049 119.262V126.335L71.7148 126.78V119.64L78.7049 119.262ZM79.4861 118.438L70.9336 118.9V127.613L79.4861 127.068V118.438Z" fill="#D8DEE8"/>
<path d="M136.269 123.449L82.6355 126.867V118.267L136.269 115.367V123.449Z" fill="#D8DEE8"/>
<path d="M78.7049 131.848V138.919L71.7148 139.463V132.325L78.7049 131.848ZM79.4861 131.012L70.9336 131.595V140.308L79.4861 139.642V131.012Z" fill="#D8DEE8"/>
<path d="M136.269 135.224L82.6355 139.397V130.797L136.269 127.142V135.224Z" fill="#D8DEE8"/>
<path d="M104.944 84.8559L70.9336 85.4331V44.7704L104.944 45.7265V84.8559Z" fill="#D8DEE8"/>
<path d="M136.269 51.5748L110.285 50.9985V45.8767L136.269 46.6072V51.5748Z" fill="#D8DEE8"/>
<path d="M136.269 62.6139L110.285 62.3806V59.8197L136.269 60.1301V62.6139Z" fill="#D8DEE8"/>
<path d="M136.269 66.7077L110.285 66.6015V64.0405L136.269 64.2238V66.7077Z" fill="#D8DEE8"/>
<path d="M136.269 70.8013L110.285 70.8223V68.2613L136.269 68.3175V70.8013Z" fill="#D8DEE8"/>
<path d="M88.4982 87.7712C90.1321 88.3342 91.9508 87.3564 92.5604 85.5873C93.17 83.8182 92.3397 81.9275 90.7058 81.3646C90.6211 81.3354 90.5357 81.3129 90.4504 81.2918C90.607 80.338 90.6927 79.3867 90.7081 78.4448C90.7956 78.4324 90.8832 78.4188 90.9713 78.3984C92.6911 78.0014 93.8508 76.2094 93.5619 74.3957C93.2729 72.582 91.6445 71.4336 89.9247 71.8307C89.8348 71.8515 89.7474 71.8782 89.6607 71.9064C89.3537 71.0303 88.9822 70.1845 88.5495 69.376C88.6231 69.318 88.6961 69.2585 88.7664 69.1932C90.1112 67.9426 90.3015 65.8164 89.1914 64.4443C88.0812 63.0722 86.091 62.9737 84.7461 64.2243C84.6772 64.2884 84.6134 64.3561 84.5506 64.4246C83.8718 63.8558 83.1427 63.3426 82.3681 62.8894C82.406 62.802 82.4428 62.7138 82.4743 62.6223C83.084 60.8531 83.9298 58.8956 82.2872 58.3583C78.4877 57.1153 77.1672 58.8143 76.5576 60.5834C76.526 60.6751 76.5007 60.7672 76.4767 60.8594C75.5873 60.7392 74.6969 60.6944 73.8118 60.7243C73.8045 60.6316 73.7959 60.5389 73.7811 60.446C73.4922 58.6325 73.8952 57.5733 72.1425 57.782C68.3207 58.2372 67.2644 60.0702 67.5533 61.8837C67.5685 61.9785 67.5893 62.0703 67.6115 62.1613C66.7727 62.5315 65.959 62.969 65.1774 63.47C65.1265 63.3943 65.0741 63.3195 65.0161 63.2477C63.906 61.8756 61.9158 61.777 60.5709 63.0277C59.226 64.2784 59.0358 66.4045 60.146 67.7767C60.2029 67.8469 60.2634 67.9116 60.3247 67.9753C59.7566 68.7267 59.2382 69.5289 58.774 70.3768C58.6938 70.3408 58.6126 70.3059 58.528 70.2768C56.8941 69.7137 55.0754 70.6916 54.4658 72.4607C53.8562 74.2298 54.6865 76.1204 56.3204 76.6834C56.4051 76.7125 56.4905 76.7351 56.5759 76.7561C56.4193 77.7099 56.3335 78.6612 56.3181 79.6031C56.2307 79.6155 56.143 79.6291 56.055 79.6494C54.3352 80.0466 53.1754 81.8385 53.4643 83.6522C53.7533 85.4658 55.3818 86.6141 57.1016 86.2172C57.1914 86.1964 57.2788 86.1697 57.3656 86.1415C57.6726 87.0176 58.044 87.8633 58.4768 88.6719C58.4032 88.7299 58.3302 88.7893 58.2599 88.8547C56.9151 90.1053 56.7249 92.2315 57.8349 93.6036C58.9451 94.9758 62.0288 95.2567 63.3736 94.0061C63.4425 93.942 62.4129 93.6919 62.4757 93.6233C63.1545 94.1921 63.8835 94.7053 64.6582 95.1585C64.6203 95.2458 64.5835 95.3341 64.552 95.4257C63.9423 97.1948 64.7727 99.0854 66.4066 99.6484C68.0405 100.211 69.8591 99.2335 70.4687 97.4644C70.5003 97.3728 70.5257 97.2806 70.5496 97.1885C71.439 97.3087 72.3294 97.3535 73.2145 97.3237C73.2218 97.4163 73.2304 97.5089 73.2452 97.6019C73.5341 99.4154 75.1626 100.564 76.8824 100.167C78.6021 99.7698 79.7619 97.9777 79.473 96.1641C79.4578 96.0694 79.437 95.9775 79.4148 95.8866C80.2538 95.5163 81.0673 95.0788 81.8488 94.5778C81.8997 94.6535 81.9521 94.7284 82.0102 94.8001C83.1204 96.1722 85.1105 96.2707 86.4554 95.02C87.8003 93.7694 87.9905 91.6433 86.8803 90.2711C86.8235 90.2009 86.7629 90.1362 86.7016 90.0726C87.2697 89.3211 87.7881 88.5189 88.2523 87.671C88.3325 87.7072 88.4136 87.742 88.4982 87.7712ZM69.5054 90.6545C63.5732 88.6104 60.5585 81.7463 62.7718 75.3229C64.9851 68.8995 71.5884 65.3495 77.5205 67.3936C83.4528 69.4376 86.4675 76.3018 84.2542 82.7252C82.0408 89.1485 75.4376 92.6986 69.5054 90.6545Z" fill="url(#paint0_linear_4_3633)"/>
<path d="M90.9713 78.3984C92.691 78.0014 93.8508 76.2093 93.5619 74.3957C93.2729 72.582 91.6445 71.4336 89.9247 71.8307C89.8348 71.8514 89.7474 71.8782 89.6608 71.9064C89.3537 71.0303 88.9823 70.1845 88.5495 69.3761C88.6231 69.3182 88.6961 69.2586 88.7664 69.1932C90.1112 67.9427 91.6042 65.1647 90.3591 63.9138C87.9961 61.5395 86.091 62.9737 84.7461 64.2244C84.6772 64.2885 84.6134 64.3561 84.5506 64.4246C83.8718 63.8558 83.1427 63.3426 82.3681 62.8894C82.406 62.8021 82.4428 62.7139 82.4743 62.6223C82.8061 61.6595 82.7087 60.6622 82.29 59.861C81.2028 62.5935 80.1363 65.3339 79.0973 68.0846C83.968 70.7102 86.2619 76.8988 84.2542 82.7252C82.553 87.6625 78.2578 90.8986 73.6677 91.2052C73.538 91.7591 73.4123 92.3154 73.2675 92.8663C72.8745 94.3612 72.3974 95.8382 71.9192 97.3134C72.3518 97.3344 72.7837 97.3381 73.2145 97.3236C73.2217 97.4163 73.2302 97.5089 73.2451 97.6019C73.534 99.4155 74.8528 100.807 77.9854 100.202C79.7184 99.8668 79.7619 97.9778 79.4729 96.1641C79.4577 96.0694 79.4369 95.9776 79.4147 95.8866C80.2536 95.5163 81.0672 95.0789 81.8488 94.5779C81.8997 94.6535 81.9521 94.7285 82.0101 94.8001C83.1203 96.1723 86.3386 96.3739 87.6834 95.1232C89.0284 93.8725 87.9904 91.6433 86.8803 90.2712C86.8234 90.2009 86.7628 90.1362 86.7015 90.0725C87.2696 89.3211 87.7881 88.5189 88.2523 87.671C88.3326 87.7072 88.4136 87.7421 88.4983 87.7711C90.1322 88.3342 91.9509 87.3564 92.5605 85.5872C93.1701 83.8181 92.3398 81.9275 90.7059 81.3646C90.6212 81.3354 90.5359 81.3129 90.4505 81.2918C90.6071 80.338 90.6928 79.3867 90.7082 78.4449C90.7956 78.4324 90.8832 78.4188 90.9713 78.3984Z" fill="url(#paint1_linear_4_3633)"/>
<path d="M92.6392 78.3563C94.3588 77.9598 95.5178 76.1682 95.2286 74.355C94.9413 72.5415 93.3127 71.3914 91.5915 71.7901C91.5017 71.8105 91.4145 71.8364 91.328 71.8661C91.021 70.9899 90.6489 70.1425 90.2174 69.3348C90.2902 69.2774 90.3628 69.218 90.4346 69.1528C91.779 67.9015 91.9689 65.7751 90.8595 64.4031C89.7482 63.0313 87.7589 62.9329 86.4141 64.1824C86.3443 64.2473 86.2807 64.3152 86.2173 64.3832C85.539 63.8149 84.811 63.3009 84.0363 62.8484C84.0734 62.7605 84.1105 62.6724 84.1413 62.5814C84.7512 60.811 83.9209 58.921 82.2872 58.3591C80.6533 57.7954 78.8351 58.7734 78.225 60.542C78.1942 60.633 78.1676 60.7254 78.1448 60.8174C77.2548 60.6984 76.3632 60.6526 75.4801 60.6826C75.4714 60.5912 75.4623 60.4977 75.4494 60.4049C75.1602 58.5916 73.5318 57.4435 71.8123 57.8399C70.0909 58.2367 68.9319 60.0283 69.2211 61.8415C69.2364 61.9379 69.257 62.0298 69.2794 62.1193C68.4397 62.4902 67.627 62.9285 66.8448 63.4294C66.7948 63.3536 66.741 63.2782 66.6838 63.2073C65.9865 62.3458 64.9429 61.986 63.9321 62.148C63.3299 62.2415 62.7394 62.5187 62.2385 62.9866C60.8941 64.2379 60.704 66.3623 61.8136 67.7363C61.8706 67.8053 61.9307 67.8699 61.9929 67.9342C61.4248 68.6854 60.9052 69.4872 60.4414 70.3363C60.3615 70.3001 60.2796 70.2641 60.195 70.2364C58.561 69.6727 56.7428 70.6508 56.1327 72.4193C55.5225 74.1879 56.3531 76.0798 57.9868 76.6416C58.0717 76.6712 58.1577 76.6948 58.2433 76.7144C58.086 77.6688 58.001 78.6192 57.9861 79.5618C57.8971 79.5742 57.8103 79.5882 57.7224 79.6082C56.0028 80.0047 54.8419 81.7966 55.1314 83.6117C55.4206 85.425 57.049 86.5732 58.7686 86.1767C58.8581 86.1544 58.9452 86.1286 59.032 86.1007C59.339 86.9769 59.7108 87.8224 60.1444 88.6298C60.0697 88.6894 59.9972 88.7488 59.9274 88.8137C58.5826 90.0632 58.3928 92.1894 59.5022 93.5615C60.6117 94.9355 62.6031 95.0336 63.9475 93.7823C64.0154 93.7176 64.0811 93.6514 64.1424 93.5817C64.821 94.152 65.5507 94.6638 66.3255 95.1182C66.2882 95.2042 66.2511 95.2922 66.2187 95.3854C65.6105 97.1537 66.4408 99.0436 68.0747 99.6075C69.7085 100.169 71.5268 99.1931 72.1368 97.4226C72.1675 97.3316 72.1921 97.2395 72.2169 97.1473C73.1071 97.2682 73.9965 97.3123 74.8816 97.2821C74.8887 97.3757 74.8975 97.4672 74.9123 97.5598C75.2018 99.375 76.8302 100.523 78.5497 100.127C80.2689 99.7282 81.4299 97.9364 81.1406 96.1231C81.1255 96.0286 81.1048 95.9368 81.0823 95.8453C81.92 95.4747 82.735 95.0382 83.5171 94.5372C83.5671 94.613 83.6186 94.6867 83.6781 94.7593C84.7874 96.1314 86.7788 96.2295 88.1231 94.9781C89.1763 93.9998 89.5217 92.4829 89.0892 91.2141C88.9689 90.86 88.7888 90.5281 88.5483 90.2303C88.4912 90.1594 88.4309 90.0948 88.369 90.0324C88.9368 89.2792 89.4545 88.4778 89.9204 87.6303C90.0004 87.6666 90.0801 87.7009 90.165 87.7305C91.7988 88.2923 93.6191 87.3159 94.2271 85.5457C94.8372 83.7771 94.0069 81.8872 92.373 81.3233C92.288 81.2937 92.2041 81.2719 92.1183 81.2502C92.2737 80.2961 92.3605 79.3454 92.3756 78.4029C92.4626 78.3907 92.5516 78.3783 92.6392 78.3563ZM85.9212 82.6845C84.4204 87.0414 80.8983 90.0759 76.9387 90.9392C75.0596 91.35 73.0828 91.2716 71.1735 90.6139C65.2406 88.5688 62.2252 81.706 64.4388 75.2824C65.428 72.4102 67.294 70.1143 69.5866 68.6347C72.4199 66.8019 75.9081 66.2209 79.1884 67.3526C85.121 69.3957 88.1348 76.2608 85.9212 82.6845Z" fill="url(#paint2_linear_4_3633)"/>
<path opacity="0.3" d="M88.1231 94.978C86.7787 96.2294 84.7874 96.1313 83.6781 94.7593C83.6186 94.6867 83.5671 94.613 83.5171 94.5371C82.7349 95.0381 81.92 95.4746 81.0823 95.8453C81.1048 95.9368 81.1255 96.0286 81.1406 96.1231C81.4299 97.9363 80.2689 99.7281 78.5497 100.127C76.8302 100.523 75.2018 99.3749 74.9123 97.5597C74.8975 97.4671 74.8887 97.3757 74.8816 97.282C73.9965 97.3122 73.1071 97.2682 72.2169 97.1473C72.1921 97.2394 72.1675 97.3315 72.1368 97.4226C71.5268 99.1931 69.7085 100.169 68.0747 99.6074C66.4408 99.0436 65.6105 97.1537 66.2187 95.3853C66.2511 95.2921 66.2882 95.2041 66.3255 95.1182C65.5507 94.6638 64.821 94.1519 64.1424 93.5817C64.0811 93.6513 64.0154 93.7176 63.9475 93.7822C62.6031 95.0336 60.6117 94.9355 59.5022 93.5614C58.3928 92.1894 58.5826 90.0632 59.9274 88.8136C59.9972 88.7487 60.0698 88.6894 60.1444 88.6297C59.7108 87.8224 59.339 86.9768 59.032 86.1006C58.9452 86.1285 58.8581 86.1543 58.7686 86.1766C57.0491 86.5731 55.4206 85.425 55.1314 83.6117C54.8419 81.7965 56.0029 80.0047 57.7224 79.6082C57.8103 79.5881 57.8971 79.5741 57.9861 79.5618C58.0011 78.6192 58.086 77.6688 58.2433 76.7143C58.1577 76.6947 58.0716 76.6711 57.9868 76.6416C56.353 76.0797 55.5225 74.1878 56.1327 72.4192C56.7428 70.6507 58.561 69.6727 60.195 70.2364C60.2796 70.2641 60.3615 70.3 60.4415 70.3363C60.9052 69.4871 61.4248 68.6854 61.9929 67.9342C61.9307 67.8699 61.8705 67.8053 61.8136 67.7362C60.704 66.3622 60.8941 64.2379 62.2385 62.9865C62.7395 62.5186 63.3299 62.2414 63.9321 62.148C66.2679 63.7618 68.532 65.9239 69.5866 68.6345C67.294 70.1142 65.428 72.4101 64.4388 75.2822C62.2252 81.7059 65.2406 88.5688 71.1735 90.6138C73.0828 91.2715 75.0596 91.3499 76.9387 90.9391C79.8537 92.6066 83.8206 93.0023 89.0892 91.2138C89.5216 92.4828 89.1763 93.9997 88.1231 94.978Z" fill="white"/>
<path d="M165.367 88.5521C168.291 89.4178 171.421 87.5529 172.358 84.3868C173.296 81.2207 171.685 77.9522 168.761 77.0865C168.61 77.0417 168.457 77.0086 168.305 76.9781C168.507 75.2844 168.585 73.6007 168.539 71.9391C168.692 71.9105 168.845 71.8796 168.999 71.8369C172 71.0035 173.906 67.7543 173.255 64.5795C172.605 61.4046 169.645 59.5065 166.644 60.3398C166.487 60.3834 166.335 60.4374 166.185 60.4937C165.576 58.9732 164.855 57.511 164.03 56.1194C164.155 56.0114 164.279 55.9009 164.398 55.7802C166.671 53.4712 166.842 49.7081 164.778 47.3753C162.715 45.0425 159.198 45.0233 156.925 47.3323C156.808 47.4507 156.701 47.5751 156.595 47.7007C155.355 46.7507 154.03 45.9025 152.629 45.1636C152.689 45.0068 152.747 44.8484 152.795 44.6844C153.733 41.5182 155.072 38.0018 152.135 37.182C145.34 35.2855 143.144 38.3833 142.207 41.5494C142.158 41.7134 142.12 41.8778 142.085 42.042C140.508 41.8993 138.935 41.8893 137.377 42.0107C137.357 41.848 137.335 41.6853 137.301 41.5226C136.651 38.3479 137.279 36.4495 134.206 36.9534C127.504 38.0524 125.784 41.3657 126.434 44.5404C126.468 44.7064 126.512 44.8666 126.558 45.0253C125.108 45.7432 123.707 46.5775 122.368 47.5213C122.273 47.392 122.175 47.264 122.067 47.142C120.003 44.8092 116.487 44.79 114.213 47.0992C111.939 49.4084 111.769 53.1713 113.833 55.504C113.938 55.6236 114.05 55.7329 114.163 55.8403C113.22 57.2091 112.368 58.6636 111.616 60.1943C111.471 60.1369 111.326 60.0818 111.174 60.0369C108.25 59.1713 105.12 61.0361 104.182 64.2023C103.245 67.3684 104.856 70.6368 107.78 71.5025C107.931 71.5473 108.083 71.5804 108.236 71.6109C108.034 73.3045 107.956 74.9883 108.002 76.6499C107.849 76.6785 107.696 76.7094 107.542 76.752C104.541 77.5855 102.635 80.8347 103.285 84.0095C103.936 87.1844 106.896 89.0823 109.897 88.249C110.053 88.2055 110.205 88.1516 110.356 88.0951C110.965 89.6158 111.686 91.078 112.511 92.4696C112.386 92.5776 112.262 92.688 112.143 92.8088C109.87 95.1178 109.699 98.8808 111.763 101.214C113.826 103.546 119.284 103.802 121.558 101.493C121.674 101.375 119.84 101.014 119.945 100.888C121.186 101.838 122.511 102.686 123.912 103.425C123.852 103.582 123.794 103.74 123.746 103.904C122.808 107.071 124.419 110.339 127.343 111.205C130.267 112.07 133.397 110.205 134.334 107.039C134.383 106.875 134.421 106.711 134.456 106.547C136.033 106.69 137.606 106.7 139.164 106.578C139.184 106.741 139.206 106.903 139.24 107.066C139.89 110.241 142.85 112.139 145.851 111.306C148.852 110.472 150.757 107.223 150.107 104.048C150.073 103.882 150.029 103.722 149.983 103.563C151.433 102.846 152.834 102.011 154.172 101.067C154.268 101.197 154.366 101.325 154.474 101.447C156.538 103.779 160.054 103.799 162.328 101.49C164.601 99.1804 164.772 95.4176 162.708 93.0846C162.603 92.9653 162.491 92.8559 162.378 92.7485C163.321 91.3797 164.173 89.9253 164.925 88.3946C165.07 88.4521 165.215 88.5073 165.367 88.5521ZM132.108 95.109C121.492 91.9658 115.644 80.099 119.048 68.6034C122.451 57.1079 133.816 50.337 144.433 53.4802C155.049 56.6234 160.897 68.4902 157.493 79.9858C154.09 91.4813 142.725 98.2522 132.108 95.109Z" fill="url(#paint3_linear_4_3633)"/>
<path d="M168.999 71.8369C172 71.0035 173.906 67.7543 173.255 64.5795C172.605 61.4047 169.645 59.5065 166.644 60.3399C166.487 60.3834 166.335 60.4376 166.185 60.4939C165.576 58.9732 164.855 57.5111 164.029 56.1195C164.155 56.0116 164.279 55.9009 164.398 55.7802C166.671 53.4712 169.088 48.4582 166.796 46.3495C162.446 42.3472 159.198 45.0236 156.925 47.3325C156.808 47.4509 156.701 47.5751 156.595 47.7008C155.355 46.7508 154.03 45.9027 152.629 45.1638C152.689 45.007 152.747 44.8486 152.795 44.6846C153.305 42.9615 153.056 41.211 152.256 39.8311C150.551 44.7325 148.884 49.6462 147.266 54.5762C156.056 58.827 160.58 69.5588 157.493 79.9859C154.877 88.8218 147.556 94.8601 139.488 95.7568C139.303 96.7434 139.124 97.7339 138.912 98.7162C138.335 101.382 137.608 104.023 136.88 106.661C137.644 106.664 138.406 106.637 139.164 106.578C139.184 106.741 139.206 106.904 139.24 107.066C139.89 110.241 142.323 112.593 147.798 111.282C150.827 110.557 150.757 107.223 150.107 104.049C150.073 103.883 150.029 103.722 149.983 103.564C151.433 102.846 152.833 102.011 154.172 101.068C154.268 101.197 154.366 101.325 154.474 101.447C156.538 103.78 162.227 103.885 164.501 101.576C166.774 99.2671 164.772 95.4178 162.708 93.085C162.603 92.9655 162.491 92.8561 162.378 92.7486C163.321 91.3799 164.173 89.9254 164.925 88.3948C165.069 88.4522 165.215 88.5074 165.367 88.5521C168.291 89.4179 171.421 87.5528 172.358 84.3867C173.296 81.2207 171.685 77.9521 168.761 77.0865C168.61 77.0417 168.457 77.0086 168.305 76.9782C168.507 75.2845 168.585 73.6008 168.539 71.9392C168.692 71.9105 168.845 71.8796 168.999 71.8369Z" fill="url(#paint4_linear_4_3633)"/>
<path d="M171.697 76.8845C171.545 76.8393 171.395 76.8063 171.242 76.7751C171.444 75.0828 171.521 73.3977 171.476 71.7379C171.629 71.7086 171.782 71.6773 171.934 71.6339C174.937 70.8023 176.841 67.552 176.191 64.3776C175.541 61.2032 172.581 59.3033 169.581 60.137C169.424 60.1822 169.271 60.2357 169.12 60.2913C168.512 58.7704 167.791 57.3099 166.967 55.9164C167.092 55.8085 167.214 55.6984 167.334 55.5781C169.608 53.2693 169.778 49.5052 167.714 47.174C165.651 44.8409 162.136 44.8214 159.861 47.1303C159.744 47.2488 159.636 47.3741 159.533 47.4996C158.291 46.5476 156.966 45.7005 155.564 44.9607C155.626 44.804 155.684 44.6469 155.732 44.4831C156.669 41.3163 155.059 38.0485 152.134 37.1829C149.21 36.3173 146.079 38.1816 145.142 41.3463C145.094 41.5121 145.056 41.6766 145.022 41.8394C143.444 41.6976 141.871 41.687 140.313 41.8085C140.292 41.6458 140.272 41.4832 140.237 41.3214C139.587 38.1451 136.627 36.2471 133.626 37.0809C130.626 37.9147 128.72 41.1628 129.369 44.3392C129.404 44.5049 129.449 44.6653 129.494 44.8238C129.423 44.8589 129.352 44.8942 129.28 44.9333C127.907 45.6243 126.578 46.4213 125.306 47.3192C125.208 47.1892 125.111 47.0612 125.003 46.9406C122.94 44.6076 119.423 44.588 117.151 46.8969C114.876 49.2057 114.706 52.9699 116.769 55.303C116.875 55.4214 116.986 55.5302 117.099 55.6391C116.156 57.008 115.304 58.462 114.553 59.9918C114.408 59.935 114.263 59.8802 114.111 59.835C111.187 58.9695 108.056 60.8337 107.118 64.0005C106.181 67.1673 107.791 70.435 110.715 71.3006C110.867 71.3459 111.02 71.3791 111.171 71.4081C110.97 73.1025 110.892 74.7855 110.939 76.4474C110.786 76.4767 110.632 76.508 110.478 76.5493C107.478 77.383 105.571 80.6332 106.221 83.8076C106.871 86.982 109.832 88.8799 112.832 88.0461C112.99 88.0031 113.141 87.9495 113.292 87.894C113.902 89.413 114.621 90.8754 115.448 92.267C115.323 92.3749 115.198 92.4868 115.079 92.6072C112.807 94.9162 112.634 98.6782 114.699 101.011C116.762 103.344 120.279 103.364 122.553 101.055C122.669 100.937 122.776 100.811 122.882 100.686C124.122 101.636 125.447 102.485 126.849 103.223C126.789 103.38 126.731 103.539 126.681 103.702C125.744 106.869 127.354 110.137 130.278 111.002C133.202 111.868 136.333 110.004 137.271 106.837C137.319 106.673 137.357 106.509 137.393 106.346C138.968 106.488 140.541 106.498 142.1 106.377C142.12 106.539 142.143 106.702 142.176 106.864C142.826 110.038 145.786 111.938 148.786 111.104C151.581 110.328 153.424 107.458 153.141 104.504C153.121 104.285 153.088 104.065 153.043 103.846C153.009 103.68 152.966 103.52 152.919 103.361C154.369 102.644 155.769 101.809 157.109 100.866C157.205 100.994 157.302 101.122 157.41 101.245C159.475 103.578 162.99 103.597 165.264 101.288C167.538 98.9796 167.709 95.2155 165.644 92.8823C165.54 92.7639 165.427 92.655 165.314 92.5461C166.257 91.1773 167.109 89.7233 167.862 88.1936C168.005 88.2502 168.152 88.3052 168.304 88.3503C171.226 89.2158 174.357 87.3516 175.294 84.1848C176.232 81.0179 174.622 77.7501 171.697 76.8845ZM160.429 79.7827C157.42 89.9441 148.194 96.4132 138.761 95.6087C137.521 95.5033 136.278 95.2727 135.045 94.9078C124.428 91.7631 118.58 79.8976 121.984 68.4004C123.946 61.7708 128.557 56.7143 134.145 54.2231C138.246 52.3925 142.875 51.9461 147.37 53.2775C157.985 56.422 163.833 68.2875 160.429 79.7827Z" fill="url(#paint5_linear_4_3633)"/>
<path opacity="0.3" d="M148.786 111.104C145.786 111.938 142.826 110.038 142.176 106.864C142.143 106.702 142.121 106.539 142.1 106.377C140.542 106.498 138.969 106.488 137.393 106.346C137.357 106.508 137.319 106.673 137.271 106.837C136.333 110.004 133.203 111.868 130.278 111.002C127.354 110.137 125.744 106.869 126.681 103.702C126.731 103.538 126.789 103.379 126.849 103.222C125.447 102.485 124.122 101.636 122.882 100.686C122.777 100.811 122.669 100.936 122.553 101.055C120.279 103.364 116.762 103.344 114.699 101.011C112.635 98.6781 112.807 94.9161 115.079 92.6071C115.199 92.4868 115.324 92.3748 115.448 92.2669C114.622 90.8754 113.903 89.4129 113.293 87.8938C113.142 87.9494 112.991 88.0031 112.832 88.046C109.832 88.8798 106.871 86.9819 106.222 83.8075C105.572 80.6331 107.478 77.383 110.479 76.5492C110.633 76.5079 110.786 76.4766 110.939 76.4473C110.892 74.7854 110.971 73.1024 111.171 71.408C111.02 71.379 110.868 71.3458 110.716 71.3005C107.791 70.4349 106.181 67.1672 107.118 64.0004C108.056 60.8336 111.187 58.9694 114.111 59.8349C114.263 59.8801 114.408 59.9349 114.553 59.9917C115.304 58.4619 116.156 57.0079 117.099 55.639C116.986 55.5301 116.875 55.4213 116.769 55.3028C114.706 52.9698 114.877 49.2056 117.151 46.8968C119.423 44.5879 122.94 44.6075 125.003 46.9405C125.111 47.0611 125.209 47.1891 125.306 47.3191C126.578 46.4212 127.907 45.6242 129.28 44.9332C131.462 47.6879 133.262 50.8102 134.145 54.223C128.557 56.7142 123.947 61.7707 121.984 68.4003C118.58 79.8975 124.428 91.763 135.045 94.9077C136.278 95.2726 137.521 95.5032 138.761 95.6086C142.156 100.152 146.94 103.444 153.141 104.504C153.424 107.458 151.581 110.328 148.786 111.104Z" fill="white"/>
<path d="M165.193 96.3822L165.385 93.5492C165.385 93.5492 165.019 92.9168 164.907 91.405C164.795 89.8933 165.143 90.5133 165.291 91.1491C165.333 91.3264 165.433 91.4812 165.556 91.6123C165.865 91.9418 166.287 91.5708 166.381 91.1289L167.118 89.6051C167.118 89.6051 167.923 90.6643 166.946 93.3931C166.641 94.2474 166.745 96.3654 166.745 96.3654L165.193 96.3822Z" fill="url(#paint6_linear_4_3633)"/>
<path d="M115.428 95.2695L114.901 92.4627C114.901 92.4627 115.659 91.4509 115.403 90.3481C115.147 89.2452 115.319 89.6435 115.006 90.3211C114.694 90.9988 114.249 89.7852 113.912 88.6843C113.575 87.5833 113.253 89.2188 113.287 90.2044C113.32 91.19 113.318 91.775 113.854 92.529C114.39 93.283 114.1 95.8151 114.1 95.8151L115.428 95.2695Z" fill="url(#paint7_linear_4_3633)"/>
<path d="M150.776 173.954C150.84 173.348 152.296 173.569 153.25 173.727C154.203 173.884 154.6 174.298 154.725 174.668C154.851 175.038 154.678 175.918 153.816 175.486C153.109 175.131 150.719 174.49 150.776 173.954Z" fill="#26264F"/>
<path d="M152.7 171.719L153.223 174.12C153.223 174.12 153.874 174.636 154.114 174.418L154.044 171.687L152.7 171.719Z" fill="url(#paint8_linear_4_3633)"/>
<path d="M147.972 169.999L150.165 171.138L149.708 172.257L147.484 171.514L147.972 169.999Z" fill="url(#paint9_linear_4_3633)"/>
<path d="M147.541 174.43C147.541 174.43 149.021 174.922 149.748 174.077C150.215 173.533 150.638 172.585 150.88 171.978C151.012 171.648 150.866 171.274 150.545 171.121C150.08 170.898 149.444 170.648 149.157 170.785C148.675 171.014 148.992 172.777 148.759 173.215C148.525 173.652 147.521 173.875 147.541 174.43Z" fill="#26264F"/>
<path d="M146.722 134.511C146.692 139.996 147.014 146.374 148.041 153.411C149.111 160.745 150.712 167.185 152.39 172.59C152.58 172.698 152.92 172.858 153.375 172.902C153.907 172.953 154.325 172.82 154.536 172.736C155.097 169.946 155.449 167.582 155.674 165.825C156.27 161.183 156.559 158.804 156.113 155.987C155.694 153.345 155.201 153.515 154.775 150.596C154.396 148.001 154.517 146.032 154.712 143.151C154.845 141.173 155.117 138.507 155.715 135.363C152.717 135.079 149.719 134.795 146.722 134.511Z" fill="url(#paint10_linear_4_3633)"/>
<path opacity="0.3" d="M152.816 170.686C152.349 168.718 153.589 167.918 153.617 165.462C153.652 162.462 151.817 162.247 151.464 158.847C151.18 156.115 152.334 155.959 152.256 152.656C152.173 149.145 150.847 148.344 151.277 146.27C151.516 145.116 152.303 143.574 154.801 142.006C154.956 140.187 155.225 137.939 155.715 135.363C152.717 135.079 149.719 134.795 146.722 134.511C146.692 139.996 147.014 146.374 148.041 153.411C149.111 160.745 150.712 167.185 152.39 172.59C152.58 172.698 152.92 172.857 153.375 172.902C153.616 172.925 153.83 172.908 154.015 172.877C153.485 172.288 153.025 171.565 152.816 170.686Z" fill="url(#paint11_linear_4_3633)"/>
<path d="M139.46 133.051C139.261 134.36 138.912 136.338 138.289 138.7C136.883 144.026 135.574 145.674 135.02 149.181C134.374 153.271 135.277 156.586 135.621 157.846C137.967 166.454 145.712 170.911 147.767 172.014C148.059 171.254 148.351 170.494 148.643 169.734C148.158 168.985 147.446 167.783 146.805 166.212C145.709 163.529 145.728 161.993 145.034 159.378C143.782 154.658 142.548 155.231 142.422 152.863C142.222 149.11 145.328 147.811 148.52 140.878C149.435 138.892 150.005 137.206 150.327 136.168C146.704 135.129 143.082 134.09 139.46 133.051Z" fill="url(#paint12_linear_4_3633)"/>
<path d="M164.779 95.2161C165.552 95.1447 166.325 95.0732 167.098 95.0018C167.967 96.4175 170.444 100.874 169.512 106.541C169.291 107.884 168.429 112.331 164.395 115.642C161.507 118.013 158.434 118.611 157.032 118.794C156.579 125.437 156.421 129.634 156.479 132.157C156.486 132.461 156.549 135.014 155.984 138.262C155.811 139.252 155.722 139.752 155.567 140.018C153.415 143.709 142.771 139.946 139.926 138.48C139.187 138.099 138.444 137.589 138.168 136.755C137.813 135.685 138.285 134.768 138.507 133.953C139.051 131.953 137.949 130.34 135.799 126.241C134.889 124.508 133.574 121.91 132.061 118.549C130.014 118.999 125.213 119.727 120.733 117.204C114.149 113.496 110.877 104.244 113.517 94.6363C114.222 94.4859 114.926 94.3354 115.63 94.1849C115.959 96.1064 116.667 98.7116 118.299 101.402C119.289 103.033 120.113 104.393 121.646 105.225C124.054 106.533 126.34 105.526 129.62 104.949C134.79 104.039 139.009 104.795 144.134 105.715C149.734 106.72 151.201 107.983 155.379 107.484C157.237 107.262 159.565 106.954 161.57 105.258C165.512 101.922 164.878 96.0263 164.779 95.2161Z" fill="url(#paint13_linear_4_3633)"/>
<path d="M143.197 101.209C143.197 101.209 142.767 102.54 143.202 103.179C143.638 103.818 145.071 106.252 145.581 106.401C145.872 106.486 146.604 106.648 147.18 106.772C147.483 106.837 147.519 107.263 147.227 107.367C146.631 107.578 145.594 107.762 143.843 107.624C141.313 107.425 139.341 106.323 138.487 105.763C138.366 105.684 138.438 105.497 138.582 105.517L139.716 105.68C140.687 105.82 141.546 105.043 141.503 104.062L141.475 103.424L143.197 101.209Z" fill="url(#paint14_linear_4_3633)"/>
<path d="M141.967 103.864C141.816 103.767 140.554 103.526 140.425 102.829C140.249 101.884 141.161 100.81 141.278 100.635C141.765 99.9022 141.882 99.8066 142.093 99.6912L142.385 99.5455C142.385 99.5455 142.402 99.5404 142.419 99.536C142.603 99.4888 143.21 99.5253 143.331 99.5626C143.715 99.6818 143.988 101.317 143.664 103.564C143.672 103.651 143.68 103.739 143.687 103.828C143.706 104.059 141.95 103.943 141.967 103.864Z" fill="url(#paint15_linear_4_3633)"/>
<path d="M141.073 99.3121C140.999 99.5844 141.693 100.184 141.989 100.442C142.025 100.474 142.128 100.578 142.217 100.742C142.23 100.766 142.241 100.793 142.25 100.828C142.363 101.283 141.615 101.738 141.732 101.948C141.818 102.1 142.311 101.952 142.357 102.08C142.399 102.201 141.982 102.407 142.03 102.551C142.066 102.661 142.318 102.587 142.457 102.762C142.527 102.849 142.498 102.911 142.557 103.163C142.591 103.306 142.641 103.464 142.683 103.553C142.888 103.985 143.559 104.197 143.705 104.045C143.746 104.003 143.718 103.961 143.77 103.811C143.77 103.811 143.817 103.672 143.931 103.516C144.094 103.293 144.451 103.156 144.819 102.939C145.499 102.537 145.708 102.161 145.773 102.033C145.78 102.018 145.786 102.005 145.792 101.993C145.803 101.971 145.812 101.95 145.821 101.928C145.988 101.489 145.472 100.671 145.472 100.671C145.057 100.026 144.508 99.5744 144.065 99.281C143.233 99.0578 142.545 99.0321 142.065 99.0524C141.675 99.0691 141.132 99.0965 141.073 99.3121Z" fill="#26264F"/>
<path d="M140.652 101.619C140.652 101.619 141.148 102.303 141.913 101.574L142.257 101.702C142.257 101.702 141.269 103.535 141.085 103.523C140.901 103.51 140.373 103.351 140.373 103.351C140.177 103.253 140.078 103.03 140.139 102.82C140.25 102.437 140.509 101.885 140.652 101.619Z" fill="#26264F"/>
<path d="M142.068 101.811C142.261 101.591 142.542 101.839 142.516 102.144C142.491 102.449 142.167 102.74 141.886 102.653C141.604 102.567 141.809 102.107 142.068 101.811Z" fill="url(#paint16_linear_4_3633)"/>
<path opacity="0.3" d="M152.756 138.712C148.993 139.758 144.838 137.573 143.943 134.917C143.282 132.953 145.095 131.246 144.034 129.198C143.012 127.226 140.876 127.934 139.572 125.921C138.152 123.728 140.116 122.004 138.919 119.111C138.019 116.935 135.65 114.87 133.196 114.708C130.279 114.515 129.007 117.126 126.538 116.412C125.248 116.039 125.332 115.251 123.59 113.833C120.567 111.373 118.374 112.168 115.867 110.409C115.13 109.892 114.321 109.121 113.601 107.921C114.894 111.994 117.384 115.317 120.733 117.204C125.213 119.727 130.014 118.999 132.061 118.549C133.574 121.91 134.889 124.508 135.799 126.241C137.949 130.34 139.051 131.953 138.507 133.953C138.285 134.768 137.813 135.685 138.168 136.755C138.444 137.589 139.187 138.099 139.927 138.48C142.771 139.946 153.415 143.709 155.567 140.018C155.722 139.752 155.812 139.252 155.984 138.262C156.091 137.646 156.176 137.054 156.242 136.498C155.42 137.417 154.288 138.287 152.756 138.712Z" fill="url(#paint17_linear_4_3633)"/>
<path d="M78.9427 119.011C78.9427 119.011 67.1255 127.726 58.7293 122.449L57.5715 133.335C57.5715 133.335 74.2072 137.993 79.0396 120.994L78.9427 119.011Z" fill="url(#paint18_linear_4_3633)"/>
<path d="M107.643 139.293C109.789 139.101 111.492 137.129 111.448 134.889C111.416 133.297 110.51 131.996 109.22 131.446C109.201 131.438 109.184 131.431 109.165 131.425C108.651 131.216 108.08 131.124 107.481 131.178C107.368 131.188 107.259 131.205 107.148 131.225C106.924 130.114 106.617 129.029 106.229 127.98C106.33 127.923 106.428 127.861 106.524 127.795C108.359 126.509 108.945 123.971 107.834 122.125C107.421 121.438 106.83 120.946 106.157 120.664C105.298 120.3 104.302 120.283 103.371 120.645C103.07 120.762 102.778 120.918 102.497 121.114C102.403 121.18 102.316 121.251 102.228 121.323C101.503 120.522 100.706 119.778 99.8472 119.1C99.9069 119.002 99.9665 118.902 100.02 118.795C101.007 116.853 102.282 114.738 100.749 113.745C100.734 113.734 100.717 113.724 100.7 113.715C100.638 113.679 100.574 113.643 100.51 113.611C96.1253 111.468 94.2432 113.302 93.2093 115.337C93.1901 115.376 93.173 115.414 93.156 115.452C93.124 115.521 93.0942 115.589 93.0664 115.657C92.0113 115.363 90.9433 115.16 89.8668 115.047C89.8733 114.934 89.8797 114.821 89.8775 114.706C89.8412 112.871 90.2804 111.692 89.2572 111.315C89.0781 111.249 88.8501 111.168 88.5687 111.153C88.5346 111.151 88.5004 111.149 88.4664 111.149H88.2702C83.6297 111.149 82.0629 113.135 82.1077 115.367C82.1098 115.484 82.1205 115.614 82.1311 115.73C81.5577 115.892 80.9907 116.086 80.4322 116.297C80.4301 116.297 80.4279 116.299 80.4258 116.299C79.9334 116.484 79.4495 116.691 78.9699 116.913C78.9209 116.813 78.8697 116.717 78.8122 116.618C78.3986 115.932 77.8082 115.442 77.1345 115.16C76.4269 114.86 75.6253 114.796 74.8452 114.986C74.3741 115.099 73.9072 115.305 73.4745 115.61C71.6392 116.896 71.053 119.434 72.1636 121.278C72.2211 121.372 72.2829 121.462 72.3469 121.549C71.6264 122.269 70.9442 123.047 70.309 123.877C70.2281 123.981 70.1491 124.086 70.0703 124.192C69.9787 124.135 69.887 124.079 69.7889 124.028C69.7143 123.99 69.6419 123.956 69.5651 123.926C67.7255 123.143 65.5043 124.03 64.5109 125.987C63.4772 128.023 64.1635 130.449 66.0458 131.404C66.1417 131.453 66.2419 131.493 66.3421 131.534C65.9925 132.661 65.7281 133.795 65.5513 134.931C65.4447 134.931 65.3359 134.934 65.2273 134.944C63.0806 135.136 61.3775 137.106 61.4222 139.348C61.4436 140.41 61.8529 141.341 62.5072 142.006C63.2341 142.746 64.2594 143.212 65.3892 143.112C65.483 143.103 65.579 143.123 65.6727 143.123C65.6748 143.123 65.6748 143.123 65.677 143.123C65.6918 143.123 65.7068 143.065 65.7217 143.063C65.7239 143.071 65.726 143.051 65.726 143.06C65.7281 143.062 65.7281 143.051 65.7281 143.053C65.952 144.151 66.2546 145.215 66.6362 146.255C66.6362 146.257 66.6384 146.258 66.6384 146.26C66.5403 146.318 66.4422 146.376 66.3463 146.442C65.2911 147.181 64.6474 148.321 64.5046 149.506C64.398 150.382 64.5642 151.284 65.0353 152.066C65.8965 153.494 68.2925 154.421 70.1833 153.995C70.1854 153.995 70.1854 153.995 70.1875 153.995C70.6245 153.995 71.0337 153.843 71.3897 153.649C71.4281 153.688 71.4643 153.741 71.5027 153.782C71.507 153.788 71.5134 153.794 71.5176 153.799C71.8011 154.074 72.0932 154.344 72.3959 154.604C72.4108 154.619 72.4258 154.632 72.4406 154.645C72.6304 154.809 72.8243 154.969 73.0226 155.124C73.0204 155.127 73.0204 155.129 73.0183 155.131C72.9607 155.229 72.9011 155.331 72.8499 155.434C72.6453 155.837 72.5088 156.254 72.4342 156.672C72.3255 157.286 72.3532 157.902 72.5025 158.475C72.6133 158.895 72.7903 159.294 73.0289 159.65C73.1718 159.865 73.336 160.064 73.5256 160.245C73.7729 160.483 74.0607 160.718 74.3826 160.882C75.0924 161.244 75.8727 161.242 76.623 161.242C76.6251 161.242 76.6251 161.242 76.6273 161.242C77.8615 161.029 79.0168 160.189 79.6584 158.925C79.7139 158.821 79.7586 158.667 79.8034 158.561C80.3449 158.712 80.8884 158.898 81.4363 158.898H81.4384C81.5365 158.898 81.6345 158.898 81.7325 159.111C81.7348 159.111 81.7348 159.111 81.7368 159.111C81.7453 159.111 81.7561 159.066 81.7667 159.066C81.7773 159.068 81.788 159.046 81.7965 159.048C81.8711 159.061 81.9479 159.061 82.0246 159.072C82.0885 159.082 82.1545 159.087 82.2186 159.095C82.4786 159.136 82.7141 159.165 82.9763 159.193C82.9678 159.303 82.9391 159.396 82.9391 159.507V159.531C82.9391 159.557 82.9679 159.581 82.9693 159.605C82.97 159.626 82.9835 159.647 82.9855 159.667C82.9855 159.688 82.9922 159.707 82.9942 159.729C83.0006 159.827 83.0146 159.923 83.0274 160.017C83.0295 160.046 83.0355 160.074 83.0397 160.104C83.2507 161.434 84.0915 162.494 85.2297 162.975C85.2724 162.994 85.3176 163.011 85.3644 163.029C85.4285 163.052 85.4947 163.076 85.5629 163.097C85.582 163.105 85.6035 163.112 85.6248 163.116C86.0426 163.235 86.4924 163.282 86.9592 163.242C87.0573 163.233 87.1532 163.22 87.247 163.203C87.2727 163.199 87.3004 163.195 87.326 163.188C89.2956 162.82 90.8048 160.948 90.7622 158.838C90.76 158.759 90.7557 158.682 90.7494 158.605C90.7472 158.582 90.7452 158.556 90.743 158.533C90.7409 158.52 90.7409 158.507 90.7387 158.492C91.8152 158.185 92.8725 157.793 93.8999 157.318C93.9489 157.418 94.0001 157.518 94.0577 157.614C94.0833 157.657 94.111 157.699 94.1408 157.742C94.2368 157.889 94.3413 158.028 94.4564 158.156C94.4585 158.158 94.4585 158.158 94.4605 158.16C95.0318 158.808 95.7971 159.204 96.6178 159.319C96.9887 159.375 97.3724 159.371 97.7561 159.305C98.3189 159.213 98.8796 158.989 99.3953 158.627C101.145 157.401 101.759 155.035 100.849 153.217C100.826 153.17 100.802 153.123 100.774 153.076C100.753 153.035 100.73 152.995 100.706 152.956C100.649 152.863 100.587 152.773 100.523 152.688C101.335 151.874 102.096 150.991 102.799 150.045C102.891 150.102 102.983 150.158 103.081 150.207C103.561 150.45 104.07 150.573 104.584 150.588C104.833 150.599 105.08 150.582 105.328 150.539C106.562 150.33 107.715 149.514 108.359 148.248C109.391 146.212 108.706 143.788 106.824 142.833C106.728 142.784 106.628 142.742 106.528 142.701C106.877 141.576 107.142 140.44 107.319 139.303C107.425 139.304 107.534 139.301 107.643 139.293ZM70.6417 152.914C70.6651 152.94 70.6886 152.965 70.712 152.991C70.6545 152.955 70.6246 152.927 70.6417 152.914ZM79.6393 150.505C72.8095 147.037 70.3177 138.233 74.0715 130.841C75.99 127.064 79.1661 124.386 82.726 123.131C85.0132 122.327 87.4583 122.11 89.8286 122.568C90.9903 122.79 92.1329 123.176 93.2308 123.732C93.9128 124.079 94.5545 124.478 95.147 124.928C95.2046 124.968 95.2621 125.013 95.3197 125.058C95.5712 125.252 95.8121 125.456 96.0466 125.667C96.1425 125.755 96.2363 125.842 96.33 125.934C96.345 125.947 96.3599 125.962 96.3749 125.977C96.4729 126.07 96.5688 126.166 96.6626 126.264C96.6754 126.277 96.6903 126.29 96.701 126.305C96.7905 126.397 96.8779 126.488 96.9632 126.584C96.9845 126.608 97.0059 126.631 97.027 126.657C97.1124 126.75 97.1934 126.844 97.2723 126.94C97.2893 126.957 97.3042 126.974 97.317 126.993C97.398 127.087 97.4747 127.183 97.5493 127.281C97.8711 127.688 98.1675 128.112 98.4382 128.556C98.5021 128.656 98.5619 128.761 98.6215 128.863C98.6386 128.891 98.6535 128.918 98.6684 128.946C98.7218 129.035 98.7708 129.125 98.8177 129.217C98.8454 129.264 98.871 129.313 98.8965 129.362C98.9413 129.447 98.9861 129.532 99.0265 129.617C99.1886 129.941 99.3378 130.272 99.4742 130.609C99.5275 130.737 99.5765 130.867 99.6256 130.997C99.6682 131.114 99.7108 131.233 99.7513 131.353C99.7833 131.44 99.8109 131.527 99.8387 131.615C99.8579 131.674 99.877 131.734 99.8941 131.794C99.9175 131.864 99.9368 131.932 99.9559 132.001C99.9773 132.071 99.9964 132.139 100.014 132.207C100.039 132.288 100.06 132.371 100.08 132.452C100.152 132.734 100.216 133.017 100.271 133.303C100.301 133.461 100.329 133.616 100.355 133.774C100.38 133.925 100.401 134.077 100.421 134.23C100.423 134.249 100.425 134.269 100.427 134.29C100.442 134.399 100.455 134.507 100.465 134.616C100.474 134.693 100.48 134.767 100.487 134.844C100.493 134.906 100.497 134.968 100.502 135.032C100.51 135.126 100.517 135.221 100.521 135.317C100.672 137.986 100.126 140.779 98.7984 143.394C97.9905 144.987 96.9566 146.383 95.7673 147.561C95.6414 147.685 95.5157 147.807 95.3877 147.926C95.2578 148.045 95.1278 148.16 94.9956 148.276C94.923 148.337 94.8506 148.401 94.7761 148.461C94.7163 148.512 94.6545 148.561 94.5927 148.61C94.4584 148.719 94.3219 148.826 94.1834 148.93C92.9939 149.827 91.6979 150.533 90.3444 151.034C90.1227 151.115 89.901 151.192 89.6771 151.262C89.449 151.334 89.2188 151.401 88.9865 151.46C88.9822 151.462 88.9779 151.462 88.9736 151.464C88.8372 151.499 88.6986 151.533 88.5601 151.562C88.4194 151.597 88.2766 151.626 88.1338 151.652C87.1213 151.85 86.0896 151.933 85.06 151.899C84.9193 151.895 84.7807 151.889 84.6422 151.876C84.6208 151.876 84.5975 151.874 84.5761 151.872C82.8901 151.754 81.2189 151.307 79.6393 150.505Z" fill="url(#paint19_linear_4_3633)"/>
<path d="M107.319 139.304C107.142 140.44 106.877 141.576 106.528 142.701C106.628 142.742 106.728 142.785 106.824 142.834C108.706 143.789 109.391 146.212 108.359 148.248C107.715 149.514 106.562 150.331 105.328 150.539C105.08 150.582 104.833 150.599 104.584 150.588C104.07 150.574 103.561 150.45 103.081 150.207C102.983 150.158 102.891 150.102 102.8 150.045C102.096 150.991 101.335 151.874 100.523 152.688C100.587 152.773 100.649 152.863 100.706 152.957C100.73 152.995 100.753 153.036 100.775 153.076C100.802 153.121 100.83 153.168 100.856 153.215C101.892 155.061 102.614 157.729 100.862 158.957C100.331 159.328 99.6341 159.527 98.8817 159.578C98.1442 159.627 97.3341 159.535 96.6008 159.32C95.7609 159.077 95.0894 158.676 94.45 158.152V158.045H94.4819C94.3519 158.045 94.2389 157.833 94.1409 157.69C94.1111 157.647 94.0834 157.631 94.0578 157.588C94.0002 157.492 93.949 157.405 93.9 157.305C92.8726 157.78 91.8153 158.179 90.7388 158.486C90.741 158.501 90.741 158.517 90.743 158.53C90.7452 158.553 90.7792 158.581 90.7814 158.604C90.7878 158.662 90.8261 158.719 90.8261 158.791V158.838C90.8261 161.063 90.4232 163.374 88.2873 163.374H88.281C87.2129 163.434 86.3348 163.338 85.625 163.116C85.6036 163.112 85.5823 163.106 85.5631 163.097C85.4949 163.076 85.4288 163.052 85.3649 163.029C85.318 163.012 85.2733 162.995 85.2306 162.975C83.8684 162.417 83.2161 161.351 83.0413 160.104C83.0371 160.074 83.0328 160.047 83.0307 160.017C83.018 159.906 83.0072 159.795 83.0009 159.682C83.0009 159.678 83.0009 159.671 82.9988 159.667C82.9923 159.61 82.9624 159.569 82.9603 159.507C82.9581 159.392 82.939 159.305 82.939 159.19V159.187C82.7258 159.162 82.4466 159.128 82.1865 159.089C82.1226 159.081 82.0715 159.07 82.0096 159.06C81.9329 159.049 81.8626 159.085 81.788 159.072C81.7709 159.068 81.7539 159.111 81.7368 159.111C81.7347 159.111 81.7347 159.111 81.7325 159.111C81.6344 158.898 81.5364 158.898 81.4384 158.898H81.4363C82.2611 157.192 83.1223 155.52 83.8493 153.778C84.1157 153.139 84.4291 152.504 84.6423 151.861C84.6444 151.858 84.6444 151.866 84.6444 151.864C84.6444 151.873 84.8724 151.883 85.0259 151.889C85.0408 151.891 85.0536 151.893 85.0664 151.893C86.0981 151.929 87.1213 151.847 88.1339 151.651C88.2767 151.623 88.4174 151.594 88.5602 151.562C88.6987 151.532 88.8372 151.498 88.9737 151.464C88.9779 151.462 88.9822 151.462 88.9865 151.46C89.2188 151.401 89.4491 151.335 89.6771 151.262C89.901 151.192 90.1227 151.117 90.3444 151.034C91.7022 150.537 92.9983 149.83 94.192 148.93C94.3305 148.826 94.4627 148.719 94.597 148.61C94.6588 148.561 94.7184 148.512 94.7761 148.461C94.8506 148.401 94.9231 148.338 94.9956 148.276C95.1278 148.161 95.2578 148.045 95.3878 147.926C95.5157 147.807 95.6415 147.685 95.7673 147.562C96.9567 146.383 97.9906 144.987 98.7985 143.394C100.127 140.779 100.672 137.986 100.521 135.318C100.517 135.222 100.51 135.126 100.502 135.032C100.497 134.968 100.493 134.906 100.487 134.844C100.48 134.768 100.474 134.693 100.465 134.616C100.455 134.508 100.442 134.399 100.427 134.29C100.425 134.269 100.423 134.25 100.421 134.23C100.402 134.077 100.38 133.926 100.355 133.774C100.329 133.616 100.301 133.461 100.271 133.303C100.216 133.017 100.152 132.734 100.08 132.453C100.06 132.372 100.039 132.288 100.014 132.207C99.9965 132.139 99.9774 132.071 99.956 132.001C99.9369 131.932 99.9176 131.864 99.8942 131.794C99.8771 131.734 99.858 131.675 99.8388 131.615C99.811 131.528 99.7833 131.44 99.7514 131.353C99.7109 131.233 99.6682 131.114 99.6257 130.997C99.5765 130.867 99.5275 130.737 99.4742 130.609C99.3379 130.272 99.1886 129.942 99.0266 129.618C98.9862 129.532 98.9413 129.447 98.8966 129.362C98.8711 129.313 98.8455 129.264 98.8178 129.217C98.7708 129.125 98.7218 129.036 98.6685 128.946C98.6535 128.918 98.6387 128.891 98.6216 128.863C98.5619 128.761 98.5022 128.656 98.4383 128.556C98.1675 128.113 97.8712 127.688 97.5494 127.281C97.4748 127.183 97.3981 127.087 97.3171 126.994C97.3043 126.974 97.2893 126.957 97.2723 126.94C97.1934 126.844 97.1124 126.75 97.0271 126.657C97.0059 126.631 96.9845 126.608 96.9632 126.584C96.878 126.488 96.7906 126.397 96.701 126.305C96.6903 126.29 96.6754 126.277 96.6626 126.265C96.5688 126.166 96.473 126.071 96.3749 125.977C96.3599 125.962 96.3451 125.947 96.3301 125.934C96.2363 125.842 96.1425 125.755 96.0467 125.668C95.8122 125.457 95.5712 125.252 95.3198 125.058C95.2622 125.013 95.2047 124.969 95.1471 124.928C95.1044 124.894 95.0639 124.862 95.0214 124.832C95.162 124.576 95.3027 124.318 95.4434 124.063C97.0251 121.17 98.6323 118.294 100.261 115.427C100.632 116.465 100.583 117.687 100.02 118.795C99.9667 118.902 99.9071 119.002 99.8473 119.1C100.706 119.778 101.504 120.522 102.228 121.323C102.316 121.251 102.403 121.181 102.497 121.115C102.753 120.935 103.023 120.752 103.305 120.582C105.04 119.524 107.221 118.87 109.335 121.682C110.629 123.402 108.359 126.51 106.524 127.795C106.428 127.861 106.33 127.923 106.229 127.981C106.617 129.029 106.924 130.114 107.148 131.225C107.259 131.206 107.368 131.187 107.481 131.178C108.08 131.125 108.651 131.216 109.165 131.425C109.184 131.432 109.201 131.438 109.22 131.447C110.51 131.997 111.416 133.297 111.448 134.889C111.493 137.13 109.789 139.101 107.643 139.293C107.534 139.301 107.425 139.304 107.319 139.304Z" fill="url(#paint20_linear_4_3633)"/>
<path d="M109.666 139.521C111.812 139.331 113.515 137.36 113.468 135.119C113.424 132.877 111.648 131.216 109.504 131.408C109.408 131.414 109.314 131.429 109.22 131.446C109.203 131.448 109.188 131.453 109.171 131.455C109.169 131.444 109.167 131.436 109.165 131.425C108.941 130.325 108.636 129.251 108.252 128.208C108.352 128.151 108.451 128.091 108.546 128.025C110.382 126.74 110.968 124.201 109.858 122.355C109.706 122.105 109.531 121.879 109.335 121.681C108.506 120.831 107.325 120.468 106.157 120.664C105.594 120.758 105.036 120.984 104.52 121.344C104.426 121.408 104.339 121.481 104.249 121.553C103.968 121.242 103.674 120.937 103.371 120.645C103.35 120.622 103.326 120.6 103.305 120.581C102.849 120.142 102.371 119.724 101.87 119.33C101.93 119.232 101.99 119.132 102.043 119.025C103.032 117.079 102.448 114.775 100.749 113.745C100.734 113.734 100.717 113.724 100.7 113.715C100.638 113.679 100.574 113.643 100.51 113.611C98.6301 112.656 96.2661 113.532 95.2323 115.568C95.1789 115.674 95.1342 115.781 95.0895 115.887C94.4499 115.708 93.804 115.563 93.1561 115.453C92.734 115.38 92.3119 115.32 91.8899 115.278C91.8963 115.165 91.9026 115.05 91.9005 114.937C91.8643 113.176 90.7664 111.741 89.2573 111.315C89.0355 111.249 88.8054 111.172 88.5688 111.153C88.5346 111.151 88.5005 111.149 88.4664 111.149H88.4557C88.3939 111.149 88.332 111.179 88.2702 111.179C88.1595 111.179 88.0464 111.198 87.9335 111.208C85.7891 111.398 84.0858 113.378 84.1306 115.619C84.1328 115.736 84.1413 115.855 84.1541 115.968C83.0775 116.275 82.0202 116.67 80.9929 117.145C80.9439 117.045 80.8926 116.947 80.8351 116.851C80.7157 116.653 80.5814 116.471 80.4323 116.305C80.4301 116.303 80.4279 116.301 80.4258 116.299C79.5923 115.361 78.3581 114.954 77.1346 115.161C76.6784 115.235 76.2244 115.397 75.796 115.649C75.6958 115.706 75.5955 115.77 75.4975 115.838C73.6622 117.126 73.076 119.663 74.1865 121.509C74.2441 121.602 74.306 121.692 74.3698 121.779C73.5578 122.591 72.7946 123.474 72.0911 124.42C72.0016 124.365 71.9078 124.31 71.8119 124.258C71.3323 124.015 70.8229 123.892 70.3091 123.877C70.0618 123.866 69.8124 123.883 69.5651 123.926C68.3309 124.135 67.1756 124.953 66.534 126.217C65.5001 128.253 66.1865 130.679 68.0666 131.634C68.1647 131.683 68.2649 131.723 68.365 131.764C68.0155 132.889 67.7511 134.026 67.5742 135.162C67.4676 135.162 67.3589 135.164 67.2481 135.175C65.1037 135.364 63.4005 137.336 63.4452 139.578C63.4773 141.169 64.3789 142.467 65.6685 143.017C65.6708 143.017 65.6708 143.06 65.6728 143.06C65.6919 143.069 65.709 143.123 65.7282 143.123H65.7304C66.2441 143.337 66.8111 143.382 67.4123 143.329C67.5231 143.321 67.6339 143.283 67.7426 143.261C67.9664 144.372 68.2755 145.447 68.6614 146.497C68.5633 146.555 68.4653 146.61 68.3693 146.676C66.534 147.963 65.9457 150.453 67.0584 152.298C67.7511 153.447 68.9406 153.995 70.1834 153.995C70.1855 153.995 70.1855 153.995 70.1876 153.995C70.6268 153.995 71.07 153.948 71.5028 153.782C71.5071 153.782 71.5134 153.78 71.5177 153.777C71.8183 153.662 72.1124 153.528 72.3939 153.332C72.4897 153.266 72.5772 153.204 72.6645 153.132C73.3893 153.933 74.1844 154.681 75.0455 155.359C74.9838 155.457 74.9262 155.564 74.873 155.668C73.8391 157.704 74.5255 160.13 76.4056 161.085C76.4759 161.121 76.5506 161.155 76.623 161.187C76.6251 161.187 76.6251 161.189 76.6272 161.189C78.4668 161.971 80.688 161.085 81.6814 159.128C81.7005 159.089 81.7198 159.051 81.7367 159.013C81.7687 158.944 81.7986 158.876 81.8263 158.808C82.8814 159.102 83.9495 159.307 85.0238 159.418C85.0173 159.533 85.0131 159.646 85.0153 159.761C85.0472 161.353 85.9532 162.607 87.247 163.157C87.2726 163.167 87.3003 163.178 87.326 163.189C87.6265 163.306 87.9463 163.374 88.2809 163.374H88.2873C88.5133 163.587 88.7457 163.446 88.9823 163.425C89.1144 163.412 89.2444 163.395 89.3745 163.37C91.2396 163.01 92.6646 161.315 92.7606 159.337C92.7648 159.249 92.7446 159.16 92.7446 159.068V159.045C92.7446 158.932 92.7446 158.829 92.7446 158.723V158.712C93.3841 158.548 93.8893 158.367 94.4478 158.156C94.4499 158.156 94.4542 158.101 94.4562 158.101C94.4627 158.099 94.4733 158.258 94.4819 158.045H94.4841C94.9679 158.045 95.4476 157.713 95.9229 157.494C95.9719 157.594 96.023 157.723 96.0806 157.818C96.4941 158.505 97.0826 159.01 97.756 159.292C98.1121 159.445 98.4915 159.541 98.8816 159.571C99.7322 159.635 100.625 159.408 101.416 158.854C101.904 158.513 102.303 158.084 102.603 157.602C103.356 156.41 103.516 154.904 102.957 153.629C102.891 153.478 102.815 153.331 102.727 153.187C102.672 153.093 102.608 153.003 102.546 152.916C102.563 152.899 102.582 152.88 102.597 152.863C103.301 152.157 103.963 151.396 104.584 150.588C104.665 150.486 104.744 150.38 104.822 150.275C104.914 150.333 105.006 150.388 105.104 150.437C105.178 150.476 105.251 150.51 105.328 150.539C107.167 151.322 109.386 150.437 110.38 148.478C111.414 146.442 110.727 144.019 108.847 143.064C108.749 143.013 108.651 142.972 108.551 142.932C108.9 141.806 109.163 140.67 109.339 139.534C109.448 139.534 109.557 139.532 109.666 139.521ZM85.0601 151.899C85.0516 151.899 85.0409 151.897 85.0323 151.895C85.0302 151.895 85.0281 151.895 85.026 151.893C83.8769 151.669 82.7472 151.288 81.6601 150.733C74.8324 147.267 72.3406 138.464 76.0944 131.071C77.7186 127.871 80.2468 125.461 83.1457 124.037C85.2454 123.003 87.5412 122.489 89.8284 122.568C91.6787 122.63 93.5226 123.082 95.2535 123.962C95.3174 123.994 95.3814 124.028 95.4433 124.062C102.128 127.592 104.539 136.3 100.819 143.624C98.4809 148.229 94.2709 151.202 89.7774 151.951C88.217 152.211 86.6227 152.202 85.0601 151.899Z" fill="url(#paint21_linear_4_3633)"/>
<path opacity="0.3" d="M102.603 157.604C102.303 158.085 101.904 158.516 101.416 158.857C100.625 159.411 99.7321 159.642 98.8815 159.578C98.144 159.627 97.351 159.535 96.6177 159.32C95.797 159.205 95.0318 158.808 94.4605 158.16C93.8999 158.373 93.335 158.559 92.7616 158.723C92.7722 158.836 92.7829 158.951 92.785 159.068C92.7872 159.16 92.785 159.249 92.7807 159.337C92.6955 161.326 91.2459 163.01 89.3744 163.37C89.2443 163.395 89.1143 163.412 88.9822 163.425C88.7456 163.446 88.5132 163.587 88.2872 163.374H88.2808C87.2128 163.434 86.3347 163.338 85.6248 163.116C85.6035 163.112 85.5821 163.105 85.563 163.097C85.4948 163.076 85.4287 163.052 85.3647 163.029C85.3179 163.012 85.2731 162.995 85.2304 162.975C83.8683 162.417 83.216 161.351 83.0412 160.104C83.037 160.074 83.0327 160.047 83.0306 160.017C83.0178 159.906 82.9804 159.795 82.9741 159.682C82.9698 159.624 82.9389 159.584 82.9389 159.531V159.507C82.9389 159.396 82.9389 159.301 82.9389 159.19V159.179C82.7257 159.151 82.4465 159.124 82.1865 159.083C82.1225 159.075 82.0724 159.068 82.0084 159.057C81.9317 159.047 81.863 159.034 81.7884 159.021C81.7799 159.019 81.7731 159.017 81.7625 159.017C81.7519 159.017 81.7432 159.015 81.7346 159.013C81.7177 159.051 81.6994 159.089 81.6802 159.128C80.6869 161.085 78.4662 161.971 76.6267 161.189C75.8742 161.317 75.0943 161.219 74.3822 160.857C74.0604 160.692 73.7728 160.486 73.5254 160.245C73.3358 160.064 73.1717 159.865 73.0288 159.65C72.788 159.294 72.611 158.898 72.5024 158.476C72.3531 157.902 72.3255 157.286 72.4342 156.672C72.5088 156.256 72.6473 155.841 72.8499 155.44C72.9032 155.336 72.9629 155.235 73.0226 155.135C73.0204 155.133 73.0204 155.133 73.0183 155.131C72.8222 154.978 72.6304 154.813 72.4406 154.645C72.4258 154.632 72.4108 154.619 72.3959 154.604C72.0932 154.334 71.8012 154.052 71.5176 153.777C71.5133 153.78 71.507 153.782 71.5027 153.782C71.07 153.948 70.6267 153.995 70.1875 153.995C70.1854 153.995 70.1854 153.995 70.1833 153.995C68.2925 154.421 65.8965 153.494 65.0353 152.066C64.5642 151.283 64.398 150.382 64.5046 149.506C64.6453 148.31 65.289 147.161 66.3463 146.419C66.4422 146.353 66.5382 146.304 66.6362 146.248C66.6362 146.246 66.6384 146.246 66.6384 146.246C66.2569 145.206 65.9541 144.183 65.7303 143.085C65.7281 143.083 65.7281 143.123 65.7281 143.123H65.726C65.7089 143.123 65.694 143.123 65.677 143.117C65.6748 143.117 65.6748 143.123 65.6727 143.123C65.6706 143.123 65.6706 143.123 65.6684 143.123C65.5767 143.123 65.4809 143.102 65.3892 143.111C64.2595 143.211 63.2342 142.773 62.5072 142.033C61.8528 141.368 61.4436 140.423 61.4222 139.362C61.3775 137.119 63.0806 135.143 65.2273 134.951C65.3359 134.94 65.4447 134.935 65.5512 134.935C65.7281 133.799 65.9925 132.663 66.3421 131.535C66.2419 131.495 66.1417 131.453 66.0458 131.404C64.1635 130.449 63.4772 128.023 64.5109 125.988C65.5043 124.031 67.7255 123.144 69.565 123.926C69.8123 123.883 70.0618 123.866 70.309 123.877C70.9442 123.048 71.6265 122.27 72.3469 121.549C72.2829 121.462 72.2211 121.372 72.1636 121.278C71.053 119.435 71.6392 116.896 73.4745 115.61C73.9072 115.306 74.3741 115.099 74.8452 114.986C75.1521 115.193 75.4697 115.414 75.7959 115.649C78.2452 117.424 81.1143 119.993 82.7259 123.131C82.8751 123.427 83.0179 123.73 83.1458 124.037C80.2468 125.461 77.7186 127.872 76.0944 131.071C72.3406 138.464 74.8324 147.267 81.6601 150.733C82.7473 151.288 83.877 151.669 85.026 151.893C85.0408 151.895 85.0537 151.895 85.0665 151.895C86.0982 151.931 87.1214 151.848 88.1339 151.652C88.2767 151.624 88.4174 151.595 88.5602 151.563C88.6987 151.533 88.8373 151.499 88.9737 151.465C89.2317 151.635 89.5003 151.799 89.7773 151.951C92.4781 153.443 96.0955 154.033 100.849 153.217C100.851 153.217 100.853 153.217 100.855 153.215C101.42 153.119 102 153.001 102.597 152.863C102.605 152.863 102.612 152.861 102.62 152.859C102.757 153.117 102.87 153.375 102.957 153.63C103.422 154.992 103.211 156.338 102.603 157.604Z" fill="white"/>
<path d="M34.4552 171.802C34.4034 171.786 34.2993 171.754 34.168 171.771C34.002 171.791 33.887 171.877 33.8212 171.928C33.7591 171.975 33.2494 172.378 33.2552 172.929C33.2598 173.371 33.5894 173.399 33.9168 174.135C34.1833 174.734 34.0308 174.863 34.2732 175.172C34.6782 175.688 35.5664 175.916 35.9491 175.576C36.1277 175.418 36.1513 175.175 36.1577 175.111C36.2164 174.51 35.5902 174.338 35.4528 173.662C35.315 172.984 35.8463 172.669 35.5914 172.284C35.4879 172.128 35.1436 172.02 34.4552 171.802Z" fill="url(#paint22_linear_4_3633)"/>
<path d="M34.9516 170.765C34.384 171.287 34.1368 171.868 34.3151 172.165C34.3814 172.276 34.5043 172.343 34.5589 172.373C34.9396 172.582 35.345 172.429 35.422 172.398L36.1534 171.371L34.9516 170.765Z" fill="url(#paint23_linear_4_3633)"/>
<path d="M20.5302 174.746C20.3474 174.682 20.1467 174.722 20.0019 174.851C19.7779 175.05 19.4531 175.361 19.2802 175.631C18.9997 176.068 20.0675 176.278 21.1718 176.508C22.2761 176.738 23.6437 177.1 23.6029 176.767C23.5621 176.434 23.2451 175.927 22.1775 175.385C21.8945 175.241 20.9979 174.911 20.5302 174.746Z" fill="url(#paint24_linear_4_3633)"/>
<path d="M20.6407 173.525L20.1787 174.988C20.1787 174.988 20.4297 175.464 21.096 175.184L21.8652 173.906L20.6407 173.525Z" fill="url(#paint25_linear_4_3633)"/>
<path d="M61.847 110.602C61.8478 110.606 59.6635 113.748 57.5715 114.364L63.0876 115.261C63.0876 115.261 62.3678 115.018 62.3678 114.007C62.3678 113.377 62.8584 111.862 62.8584 111.862L61.847 110.602Z" fill="url(#paint26_linear_4_3633)"/>
<path d="M50.0104 142.785C50.5706 144.956 51.303 148.147 51.8711 152.075C52.8563 158.888 52.2528 160.352 51.9348 160.991C50.7533 163.366 48.7966 163.825 43.867 166.768C40.3495 168.868 37.665 170.832 35.9907 172.124C35.7423 172.084 35.3574 171.992 34.9437 171.753C34.5752 171.541 34.3212 171.293 34.1641 171.113C34.6157 168.923 35.4551 167.47 36.1089 166.571C36.8836 165.506 37.5707 164.981 40.9134 162.318C43.2867 160.427 44.4746 159.479 44.5364 159.364C46.5677 155.592 40.0153 150.585 41.5041 146.662C42.0615 145.193 43.9075 143.45 50.0104 142.785Z" fill="url(#paint27_linear_4_3633)"/>
<path opacity="0.3" d="M36.1089 166.571C36.8836 165.506 37.5707 164.981 40.9134 162.318C43.2867 160.427 44.4746 159.479 44.5364 159.364C46.5677 155.592 40.0153 150.585 41.5041 146.662C42.0615 145.193 43.9075 143.45 50.0105 142.785C50.2945 143.886 50.6227 145.251 50.9513 146.838C48.7099 147.991 48.017 149.138 47.8839 150.07C47.5669 152.29 50.3258 153.838 49.656 155.741C49.1124 157.286 47.0021 157.1 46.5843 158.695C46.1792 160.242 47.978 161.124 47.6476 162.357C47.1077 164.373 41.9758 163.251 39.2594 165.902C38.3854 166.754 37.5225 168.237 37.4594 171.018C36.9071 171.424 36.4157 171.796 35.9907 172.124C35.7423 172.084 35.3574 171.992 34.9437 171.753C34.5752 171.541 34.3212 171.293 34.1641 171.113C34.6157 168.923 35.4551 167.47 36.1089 166.571Z" fill="url(#paint28_linear_4_3633)"/>
<path d="M51.1327 143.572C49.3125 144.819 46.7792 146.626 43.8669 148.948C39.674 152.291 35.1646 155.887 30.6583 161.275C28.2132 164.199 25.0229 168.542 22.1119 174.443C21.9064 174.486 21.5188 174.538 21.0583 174.42C20.5071 174.278 20.1541 173.968 20.0018 173.817C19.4736 169.469 20.2488 166.417 21.006 164.484C22.691 160.182 24.6336 160.535 27.9765 154.264C28.8822 152.565 29.9075 150.349 32.0881 146.516C32.9218 145.05 33.557 143.994 34.5926 142.805C36.2448 140.906 38.0062 139.712 39.2703 138.991C43.2245 140.518 47.1786 142.045 51.1327 143.572Z" fill="url(#paint29_linear_4_3633)"/>
<path d="M63.743 109.491C63.9169 108.919 63.5077 108.059 62.8338 107.81C62.3337 107.625 61.865 107.843 61.5235 108.001C61.3653 108.075 60.2586 108.604 60.2022 109.535C60.1843 109.83 60.3079 110.185 60.5007 110.436C60.6001 110.566 60.7627 110.715 61.1074 110.989C61.4133 111.233 61.3958 111.227 61.4881 111.297C61.7098 111.464 62.1218 111.735 62.8038 111.987C62.7877 111.821 62.7783 111.612 62.7967 111.375C62.8038 111.284 62.8352 110.927 62.9562 110.597C63.2016 109.929 63.6071 109.938 63.743 109.491Z" fill="url(#paint30_linear_4_3633)"/>
<path d="M61.9692 111.788C61.9692 111.788 62.8035 112.475 63.837 112.038C64.7623 111.647 64.1623 109.476 63.4008 109.236C63.1467 109.155 62.721 109.234 62.4245 109.44C62.2493 109.562 62.2117 109.665 61.9217 109.859C61.6542 110.038 61.5598 110.034 61.497 110.139C61.4185 110.271 61.4169 110.529 61.8183 111.085C61.574 110.965 61.3327 110.97 61.2044 111.096C61.1839 111.116 61.1343 111.183 61.1211 111.263C61.073 111.552 61.4022 111.784 61.9692 111.788Z" fill="url(#paint31_linear_4_3633)"/>
<path d="M84.7817 112.931L86.0793 111.598C86.0793 111.598 87.6982 110.807 88.8796 111.398C90.0611 111.989 89.0297 111.907 88.423 111.987C87.8163 112.068 86.9044 112.614 86.3167 112.931C85.7291 113.249 85.099 113.673 85.099 113.673L84.7817 112.931Z" fill="url(#paint32_linear_4_3633)"/>
<path d="M84.6658 112.186C85.0859 112.711 85.5059 113.236 85.926 113.761C84.7755 117.682 82.9303 119.838 81.4366 121.086C76.6613 125.076 71.7048 122.949 65.3656 127.761C63.4094 129.245 62.1762 130.742 61.1501 131.988C56.5222 137.605 56.8122 141.241 52.8259 143.527C50.6309 144.786 48.5189 144.844 47.1363 144.883C43.1932 144.992 37.825 143.463 36.9817 140.312C36.8212 139.713 36.868 139.216 36.8965 138.965C37.6688 132.153 45.7328 122.811 48.9865 119.156C51.256 116.607 53.2123 114.547 56.2326 114.037C57.4977 113.823 58.52 113.96 60.5646 114.233C64.2826 114.731 65.442 115.564 68.7062 116.251C70.9084 116.714 73.3681 117.231 76.0936 116.819C77.7015 116.575 81.0958 115.752 84.6658 112.186Z" fill="url(#paint33_linear_4_3633)"/>
<path opacity="0.3" d="M45.4029 141.091C46.6377 138.486 45.2437 136.532 46.8206 134.594C48.7265 132.25 51.5626 134.122 54.3818 131.876C57.6555 129.268 56.3106 124.769 59.1076 123.724C60.8649 123.068 61.6596 124.745 64.3059 124.315C67.1686 123.849 67.2252 121.726 70.0949 120.771C73.2135 119.733 74.676 121.733 78.8376 121.48C79.6668 121.429 80.565 121.284 81.5168 121.017C81.4903 121.039 81.463 121.064 81.4368 121.086C76.6615 125.076 71.705 122.949 65.3658 127.761C63.4096 129.245 62.1764 130.742 61.1502 131.988C56.5224 137.605 56.8124 141.241 52.826 143.527C50.6311 144.786 48.519 144.844 47.1365 144.883C45.6007 144.925 43.8507 144.716 42.2341 144.262C43.9844 143.277 44.9058 142.14 45.4029 141.091Z" fill="url(#paint34_linear_4_3633)"/>
</g>
<defs>
<linearGradient id="paint0_linear_4_3633" x1="259.563" y1="127.407" x2="68.7787" y2="77.5421" gradientUnits="userSpaceOnUse">
<stop offset="0.1" stop-color="#311944"/>
<stop offset="0.2658" stop-color="#371B47"/>
<stop offset="0.477" stop-color="#462150"/>
<stop offset="0.515" stop-color="#4A2252"/>
<stop offset="0.6806" stop-color="#5C295C"/>
<stop offset="1" stop-color="#893976"/>
</linearGradient>
<linearGradient id="paint1_linear_4_3633" x1="250.337" y1="124.85" x2="59.5479" y2="74.9832" gradientUnits="userSpaceOnUse">
<stop offset="0.1" stop-color="#311944"/>
<stop offset="0.267" stop-color="#371B47"/>
<stop offset="0.4803" stop-color="#462150"/>
<stop offset="0.7186" stop-color="#612A5F"/>
<stop offset="0.9736" stop-color="#853774"/>
<stop offset="1" stop-color="#893976"/>
</linearGradient>
<linearGradient id="paint2_linear_4_3633" x1="-0.851095" y1="44.8923" x2="141.379" y2="108.665" gradientUnits="userSpaceOnUse">
<stop stop-color="#AA80F9"/>
<stop offset="0.9964" stop-color="#6165D7"/>
</linearGradient>
<linearGradient id="paint3_linear_4_3633" x1="317.951" y1="112.464" x2="116.252" y2="69.138" gradientUnits="userSpaceOnUse">
<stop offset="0.1" stop-color="#311944"/>
<stop offset="0.267" stop-color="#371B47"/>
<stop offset="0.4803" stop-color="#462150"/>
<stop offset="0.7186" stop-color="#612A5F"/>
<stop offset="0.9736" stop-color="#853774"/>
<stop offset="1" stop-color="#893976"/>
</linearGradient>
<linearGradient id="paint4_linear_4_3633" x1="318" y1="112.219" x2="116.305" y2="68.8949" gradientUnits="userSpaceOnUse">
<stop offset="0.1" stop-color="#311944"/>
<stop offset="0.267" stop-color="#371B47"/>
<stop offset="0.4803" stop-color="#462150"/>
<stop offset="0.7186" stop-color="#612A5F"/>
<stop offset="0.9736" stop-color="#853774"/>
<stop offset="1" stop-color="#893976"/>
</linearGradient>
<linearGradient id="paint5_linear_4_3633" x1="114.621" y1="63.5529" x2="266.216" y2="123.652" gradientUnits="userSpaceOnUse">
<stop stop-color="#AA80F9"/>
<stop offset="0.9964" stop-color="#6165D7"/>
</linearGradient>
<linearGradient id="paint6_linear_4_3633" x1="166.421" y1="95.1222" x2="167.471" y2="109.683" gradientUnits="userSpaceOnUse">
<stop stop-color="#FFC444"/>
<stop offset="0.9964" stop-color="#F36F56"/>
</linearGradient>
<linearGradient id="paint7_linear_4_3633" x1="114.962" y1="98.8076" x2="116.035" y2="113.676" gradientUnits="userSpaceOnUse">
<stop stop-color="#FFC444"/>
<stop offset="0.9964" stop-color="#F36F56"/>
</linearGradient>
<linearGradient id="paint8_linear_4_3633" x1="152.177" y1="167.347" x2="154.676" y2="176.88" gradientUnits="userSpaceOnUse">
<stop stop-color="#FFC444"/>
<stop offset="0.9964" stop-color="#F36F56"/>
</linearGradient>
<linearGradient id="paint9_linear_4_3633" x1="148.072" y1="168.457" x2="150.553" y2="177.919" gradientUnits="userSpaceOnUse">
<stop stop-color="#FFC444"/>
<stop offset="0.9964" stop-color="#F36F56"/>
</linearGradient>
<linearGradient id="paint10_linear_4_3633" x1="161.143" y1="163.155" x2="147.565" y2="145.579" gradientUnits="userSpaceOnUse">
<stop stop-color="#444B8C"/>
<stop offset="0.9964" stop-color="#3E4177"/>
</linearGradient>
<linearGradient id="paint11_linear_4_3633" x1="161.143" y1="163.155" x2="147.565" y2="145.579" gradientUnits="userSpaceOnUse">
<stop stop-color="#444B8C"/>
<stop offset="0.9964" stop-color="#3E4177"/>
</linearGradient>
<linearGradient id="paint12_linear_4_3633" x1="143.295" y1="152.451" x2="121.861" y2="146.932" gradientUnits="userSpaceOnUse">
<stop stop-color="#444B8C"/>
<stop offset="0.9964" stop-color="#3E4177"/>
</linearGradient>
<linearGradient id="paint13_linear_4_3633" x1="137.46" y1="84.5733" x2="147.611" y2="135.126" gradientUnits="userSpaceOnUse">
<stop stop-color="#FF9085"/>
<stop offset="1" stop-color="#FB6FBB"/>
</linearGradient>
<linearGradient id="paint14_linear_4_3633" x1="142.34" y1="104.141" x2="144.294" y2="111.51" gradientUnits="userSpaceOnUse">
<stop stop-color="#FFC444"/>
<stop offset="0.9964" stop-color="#F36F56"/>
</linearGradient>
<linearGradient id="paint15_linear_4_3633" x1="167.036" y1="195.779" x2="168.989" y2="203.148" gradientUnits="userSpaceOnUse">
<stop stop-color="#FFC444"/>
<stop offset="0.9964" stop-color="#F36F56"/>
</linearGradient>
<linearGradient id="paint16_linear_4_3633" x1="216.743" y1="242.961" x2="222.346" y2="253.526" gradientUnits="userSpaceOnUse">
<stop stop-color="#FFC444"/>
<stop offset="0.9964" stop-color="#F36F56"/>
</linearGradient>
<linearGradient id="paint17_linear_4_3633" x1="127.756" y1="86.5216" x2="137.907" y2="137.075" gradientUnits="userSpaceOnUse">
<stop stop-color="#FF9085"/>
<stop offset="1" stop-color="#FB6FBB"/>
</linearGradient>
<linearGradient id="paint18_linear_4_3633" x1="83.4677" y1="130.918" x2="65.0969" y2="125.187" gradientUnits="userSpaceOnUse">
<stop stop-color="#FFC444"/>
<stop offset="0.9964" stop-color="#F36F56"/>
</linearGradient>
<linearGradient id="paint19_linear_4_3633" x1="183.973" y1="216.089" x2="89.7529" y2="139.135" gradientUnits="userSpaceOnUse">
<stop offset="0.1" stop-color="#311944"/>
<stop offset="0.267" stop-color="#371B47"/>
<stop offset="0.4803" stop-color="#462150"/>
<stop offset="0.7186" stop-color="#612A5F"/>
<stop offset="0.9736" stop-color="#853774"/>
<stop offset="1" stop-color="#893976"/>
</linearGradient>
<linearGradient id="paint20_linear_4_3633" x1="185.431" y1="214.301" x2="91.2126" y2="137.348" gradientUnits="userSpaceOnUse">
<stop offset="0.1" stop-color="#311944"/>
<stop offset="0.267" stop-color="#371B47"/>
<stop offset="0.4803" stop-color="#462150"/>
<stop offset="0.7186" stop-color="#612A5F"/>
<stop offset="0.9736" stop-color="#853774"/>
<stop offset="1" stop-color="#893976"/>
</linearGradient>
<linearGradient id="paint21_linear_4_3633" x1="2.27049" y1="83.3803" x2="163.498" y2="184.336" gradientUnits="userSpaceOnUse">
<stop stop-color="#AA80F9"/>
<stop offset="0.9964" stop-color="#6165D7"/>
</linearGradient>
<linearGradient id="paint22_linear_4_3633" x1="37.846" y1="191.179" x2="34.5853" y2="173.305" gradientUnits="userSpaceOnUse">
<stop stop-color="#311944"/>
<stop offset="1" stop-color="#893976"/>
</linearGradient>
<linearGradient id="paint23_linear_4_3633" x1="34.6213" y1="177.306" x2="33.8311" y2="184.971" gradientUnits="userSpaceOnUse">
<stop stop-color="#FFC444"/>
<stop offset="0.9964" stop-color="#F36F56"/>
</linearGradient>
<linearGradient id="paint24_linear_4_3633" x1="23.4109" y1="187.192" x2="21.2844" y2="175.535" gradientUnits="userSpaceOnUse">
<stop stop-color="#311944"/>
<stop offset="1" stop-color="#893976"/>
</linearGradient>
<linearGradient id="paint25_linear_4_3633" x1="20.8487" y1="176.127" x2="20.0611" y2="183.767" gradientUnits="userSpaceOnUse">
<stop stop-color="#FFC444"/>
<stop offset="0.9964" stop-color="#F36F56"/>
</linearGradient>
<linearGradient id="paint26_linear_4_3633" x1="58.7027" y1="118.944" x2="61.7742" y2="111.143" gradientUnits="userSpaceOnUse">
<stop stop-color="#FFC444"/>
<stop offset="0.9964" stop-color="#F36F56"/>
</linearGradient>
<linearGradient id="paint27_linear_4_3633" x1="52.1276" y1="169.099" x2="19.52" y2="129.639" gradientUnits="userSpaceOnUse">
<stop stop-color="#444B8C"/>
<stop offset="0.9964" stop-color="#26264F"/>
</linearGradient>
<linearGradient id="paint28_linear_4_3633" x1="52.1276" y1="169.099" x2="19.5199" y2="129.639" gradientUnits="userSpaceOnUse">
<stop stop-color="#444B8C"/>
<stop offset="0.9964" stop-color="#26264F"/>
</linearGradient>
<linearGradient id="paint29_linear_4_3633" x1="35.6517" y1="158.809" x2="19.8204" y2="137.425" gradientUnits="userSpaceOnUse">
<stop stop-color="#444B8C"/>
<stop offset="0.9964" stop-color="#26264F"/>
</linearGradient>
<linearGradient id="paint30_linear_4_3633" x1="61.7815" y1="115.166" x2="62.0367" y2="108.167" gradientUnits="userSpaceOnUse">
<stop stop-color="#311944"/>
<stop offset="1" stop-color="#893976"/>
</linearGradient>
<linearGradient id="paint31_linear_4_3633" x1="67.1767" y1="111.78" x2="59.5033" y2="109.74" gradientUnits="userSpaceOnUse">
<stop stop-color="#FFC444"/>
<stop offset="0.9964" stop-color="#F36F56"/>
</linearGradient>
<linearGradient id="paint32_linear_4_3633" x1="94.9088" y1="106.298" x2="80.8498" y2="116.931" gradientUnits="userSpaceOnUse">
<stop stop-color="#FFC444"/>
<stop offset="0.8142" stop-color="#F57F53"/>
<stop offset="0.9964" stop-color="#F36F56"/>
</linearGradient>
<linearGradient id="paint33_linear_4_3633" x1="62.7218" y1="120.635" x2="54.8455" y2="154.031" gradientUnits="userSpaceOnUse">
<stop stop-color="#FFC444"/>
<stop offset="0.9964" stop-color="#F36F56"/>
</linearGradient>
<linearGradient id="paint34_linear_4_3633" x1="64.602" y1="121.079" x2="56.7258" y2="154.474" gradientUnits="userSpaceOnUse">
<stop stop-color="#FFC444"/>
<stop offset="0.9964" stop-color="#F36F56"/>
</linearGradient>
<clipPath id="clip0_4_3633">
<rect width="200" height="200" fill="white"/>
</clipPath>
</defs>
</svg>
