<svg width="29" height="22" viewBox="0 0 29 22" fill="none" xmlns="http://www.w3.org/2000/svg">
<path d="M5.88271 19.6471C5.88267 19.6522 5.88232 19.6573 5.88232 19.6625C5.88232 20.9535 6.93577 22 8.23527 22C9.53476 22 10.5882 20.9535 10.5882 19.6625C10.5882 19.6573 10.5879 19.6522 10.5878 19.6471H5.88271Z" fill="#A0BCE4"/>
<path d="M15.1099 16.7717L13.0062 13.6104C13.0062 12.6426 13.0062 10.278 13.0062 9.66627C13.0062 7.00639 11.1545 4.78922 8.69796 4.28957V3.07504C8.69792 2.48134 8.22744 2 7.64705 2C7.06665 2 6.59617 2.48134 6.59617 3.07504V4.28962C4.13962 4.78931 2.28791 7.00648 2.28791 9.66631C2.28791 10.7076 2.28791 13.0069 2.28791 13.6104L0.184236 16.7717C-0.0373551 17.1047 -0.060789 17.5357 0.123334 17.8918C0.307457 18.2479 0.668921 18.4706 1.0627 18.4706H14.2314C14.6252 18.4706 14.9866 18.2479 15.1708 17.8918C15.3549 17.5357 15.3315 17.1047 15.1099 16.7717Z" fill="#A0BCE4"/>
<path d="M8.5 7.5C8.5 3.63401 11.634 0.5 15.5 0.5H21.5C25.366 0.5 28.5 3.63401 28.5 7.5C28.5 11.366 25.366 14.5 21.5 14.5H15.5C11.634 14.5 8.5 11.366 8.5 7.5Z" fill="#36D09E" stroke="white"/>
<path d="M18.009 9.95V11H13.619V9.95H15.179V5.36L13.729 6.23V5.08L15.709 3.88H16.459V9.95H18.009ZM23.9851 9.95V11H19.2051V10.05L21.6251 7.44C21.9118 7.12667 22.1218 6.84 22.2551 6.58C22.3885 6.32 22.4551 6.06333 22.4551 5.81C22.4551 5.48333 22.3585 5.23667 22.1651 5.07C21.9785 4.90333 21.7085 4.82 21.3551 4.82C20.7285 4.82 20.0851 5.06667 19.4251 5.56L18.9951 4.62C19.2751 4.36667 19.6351 4.16667 20.0751 4.02C20.5151 3.86667 20.9585 3.79 21.4051 3.79C22.1185 3.79 22.6818 3.96667 23.0951 4.32C23.5151 4.66667 23.7251 5.13667 23.7251 5.73C23.7251 6.13667 23.6351 6.52 23.4551 6.88C23.2818 7.24 22.9885 7.64333 22.5751 8.09L20.8251 9.95H23.9851Z" fill="white"/>
</svg>
