<svg width="214" height="30" viewBox="0 0 214 30" fill="none" xmlns="http://www.w3.org/2000/svg">
<path d="M0.5 5C0.5 2.51472 2.51472 0.5 5 0.5H209C211.485 0.5 213.5 2.51472 213.5 5V25C213.5 27.4853 211.485 29.5 209 29.5H5C2.51472 29.5 0.5 27.4853 0.5 25V5Z" stroke="#4C8DEB" stroke-opacity="0.186481"/>
<path fill-rule="evenodd" clip-rule="evenodd" d="M22.4225 17.7793L26.133 21.4898C26.309 21.6658 26.309 21.9569 26.133 22.133C26.045 22.2244 25.9265 22.2684 25.8114 22.2684C25.6963 22.2684 25.5778 22.221 25.4898 22.133L21.7793 18.4225C20.635 19.4179 19.142 20.0205 17.5102 20.0205C13.9216 20.0205 11 17.0988 11 13.5102C11 9.92165 13.9183 7 17.5102 7C21.0988 7 24.0205 9.91826 24.0205 13.5102C24.0205 15.142 23.4179 16.635 22.4225 17.7793ZM17.5068 7.91407C14.4227 7.91407 11.9107 10.4227 11.9107 13.5102C11.9107 16.5978 14.4227 19.1098 17.5068 19.1098C20.5944 19.1098 23.103 16.5944 23.103 13.5102C23.103 10.4261 20.5944 7.91407 17.5068 7.91407Z" fill="#2565C0" fill-opacity="0.437104"/>
<path d="M41.396 20.112C39.8373 20.112 38.596 19.692 37.672 18.852L38.106 17.97C38.6007 18.39 39.1047 18.6887 39.618 18.866C40.1313 19.0433 40.7287 19.132 41.41 19.132C42.2127 19.132 42.8287 18.978 43.258 18.67C43.6967 18.3527 43.916 17.9093 43.916 17.34C43.916 17.004 43.8087 16.7333 43.594 16.528C43.3887 16.3133 43.1133 16.1453 42.768 16.024C42.432 15.9027 41.9793 15.7767 41.41 15.646C40.6447 15.478 40.0147 15.296 39.52 15.1C39.0253 14.904 38.624 14.624 38.316 14.26C38.008 13.8867 37.854 13.4013 37.854 12.804C37.854 12.2347 38.0033 11.7353 38.302 11.306C38.6007 10.8673 39.0207 10.5267 39.562 10.284C40.1127 10.0413 40.752 9.92 41.48 9.92C42.1707 9.92 42.8147 10.0273 43.412 10.242C44.0093 10.4567 44.5133 10.7693 44.924 11.18L44.476 12.062C44.0093 11.6607 43.5333 11.3667 43.048 11.18C42.572 10.9933 42.0493 10.9 41.48 10.9C40.7053 10.9 40.0987 11.068 39.66 11.404C39.2213 11.7307 39.002 12.1833 39.002 12.762C39.002 13.266 39.1933 13.644 39.576 13.896C39.9587 14.148 40.5467 14.3673 41.34 14.554C42.1987 14.7593 42.8707 14.9507 43.356 15.128C43.8507 15.296 44.2613 15.5573 44.588 15.912C44.9147 16.2573 45.078 16.7193 45.078 17.298C45.078 17.858 44.9287 18.3527 44.63 18.782C44.3313 19.202 43.902 19.5287 43.342 19.762C42.7913 19.9953 42.1427 20.112 41.396 20.112ZM52.7087 16.444H47.5427C47.552 17.34 47.7573 18.0167 48.1587 18.474C48.5693 18.9313 49.162 19.16 49.9367 19.16C50.758 19.16 51.514 18.8847 52.2047 18.334L52.5827 19.16C52.2747 19.4493 51.878 19.678 51.3927 19.846C50.9167 20.014 50.4267 20.098 49.9227 20.098C48.8213 20.098 47.958 19.776 47.3327 19.132C46.7073 18.4787 46.3947 17.5873 46.3947 16.458C46.3947 15.7393 46.5347 15.1047 46.8147 14.554C47.0947 13.994 47.4867 13.56 47.9907 13.252C48.4947 12.944 49.0687 12.79 49.7127 12.79C50.646 12.79 51.3787 13.098 51.9107 13.714C52.4427 14.3207 52.7087 15.1607 52.7087 16.234V16.444ZM49.7267 13.672C49.1387 13.672 48.658 13.8493 48.2847 14.204C47.9207 14.5587 47.6873 15.058 47.5847 15.702H51.6867C51.6307 15.0393 51.4347 14.5353 51.0987 14.19C50.772 13.8447 50.3147 13.672 49.7267 13.672ZM60.6319 12.958V20H59.5119V18.726C59.3066 19.1647 58.9939 19.5053 58.5739 19.748C58.1632 19.9813 57.6826 20.098 57.1319 20.098C56.5066 20.098 55.9559 19.9487 55.4799 19.65C55.0132 19.3513 54.6492 18.9313 54.3879 18.39C54.1359 17.8393 54.0099 17.2 54.0099 16.472C54.0099 15.744 54.1406 15.1047 54.4019 14.554C54.6632 13.994 55.0272 13.56 55.4939 13.252C55.9699 12.944 56.5159 12.79 57.1319 12.79C57.6826 12.79 58.1632 12.9113 58.5739 13.154C58.9846 13.3967 59.2972 13.7373 59.5119 14.176V12.958H60.6319ZM57.3559 19.16C58.0466 19.16 58.5786 18.9267 58.9519 18.46C59.3252 17.984 59.5119 17.312 59.5119 16.444C59.5119 15.576 59.3252 14.9087 58.9519 14.442C58.5786 13.9753 58.0466 13.742 57.3559 13.742C56.6652 13.742 56.1239 13.9847 55.7319 14.47C55.3492 14.946 55.1579 15.6133 55.1579 16.472C55.1579 17.3307 55.3492 17.9933 55.7319 18.46C56.1146 18.9267 56.6559 19.16 57.3559 19.16ZM66.1004 12.79C66.3338 12.79 66.5484 12.818 66.7444 12.874L66.7164 13.91C66.5018 13.8353 66.2544 13.798 65.9744 13.798C65.2931 13.798 64.7844 14.0127 64.4484 14.442C64.1218 14.862 63.9584 15.3753 63.9584 15.982V20H62.8244V14.932C62.8244 14.204 62.7871 13.546 62.7124 12.958H63.7904L63.9024 14.26C64.0798 13.784 64.3644 13.42 64.7564 13.168C65.1484 12.916 65.5964 12.79 66.1004 12.79ZM70.714 20.098C70.0326 20.098 69.4353 19.9487 68.922 19.65C68.418 19.3513 68.026 18.9313 67.746 18.39C67.4753 17.8393 67.34 17.2 67.34 16.472C67.34 15.744 67.48 15.1047 67.76 14.554C68.04 13.994 68.4366 13.56 68.95 13.252C69.4726 12.944 70.0793 12.79 70.77 12.79C71.246 12.79 71.7033 12.874 72.142 13.042C72.59 13.2007 72.9586 13.4247 73.248 13.714L72.87 14.554C72.5153 14.274 72.17 14.0687 71.834 13.938C71.5073 13.8073 71.1713 13.742 70.826 13.742C70.1073 13.742 69.5426 13.9847 69.132 14.47C68.7213 14.946 68.516 15.6133 68.516 16.472C68.516 17.3213 68.7166 17.984 69.118 18.46C69.5286 18.9267 70.098 19.16 70.826 19.16C71.1713 19.16 71.5073 19.0947 71.834 18.964C72.17 18.8333 72.5153 18.628 72.87 18.348L73.248 19.188C72.9493 19.468 72.5713 19.692 72.114 19.86C71.666 20.0187 71.1993 20.098 70.714 20.098ZM78.2056 12.79C79.8949 12.79 80.7396 13.7187 80.7396 15.576V20H79.6056V15.632C79.6056 14.9787 79.4749 14.5027 79.2136 14.204C78.9523 13.896 78.5416 13.742 77.9816 13.742C77.3283 13.742 76.8056 13.9427 76.4136 14.344C76.0216 14.7453 75.8256 15.2867 75.8256 15.968V20H74.6916V9.696H75.8256V14.106C76.0496 13.6767 76.3669 13.35 76.7776 13.126C77.1976 12.902 77.6736 12.79 78.2056 12.79Z" fill="#A0BCE4"/>
</svg>
