<svg width="22" height="18" viewBox="0 0 22 18" fill="none" xmlns="http://www.w3.org/2000/svg">
<path fill-rule="evenodd" clip-rule="evenodd" d="M8.52177 17.7747L1.59346 10.8356C1.34166 10.5834 1.34166 10.1707 1.59346 9.91842L11.4964 0C10.4279 0 8.93563 0.619081 8.1801 1.3758L0.56662 9.00122C-0.188873 9.7579 -0.188873 10.9961 0.56662 11.7529L6.23742 17.4325C6.85308 18.0492 7.78792 18.1631 8.52177 17.7747ZM19.9145 0H15.3817C14.3132 0 12.8209 0.619081 12.0654 1.3758L4.4519 9.00122C3.69641 9.7579 3.69641 10.9961 4.4519 11.7529L10.1227 17.4325C10.8782 18.1892 12.1145 18.1892 12.8701 17.4325L20.4834 9.80716C21.239 9.05044 21.8571 7.55576 21.8571 6.48563V1.9457C21.8571 0.875563 20.983 0 19.9145 0ZM17.3243 6.48563C16.2514 6.48563 15.3817 5.61454 15.3817 4.53993C15.3817 3.46536 16.2514 2.59423 17.3243 2.59423C18.3972 2.59423 19.2669 3.46536 19.2669 4.53993C19.2669 5.61454 18.3972 6.48563 17.3243 6.48563Z" fill="white"/>
</svg>
